<?xml version="1.0" encoding="utf-8"?>
<!-- Generator: Adobe Illustrator 19.0.0, SVG Export Plug-In . SVG Version: 6.00 Build 0)  -->
<svg version="1.1" id="Layer_1" xmlns="http://www.w3.org/2000/svg" xmlns:xlink="http://www.w3.org/1999/xlink" x="0px" y="0px"
	 viewBox="1047 -615 2594 1582" style="enable-background:new 1047 -615 2594 1582;" xml:space="preserve">
<style type="text/css">
	.st0{fill:#FFFFFF;}
	.st1{fill:#F15A29;}
	.st2{fill:#D7DF23;}
	.st3{fill:#00A4E7;}
	.st4{fill:#26A9E1;}
</style>
<g>
	<g>
		<path class="st0" d="M2142.1,730.8c0-6.7-4-10.8-11.5-10.1c-2.7,0-6.1,1.3-8.8,2.7c-3.4,1.3-4.7,4-4.7,7.4
			c0.7,14.2,1.3,28.3,1.3,42.5c0,16.9,0,34.4-0.7,51.2c0,8.8-2,17.5-7.4,24.9c-4.7,6.7-10.8,10.1-19.6,8.8
			c-8.8-0.7-14.2-4.7-16.9-12.8c-0.7-3.4-2-6.1-2-9.4c-0.7-20.9-0.7-41.8-1.3-62.7c0-10.8,0.7-21.6,0-33
			c-0.7-12.8-5.4-18.9-18.9-22.2c-2.7,0-5.4,0-8.1,0l-0.7,0.7c-2,1.3-5.4,2.7-5.4,4c0,4.7,1.3,8.8,2.7,13.5c0,0,0.7,0,1.3,0.7
			c6.7,2,8.1,3.4,8.1,10.8c0,22.9,0,46.5,0.7,69.4c0,10.8,0.7,21.6,2.7,31.7c5.4,26.3,38.4,39.8,63.4,27
			c11.5-6.1,16.2-16.2,20.2-26.3c5.4-16.9,6.1-33.7,6.1-51.2C2142.7,776,2142.7,753,2142.1,730.8z"/>
		<path class="st0" d="M1506.3,860.2c-10.8,0-21.6,0-32.4-0.7c-7.4-0.7-11.5-3.4-12.8-10.1c-1.3-12.1-2-24.3-2.7-37.8
			c8.1,0.7,14.8,1.3,20.9,2c8.8,0.7,12.1-1.3,13.5-9.4c0-0.7,0-2,0.7-2.7c0.7-6.1-2-8.8-8.8-8.1c-2.7,0-6.1,0.7-8.8,0.7
			c-5.4,0-10.8,0-16.2,0c0-0.7-0.7-0.7-0.7-0.7c0-16.2,0.7-32.4,0.7-47.9c0-2.7,2-4.7,5.4-4.7c7.4,0,15.5,0.7,22.9,0.7
			c6.1,0,11.5,0.7,17.5,0.7c2,0,5.4-1.3,5.4-2.7c0-4.7,0-10.1-1.3-14.8c0-1.3-4-2.7-6.1-2.7c-3.4-0.7-7.4-0.7-10.8,0
			c-18.9,0-37.1,0.7-56,0.7c-4.7,0-8.1,1.3-9.4,5.4c0,3.4,0,6.1,0,9.4c2,2,4,4,5.4,6.1c1.3,1.3,2.7,3.4,2.7,5.4
			c0.7,5.4,0.7,10.8,0.7,15.5c0,14.8-0.7,29.7-0.7,44.5c0,15.5,1.3,31,2,46.5c0.7,12.1,8.1,20.9,20.2,24.3c13.5,3.4,27,3.4,40.4,2.7
			c10.8-0.7,11.5-3.4,13.5-12.1C1515.8,861.6,1513.8,860.2,1506.3,860.2z"/>
		<g>
			<path class="st0" d="M2343,864.3c-0.7-3.4-2-5.4-6.1-4.7c-6.7,0.7-10.8-2-12.8-7.4c-2.7-7.4-4.7-14.8-6.1-22.2
				c0-0.7,0.7-2.7,1.3-2.7c6.7-4.7,10.8-10.8,13.5-18.2c6.1-18.2,7.4-36.4,3.4-55.3c-2-10.1-7.4-19.6-16.9-26.3
				c-14.2-10.1-33-8.1-46.5,0.7c-4-7.4-10.1-10.1-19.6-8.8c-4,0.7-9.4,1.3-10.1,6.1c-0.7,6.1,0,10.1,6.1,12.8c2,1.3,4.7,4,4.7,6.7
				c0.7,7.4,0.7,15.5,0.7,23.6c-0.7,33-3.4,66.1-1.3,99.1c0,2.7,0,5.4,0.7,8.8c4,0,7.4,0.7,10.8,0.7c8.1,0,9.4-1.3,9.4-8.8
				c0-12.1,0-23.6,0-35.7c8.1,0,14.2,0,19.6,0c4,10.1,7.4,19.6,12.1,29c4,7.4,10.1,14.2,18.9,16.9c5.4,1.3,10.8,3.4,15.5-0.7
				C2344.3,875.1,2343.6,869.7,2343,864.3z M2312,798.2c-4.7,14.2-19.6,18.9-33,16.2c-2.7-0.7-3.4-1.3-3.4-4c0-9.4,0-19.6,0-29l0,0
				c0-8.8,0-17.5,0-25.6c0-7.4,6.1-14.2,14.2-16.2c8.1-2,17.5,0.7,20.2,8.1c2.7,6.1,4,12.1,5.4,18.9
				C2316,777.3,2315.3,788.1,2312,798.2z"/>
		</g>
		<path class="st0" d="M1740.3,860.2c-6.1-0.7-6.1-4.7-6.1-8.1c0-2.7,0-4.7,0-7.4c0-16.9-2-33.7-17.5-45.2
			c3.4-5.4,6.7-10.1,8.8-15.5c7.4-16.9,6.1-35.1,5.4-52.6c0-4-3.4-5.4-7.4-6.1c-2,0-4,0-5.4,0c-8.1,0-9.4,1.3-9.4,8.8
			c0,7.4,1.3,14.8,0.7,21.6c-0.7,7.4-2.7,14.8-5.4,22.2c-3.4,7.4-10.8,10.1-19.6,9.4c-10.8-1.3-16.2-8.1-18.2-16.2
			c-2-8.8-2.7-18.2-2.7-27c-0.7-14.8-12.1-19.6-25.6-16.9c-2,0.7-4,2.7-5.4,4.7c-0.7,2-0.7,4.7-0.7,6.7c0,8.1,0,8.1,8.1,8.8
			c0,0,0.7,0,1.3,0.7c0,16.9-1.3,35.1,13.5,48.5c-3.4,5.4-7.4,9.4-9.4,14.8c-10.1,20.2-8.8,41.8-7.4,63.4c0,1.3,2.7,4,4.7,4.7
			c3.4,0.7,7.4,0.7,10.8,0.7c5.4-0.7,7.4-3.4,7.4-8.1c0-2.7-0.7-6.1-0.7-8.8c-1.3-15.5,0.7-30.3,8.8-43.8
			c5.4-9.4,14.2-12.8,24.3-10.1c11.5,2.7,18.2,9.4,18.9,20.2c0,9.4,0,18.9-0.7,28.3c-0.7,12.8,7.4,21.6,20.9,22.2
			c10.8,0,13.5-2,12.1-13.5C1743,862.9,1741.6,860.2,1740.3,860.2z"/>
		<path class="st0" d="M2489.9,790.1c-9.4-4.7-18.2-10.8-26.3-16.9c-14.2-10.8-3.4-30.3,10.1-33c11.5-2,24.9,0.7,25.6,15.5
			c0,2,0,4,1.3,6.1c0.7,2,2,4,3.4,4.7c8.1,3.4,17.5-2,18.2-10.1c1.3-16.9-8.1-31.7-27-36.4c-11.5-2.7-22.9-2-33.7,0.7
			c-7.4,2-14.2,5.4-18.9,10.8c-16.2,18.9-12.1,46.5,8.8,60.7c11.5,7.4,23.6,13.5,35.7,20.9c12.1,7.4,19.6,17.5,17.5,31.7
			c-0.7,6.1-4,10.8-10.1,13.5c-7.4,3.4-15.5,3.4-23.6,1.3c-4.7-1.3-8.1-4-9.4-8.1c-1.3-4.7-2.7-9.4-3.4-14.2
			c-1.3-6.7-2.7-8.1-9.4-8.8c-2.7,0-6.1,0-8.8,0c-3.4,0-6.1,2-5.4,4.7c0.7,6.7,0.7,12.8,2,19.6c5.4,18.2,22.2,29,44.5,29
			c12.1,0,23.6-2,33-9.4c16.9-12.8,20.2-40.4,6.7-58.7C2513.5,803.6,2502.1,796.9,2489.9,790.1z"/>
		<path class="st0" d="M3252.4,814.4c-8.1-10.8-19.6-18.2-31.7-24.3c-9.4-4.7-18.2-10.8-26.3-16.9c-6.7-4.7-7.4-11.5-4.7-18.9
			c2.7-7.4,7.4-12.8,16.2-13.5c12.1-2,24.3,1.3,24.9,15.5c0,2,0,4,1.3,6.1c0.7,2,2,4,3.4,4.7c7.4,3.4,17.5-2,18.2-9.4
			c1.3-14.8-5.4-29.7-23.6-35.7c-14.8-4.7-30.3-4-44.5,2c-16.9,7.4-26.3,30.3-19.6,48.5c4,11.5,12.8,18.2,22.9,24.3
			c10.1,6.1,20.2,10.8,29.7,17.5c11.5,7.4,19.6,16.9,17.5,31c-0.7,6.1-4,11.5-10.1,13.5c-7.4,2.7-15.5,3.4-22.9,1.3
			c-4.7-1.3-8.1-4-9.4-8.1c-1.3-4.7-2.7-9.4-3.4-14.2c-1.3-6.1-2-7.4-8.8-8.1c-3.4-0.7-6.7,0-9.4,0c-4,0-5.4,2-5.4,5.4
			c0,4.7,0,9.4,0.7,14.2c4,20.9,21.6,33.7,45.8,33.7c12.1,0,23.6-2,33-9.4C3261.8,860.2,3265.2,832.6,3252.4,814.4z"/>
		<g>
			<path class="st0" d="M2855.3,798.2c0-10.1,0.7-20.2,0-30.3c-0.7-7.4-2.7-14.8-6.1-20.9c-6.1-12.8-18.2-18.9-33-20.2
				c-25.6-2.7-43.8,6.1-51.9,29c-3.4,10.8-5.4,21.6-5.4,33c0,18.9-1.3,37.1,2.7,56c2.7,12.8,8.8,24.3,21.6,30.3
				c9.4,4.7,19.6,5.4,30.3,4.7c21.6-1.3,33-9.4,36.4-29c3.4-17.5,4.7-35.1,6.7-51.9C2856.7,798.2,2856,798.2,2855.3,798.2z
				 M2833.1,838c0,4-1.3,8.1-3.4,12.1c-2.7,7.4-8.1,12.1-16.9,12.8c-8.1,0.7-15.5-2-20.9-8.1c-5.4-6.1-7.4-13.5-8.1-20.9
				c-2.7-22.9-1.3-45.8,0.7-68.8c1.3-11.5,8.1-18.2,18.2-18.9c16.9-1.3,27.6,6.1,29.7,22.2c1.3,11.5,1.3,23.6,2,29.7
				C2833.7,814.4,2833.7,826.5,2833.1,838z"/>
		</g>
		<path class="st0" d="M3057.6,859.5c-2-0.7-3.4-2.7-4-4.7c-0.7-2-1.3-4.7-0.7-7.4c0.7-18.9,1.3-37.1,2-56c0-14.2,0.7-28.3-0.7-42.5
			c-0.7-9.4-4.7-18.2-13.5-23.6c-14.2-10.1-37.8-8.8-51.9,2c-2,1.3-4,3.4-6.1,4.7c-1.3-1.3-2.7-3.4-4-4c-4.7-4-10.8-4-16.9-2.7
			c-2,0.7-2.7,5.4-4,8.1c-1.3,3.4,0,6.1,3.4,8.1c2,1.3,3.4,3.4,3.4,5.4c0.7,6.7,1.3,12.8,1.3,19.6c0,33-0.7,66.7-0.7,99.8
			c0,6.1,1.3,7.4,7.4,8.1c2,0,4,0.7,6.1,0.7c6.1,0,8.8-2,8.8-7.4c-0.7-9.4-1.3-18.2-1.3-27.6c0-25.6,0-51.2,0-76.9
			c0-11.5,6.7-19.6,17.5-23.6c12.8-5.4,24.3,0,27.6,12.8c1.3,6.1,2.7,12.8,2.7,19.6c0,17.5,0,35.7,0,53.3c0,12.1,0.7,24.3,1.3,36.4
			c0.7,10.1,6.1,14.8,17.5,14.8c10.1,0,12.1-2.7,10.8-11.5C3062.3,862.2,3060.9,860.9,3057.6,859.5z"/>
		<path class="st0" d="M1939.2,823.1c-4.7-2.7-10.8-2-15.5-0.7c-4,1.3-4,5.4-4,8.8c-0.7,7.4-1.3,14.2-3.4,21.6
			c-1.3,4.7-4.7,8.8-10.1,9.4c-9.4,1.3-21.6-0.7-26.3-10.8c-2.7-5.4-4.7-12.1-4.7-17.5c0-24.3,0.7-49.2,1.3-73.5
			c0.7-14.8,8.8-20.2,24.9-19.6c13.5,0.7,18.2,5.4,17.5,17.5c0,0.7-0.7,1.3,0,2c0.7,1.3,0.7,4,2,4.7c4,2,8.1,3.4,12.1,4
			c3.4,0.7,5.4-1.3,5.4-4.7c0-4.7,0-8.8,0-13.5c-0.7-7.4-3.4-13.5-8.8-18.9c-11.5-10.8-33.7-15.5-49.2-9.4
			c-14.8,5.4-20.9,16.9-24.3,30.3c-4.7,14.8-4.7,29.7-3.4,45.2c0,8.1-0.7,16.9,0,24.9c0.7,8.8,2,16.9,3.4,24.9
			c1.3,10.1,6.1,18.9,16.9,24.3c9.4,4.7,20.2,6.7,30.3,7.4c18.9,0.7,30.3-6.1,33.7-20.9c2.7-10.1,2.7-20.9,4-31
			C1941.2,825.8,1940.5,823.8,1939.2,823.1z"/>
		<path class="st0" d="M2654.4,751c0-4.7,0-8.8-0.7-13.5c-1.3-11.5-8.1-17.5-18.9-18.2c-1.3,0-3.4,0-4.7,0.7
			c-4.7,3.4-4,14.8,0.7,18.2c1.3,0.7,2.7,2.7,2.7,3.4c0,5.4,0,10.8,0,16.2c0,23.6,0,47.2,0,70.8h0.7c0,14.2,0,29,0,43.1
			c0,1.3,0.7,4,1.3,4c4.7,0.7,10.1,1.3,14.8,1.3c2,0,4-1.3,4-4c0-19.6,0-39.8,0-59.3C2655.1,794.2,2655.1,772.6,2654.4,751z"/>
	</g>
	<path class="st0" d="M1656,482.7c200.2-57.3,520.4-14.8,618.9,79.6c0,0-181.3-102.5-401.8-68.8c-88.3,13.5-215.7,45.2-313.5,102.5
		C1384.3,698.4,1333.1,575.7,1656,482.7z"/>
	<path class="st0" d="M2785.2,250.8c-13.5-4.7-21.6-1.3-30.3,11.5c-10.8,16.2-20.2,35.1-35.1,46.5c-48.5,38.4-115.3,35.1-163.1-4
		c-37.1-31-59.3-71.5-72.1-116.6c-30.3-103.1-58-207.6-86.3-311.5c-13.5-50.6-27-101.1-40.4-152.4c-3.4-11.5-10.1-18.2-22.9-17.5
		c-9.4,0.7-18.9,0.7-28.3,0c-11.5-1.3-15.5,4-18.9,14.2c-14.2,48.5-29,97.1-42.5,146.3c-24.3,90.3-76.2,301.3-99.8,391.7
		c-8.1,29.7-2,37.1,29.7,38.4c1.3,0,2.7,0,4,0c11.5,0.7,20.2-2.7,21.6-15.5c1.3-8.1,4-15.5,6.1-23.6c6.1-25.6,39.1-171.9,45.8-197.5
		c0.7-4,5.4-9.4,8.8-9.4c41.8-0.7,83.6-0.7,125.4-0.7c2,8.1,4,16.2,6.1,23.6c19.6,72.8,39.8,145.6,78.2,211
		c28.3,47.2,64,85.6,119.3,101.8c16.2,4.7,33,6.7,49.2,9.4c6.1,0,12.8,0,18.9,0c4-0.7,8.8-2,12.8-2.7
		c59.3-6.7,101.8-38.4,127.4-91.7c3.4-6.7,4.7-14.2,6.1-21.6C2808.1,267.6,2799.4,256.2,2785.2,250.8z M2355.8,3.4
		c-26.3,0.7-52.6,1.3-78.9,1.3c-2.7,0-8.1-6.7-7.4-8.8c16.2-62,35.1-101.1,51.9-162.5c0.7-2.7,3.4-5.4,7.4-10.8
		c8.8,32.4,14.8,37.8,20.9,67.4c7.4,31.7,12.1,64,18.9,95.7C2371.3-4,2368.6,3.4,2355.8,3.4z"/>
	<path class="st0" d="M2863.4-118c-13.5-50.6-27-101.1-40.4-152.4c-3.4-11.5-10.1-18.2-22.9-17.5c-9.4,0.7-18.9,0.7-28.3,0
		c-11.5-1.3-15.5,4-18.9,14.2c-14.2,48.5-29,97.1-42.5,146.3c-24.3,90.3-66.1,256.9-89.7,347.2c-8.1,29.7-2,37.1,29.7,38.4
		c1.3,0,2.7,0,4,0c11.5,0.7,20.2-2.7,21.6-15.5c1.3-8.1,4-15.5,6.1-23.6c6.1-25.6,29-127.4,35.1-153c0.7-4,5.4-9.4,8.8-9.4
		c41.8-0.7,83.6-0.7,125.4-0.7c2,8.1,4,16.2,6.1,23.6c19.6,72.8,24.3,88.3,39.1,144.9c16.2,4,51.2,2.7,51.2-20.9
		C2948.4,180.7,2914.6,105.8,2863.4-118z M2826.3-4c-25.6,0.7-51.9,1.3-77.5,1.3c-6.1,0-10.1-2-8.1-10.1
		c16.2-60.7,25.6-107.9,41.8-168.5c0.7-3.4,3.4-6.7,5.4-10.8c1.3,0,3.4,0,4.7-0.7c9.4,37.8,18.9,74.8,27.6,112.6
		C2825.7-56.6,2839.8-4,2826.3-4z"/>
	<path class="st0" d="M3224.1,163.8c-33.7,0-33,0-47.2-29c-27-54.6-55.3-108.5-82.9-163.1c-17.5-35.1-34.4-70.8-51.9-106.5
		c-2.7-6.1-6.7-10.8-12.8-16.2c-1.3,20.2-2.7,40.4-3.4,60.7c-1.3,68.1-2,136.9-2.7,204.9c-0.7,36.4,3.4,38.4-47.9,40.4
		c-0.7-7.4-2-15.5-2-22.9c-1.3-89-2-178-3.4-267c-0.7-28.3-0.7-56-3.4-84.3c-0.7-7.4-6.7-16.2-12.8-20.2
		c-10.1-6.1-76.2-14.8-83.6-22.2c-47.2-45.8,72.8-29,100.4-31.7c10.1-1.3,20.2-0.7,30.3-2.7c15.5-2.7,25.6,4,32.4,16.9
		c22.2,40.4,45.8,80.2,66.1,121.3c24.3,49.2,87.6,215.7,95.1,209.7c4.7-3.4,8.1-41.8,10.1-73.5"/>
	<path class="st0" d="M2521.6,127.4c0-106.5,0-213,0-319.5c0-10.1-1.3-20.2-2-31c-0.7-8.8-4.7-12.1-13.5-12.1c-25.6,0-51.9-2-77.5-2
		c-11.5,0-16.9-5.4-18.2-14.8c-1.3-10.1-1.3-20.9,1.3-30.3c1.3-4.7,8.1-11.5,12.8-12.1c14.2-2.7,29-4,43.8-4.7
		c58-1.3,115.3-2,173.3-3.4c6.7,0,13.5-0.7,20.2,0c26.3,2.7,37.8,17.5,31.7,43.1c-1.3,6.1-10.8,14.8-16.9,15.5
		c-24.3,3.4-48.5,4.7-73.5,5.4c-20.2,0.7-21.6,1.3-21.6,22.2c0,88.3,0,176,0.7,264.3c0,27,4.7,53.3,4.7,80.2
		c0.7,27.6-5.4,33-32.4,34.4C2519.6,165.2,2519.6,165.2,2521.6,127.4z"/>
	<path class="st1" d="M3551.7-144.9c-10.1,13.5-23.6,14.2-37.1,5.4c-13.5-8.8-19.6-22.2-9.4-37.1c9.4-14.8,23.6-14.8,37.1-6.1
		C3555.8-173.9,3560.5-161.1,3551.7-144.9z"/>
	<path class="st1" d="M1486.8,294.6c20.9,21.6,21.6,52.6,1.3,72.8c-20.9,20.2-51.9,18.9-72.8-2.7c-20.9-21.6-21.6-52.6-1.3-72.8
		C1434.2,272.4,1465.9,273,1486.8,294.6z"/>
	<path class="st2" d="M1353.3,473.3c18.2-16.2,41.8-16.2,58,1.3c17.5,18.2,16.2,43.1-3.4,61.3c-18.9,17.5-45.8,16.9-62-0.7
		C1330.4,516.4,1333.1,490.8,1353.3,473.3z"/>
	<path class="st2" d="M3366.3,105.2c18.9-16.2,42.5-16.2,58.7,1.3c17.5,18.2,16.2,43.8-3.4,62c-18.9,17.5-46.5,17.5-62.7-0.7
		C3342.7,149,3345.4,122.7,3366.3,105.2z"/>
	<path class="st3" d="M1504.3,423.4c12.1-13.5,33.7-14.8,46.5-2.7c11.5,10.8,12.8,31.7,2.7,43.8c-12.1,14.2-31.7,14.2-45.8,1.3
		C1493.5,451.7,1492.2,436.9,1504.3,423.4z"/>
	<path class="st3" d="M3315.8,0c9.4-10.1,25.6-11.5,35.7-2c8.8,8.1,9.4,24.3,2,33c-8.8,10.8-23.6,10.8-35.1,0.7
		C3307,21.6,3306.3,10.1,3315.8,0z"/>
	<path class="st0" d="M1342.5-203.6c-55.3,11.5-154.4,29-209.7,39.8c-14.8,2.7-27.6,22.2-12.8,24.9c31,6.1,125.4,5.4,157.1,6.1
		c41.1,0.7,49.9,3.4,54.6,8.8c2,2-4,17.5-5.4,32.4c-8.1-0.7-30.3-0.7-56-0.7c-29,0-103.1-5.4-131.5,1.3c-16.9,4-12.8,26.3,4,25.6
		c5.4,0,10.8,0,15.5-0.7c36.4,1.3,114.6,14.8,149,26.3c6.7,4,14.2,6.7,22.9,8.8h0.7l0,0c1.3,0,2.7,0.7,4,0.7
		c17.5,2.7,18.9-24.3,5.4-31.7c2-3.4,3.4-6.7,4-10.8C1345.2-96.4,1361.4-207.6,1342.5-203.6z"/>
	<g>
		<path class="st0" d="M3356.9,446.3c-11.5-76.9-118.7-111.9-165.8-55.3c-18.9,22.9-27.6,73.5-6.7,100.4
			c8.1,10.8,20.9,18.9,34.4,24.3C3274,564.9,3368.4,521.1,3356.9,446.3z M3319.8,469.2c-17.5,44.5-39.1,51.2-74.2,39.1
			c-2-0.7-17.5-10.1-19.6-10.8c-28.3-33.7-21.6-99.8,24.9-103.1c29-3.4,49.2-0.7,67.4,27C3327.2,434.2,3325.2,456.4,3319.8,469.2z"
			/>
		<path class="st0" d="M3281.4,417.3c-16.2-4.7-31.7-2-45.2,7.4c-9.4,6.7-12.8,25.6-5.4,37.1c9.4,15.5,26.3,25.6,41.1,18.9
			c4-2,26.3-18.9,27.6-29.7C3300.9,436.9,3293.5,421.4,3281.4,417.3z M3282.1,450.3c-0.7,6.1-12.1,14.8-14.8,16.2
			c-8.1,4-16.9-1.3-22.2-10.1c-4-6.1-2-16.9,2.7-20.2c7.4-5.4,15.5-6.7,24.3-4C3279.4,434.2,3283.4,442.9,3282.1,450.3z"/>
	</g>
	<path class="st0" d="M3221.4,163.8c-37.1-10.1-18.9-180.7-14.2-216.4c2.7-20.2,9.4-53.9-22.9-67.4c-20.2-8.8-55.3-29-58-50.6
		s13.5-20.2,28.3-11.5c24.3,13.5,33.7,45.8,61.3,27.6c13.5-8.8,7.4-36.4,2.7-50.6c-7.4-20.9-23.6-31-41.1-43.1
		c-41.8-29.7-86.3-46.5-131.5-68.8c-40.4-20.2-78.2-45.2-105.2-82.2c-15.5-20.9-27-44.5-35.7-68.1c-9.4-24.9-8.8-53.3,8.8-56.6
		c17.5-3.4,25.6,18.9,33,37.8c5.4,13.5,8.1,27.6,14.8,41.1c14.2,26.3,39.8,52.6,65.4,68.1c24.9,14.8,57.3,16.2,56.6-18.2
		c-0.7-16.9-11.5-37.8-18.2-53.9c-5.4-14.2-19.6-35.7-18.2-49.9c1.3-12.1,8.1-20.9,21.6-14.8c11.5,5.4,20.2,29,25.6,39.8
		c17.5,31.7,14.8,58,22.9,91c14.8,61.3,79.6,85.6,128.8,115.3c6.7-46.5,12.8-90.3,4-138.9c-4-22.2-10.1-43.8-17.5-65.4
		c-8.1-25.6-12.8-52.6-1.3-60c10.8-7.4,37.8,19.6,45.2,47.9c4,14.8,16.9,49.2,33,56.6c20.2,8.8,45.2-18.9,53.9-33
		c6.7-10.1,9.4-23.6,17.5-33.7c7.4-8.8,12.1-24.3,26.3-20.2c14.2,4.7,6.7,76.9-31.7,101.8c-28.3,18.9-51.9,30.3-64,64.7
		c-12.8,35.7-14.2,77.5-21.6,115.3c-9.4,45.2-20.9,84.3-13.5,131.5c63.4-22.9,116.6-54.6,141.6-119.3c11.5-29.7,15.5-62,16.2-94.4
		c0-20.9,2.7-58.7,32.4-32.4c28.3,24.3,18.9,64,14.8,93c-6.1,40.4-18.2,79.6-43.8,109.9c-15.5,18.9-51.2,47.2-4.7,53.9
		c43.8,6.7,122-10.8,136.9,6.7c14.8,17.5-9.4,17.5-26.3,22.2s-30.3,7.4-45.2,10.8c-31.7,6.7-59.3,0.7-92.4-5.4
		c-24.9-4.7-91.7-4.7-118-3.4c-62,2-13.5,219.8-51.9,223.1H3221.4z"/>
	<path class="st0" d="M3276-160.4c15.5-39.1,16.9-11.5,62-45.8c45.2-35.1,3.4-59.3-3.4-41.8c-6.7,18.2-31.7,25.6-39.1,27
		c-8.1,1.3-1.3-35.7-1.3-35.7s4-9.4,5.4-17.5c2.7-23.6,12.1-21.6,38.4-33.7c49.2-22.9,37.8-45.8-8.8-17.5
		c-31.7,18.9-20.9-2-19.6-18.9c1.3-16.9-40.4,50.6-40.4,50.6s-8.1,64-8.1,67.4s-5.4,65.4-5.4,65.4h20.2V-160.4z"/>
	<path class="st0" d="M3261.2-393.7c0,0-4,40.4-11.5,37.8c-7.4-2.7-29.7-15.5-33-34.4c-3.4-18.9-48.5-3.4-12.1,39.8
		c36.4,43.8,43.8,16.2,50.6,58"/>
	<path class="st0" d="M3100.7-454.4c0,0,8.1,31,13.5,27.6c5.4-3.4,20.9-15.5,20.9-31c0-15.5,37.1-8.8,14.2,29.7
		c-22.9,38.4-31.7,18.2-32.4,51.2"/>
	<path class="st1" d="M2183.9-224.5c-10.1,13.5-23.6,14.2-37.1,5.4c-13.5-8.8-19.6-22.2-9.4-37.1c9.4-14.8,23.6-14.8,37.1-6.1
		C2187.9-253.5,2192.6-240.7,2183.9-224.5z"/>
	<path class="st4" d="M1658-235.3c-10.1,13.5-23.6,14.2-37.1,5.4c-13.5-8.8-19.6-22.2-9.4-37.1c9.4-14.8,23.6-14.8,37.1-6.1
		C1662.1-264.3,1666.8-252.1,1658-235.3z"/>
	<path class="st1" d="M1651.3,22.9c-10.1,13.5-23.6,14.2-37.1,5.4c-13.5-8.8-19.6-22.2-9.4-37.1c9.4-14.8,23.6-14.8,37.1-6.1
		C1655.3-6.1,1660.1,6.7,1651.3,22.9z"/>
	<path class="st4" d="M2160.9,29c-10.1,13.5-23.6,14.2-37.1,5.4c-13.5-8.8-19.6-22.2-9.4-37.1c9.4-14.8,23.6-14.8,37.1-6.1
		C2165.7,0,2169.7,12.1,2160.9,29z"/>
	<path class="st0" d="M1867-391.7c27.6-1.3,29.7-15.5,58.7,3.4c17.5,11.5,41.8,4,38.4-21.6c-6.1-42.5-14.8-98.4-48.5-113.9
		c-45.8-20.9-70.1,33-82.9,77.5C1820.5-403.1,1848.1-390.3,1867-391.7z"/>
	<path class="st0" d="M1850.2,198.2c18.2,10.8,35.1,8.8,52.6-1.3c10.8-6.1,30.3-7.4,27.6,7.4c-4.7,24.9-17.5,64-37.8,72.1
		c-27.6,10.8-38.4-22.2-46.5-48.5C1844.8,221.8,1840.7,192.8,1850.2,198.2z"/>
	<g>
		<path class="st0" d="M1923-153c-21.6-7.4-43.1-3.4-62.7,10.8c-13.5,10.1-19.6,39.1-10.8,57.3c11.5,24.3,33.7,39.8,54.6,28.3
			c6.1-3.4,37.1-29,39.8-45.2C1947.2-123.4,1939.2-147.6,1923-153z M1919.6-103.1c-1.3,8.1-17.5,21.6-20.2,22.9
			c-10.8,5.4-21.6-2-27.6-14.2c-4.7-9.4-1.3-23.6,5.4-29c10.1-7.4,20.9-9.4,31.7-5.4C1917.6-126.1,1921.6-113.9,1919.6-103.1z"/>
	</g>
	<path class="st0" d="M2019.4-109.2c-9.4-117.3-152.4-171.2-222.5-84.3c-28.3,34.4-44.5,112.6-18.2,153.7
		c10.8,16.2,26.3,28.3,45.2,37.1C1894.7,71.5,2028.1,4.7,2019.4-109.2z M1966.8-74.8c-28.3,68.1-58,78.2-105.2,60
		c-2.7-0.7-22.9-15.5-25.6-16.9c-35.7-51.9-20.9-152.4,43.1-157.8c39.8-4.7,67.4-0.7,89.7,41.8
		C1979.6-127.4,1974.2-93.7,1966.8-74.8z"/>
	<path class="st0" d="M2083.4,240.7c-6.7,0-14.2-2-19.6-6.7c-17.5-14.2-35.7-26.3-55.3-37.1c-0.7-0.7-2-1.3-2.7-2
		c-10.1-4.7-18.2-14.2-21.6-25.6c-3.4-12.1,0-24.3,8.1-33.7c20.2-22.9,43.8-43.8,70.1-62c10.1-6.7,22.2-8.1,33-3.4
		c12.8,5.4,21.6,18.2,22.9,32.4l0,0l2,22.9c1.3,14.8,2.7,29.7,4,44.5c2,18.2,2,39.1-14.8,58C2104.3,236,2094.2,240.7,2083.4,240.7z
		 M2082.1,103.2c-23.6,16.2-44.5,35.1-62.7,55.3c-0.7,1.3-0.7,1.3-0.7,2c0.7,1.3,1.3,2.7,2,2.7l2,0.7l3.4,2
		c20.2,10.8,39.8,24.3,58,38.4l0,0c6.7-7.4,6.7-16.2,5.4-31.7c-1.3-14.8-2.7-29.7-4-44.5l-2-22.9
		C2083.4,105.8,2082.7,104.5,2082.1,103.2z"/>
	<path class="st0" d="M1678.9,251.5c-10.8,0-21.6-4.7-27.6-12.1c-16.9-18.9-16.9-40.4-14.8-58.7c1.3-15.5,2.7-31,4.7-46.5l2-22.2
		c1.3-14.2,10.8-27.6,23.6-33c11.5-4.7,23.6-3.4,33.7,3.4l0,0c26.3,18.2,50.6,39.8,71.5,62.7c8.8,9.4,11.5,22.2,8.1,34.4
		c-2.7,11.5-11.5,20.9-21.6,25.6c-0.7,0.7-2,1.3-2.7,2c-19.6,10.8-38.4,23.6-56,37.8C1693.1,249.4,1686.3,251.5,1678.9,251.5z
		 M1678.3,216.4L1678.3,216.4L1678.3,216.4L1678.3,216.4z M1680.3,111.9c-0.7,0.7-1.3,2-1.3,3.4l-2,22.2c-1.3,15.5-3.4,31-4.7,46.5
		c-1.3,15.5-0.7,24.3,6.1,32.4c18.9-14.8,38.4-28.3,59.3-39.8l2.7-2l2.7-1.3c0.7,0,2-1.3,2-2.7c0-0.7,0-1.3-0.7-2
		C1725.4,147.6,1703.9,128.8,1680.3,111.9z"/>
	<path class="st0" d="M2210.2-297.3c-12.8,0-27.6-8.8-52.6-24.9c-15.5-9.4-32.4-20.2-43.1-23.6c-13.5-4-15.5-2.7-24.9,9.4
		c-2.7,3.4-6.1,7.4-10.1,11.5l-6.1,6.1l-8.8-1.3c-2,0-45.2-8.1-63.4-46.5l-2.7-6.1l2-6.1c0-0.7,7.4-22.9,20.2-45.2
		c24.3-41.8,48.5-47.2,64.7-44.5c42.5,7.4,126.7,103.8,141.6,135.5c2,4,6.7,14.8,1.3,24.9c-2.7,4.7-7.4,8.8-13.5,10.1
		C2213.5-298,2212.2-297.3,2210.2-297.3z M2103.6-380.2c6.1,0,12.1,0.7,19.6,3.4c14.8,4.7,33,16.2,51.2,27c1.3,0.7,3.4,2,5.4,3.4
		c-28.3-35.1-78.9-86.3-99.8-90.3c-14.8-2.7-35.1,32.4-45.8,60.7c8.1,11.5,20.2,17.5,28.3,20.9c0.7-0.7,1.3-1.3,1.3-2
		C2072-367.4,2082.7-380.2,2103.6-380.2z"/>
	<path class="st0" d="M1712-310.8l-6.1-6.7c-4-4-7.4-8.1-10.1-12.1c-10.1-12.1-11.5-14.2-26.3-10.1c-7.4,2-14.8,5.4-22.2,8.1
		c-29.7,10.8-60,21.6-72.8-2c-6.1-10.8-0.7-22.9,1.3-27c14.2-30.3,82.2-101.1,124-108.5l0,0c16.9-2.7,42.5,2.7,68.1,46.5
		c12.8,22.9,20.9,45.8,20.9,47.2l2,6.7l-2.7,6.1c-18.9,40.4-64.7,48.5-66.7,49.2L1712-310.8z M1680.3-374.8
		c22.2,0,33,13.5,41.8,24.3c0.7,0.7,1.3,1.3,2,2c8.8-3.4,21.6-9.4,29.7-21.6c-11.5-29.7-33-66.7-48.5-64l0,0
		c-25.6,4.7-74.8,53.3-93,78.9c7.4-2,16.2-5.4,22.9-8.1c8.1-2.7,16.2-6.1,24.3-8.1C1667.5-374.1,1674.2-374.8,1680.3-374.8z"/>
	<path class="st0" d="M2040.3-280.4c-27.6-24.9-68.8-63.4-109.9-78.2c-19.6-10.1-39.8-16.2-58.7-13.5c-23.6,3.4-45.2,29-64.7,42.5
		c-26.3,18.9-53.3,36.4-77.5,58c-35.7,32.4-58,74.8-62.7,122.7c-6.1,25.6-7.4,53.3-2.7,81.6c14.2,83.6,72.1,147,128.8,199.5
		c2.7,2.7,5.4,3.4,8.1,4c25.6,24.9,57.3,44.5,93,39.1c31.7-5.4,120-107.9,136.2-124c47.2-45.8,99.1-100.4,102.5-174.6
		C2136.7-194.8,2085.4-239.3,2040.3-280.4z M2089.5-90.3c-16.9,61.3-72.8,113.3-111.2,151c-27.6,26.3-58.7,54.6-97.1,55.3
		c-6.1,0-12.1-0.7-18.2-2.7c-25.6-15.5-46.5-45.2-66.7-66.7c-47.9-51.2-128.1-131.5-79.6-213c20.2-33.7,53.3-58.7,79.6-84.3
		c23.6-22.9,47.2-45.2,70.8-68.1c4-0.7,8.8,0,14.2,0.7c17.5,2.7,35.7,15.5,51.2,24.9c30.3,19.6,57.3,44.5,83.6,70.8
		c26.3,25.6,59.3,53.9,69.4,93.7C2089.5-115.3,2090.2-102.5,2089.5-90.3z"/>
	<path class="st0" d="M3527.5,500.2c-24.9-79.6-93-134.8-165.2-182.7c-82.2-53.9-176.6-64-271-53.9c-23.6,2.7-21.6,37.8,2,35.1
		c16.9-2,33.7-2.7,49.9-3.4c-24.9,48.5-53.9,97.8-66.7,149.7c-13.5,53.9-26.3,199.5-8.8,202.2c176,27,357.3,8.8,459.8-130.1
		C3531.5,511,3530.8,504.9,3527.5,500.2z M3096.7,616.2c-3.4-53.3,4-111.2,16.9-161.8c13.5-55.3,47.2-107.2,71.5-158.4
		c53.3,3.4,105.2,17.5,153,47.9c64.7,41.1,127.4,91.7,151.7,160.4C3401.4,618.9,3245,635.7,3096.7,616.2z"/>
	<g>
		<path class="st0" d="M1468.6-187.4c-21.6-7.4-42.5-3.4-62,10.8c-13.5,10.1-19.6,38.4-10.8,56.6c11.5,23.6,33,39.1,53.9,28.3
			c6.1-3.4,37.1-28.3,39.8-44.5C1492.9-158.4,1484.8-182,1468.6-187.4z M1467.2-140.2c-1.3,8.1-16.9,20.9-20.2,22.9
			c-10.1,5.4-21.6-2-27-14.2c-4.7-8.8-1.3-23.6,5.4-28.3c10.1-7.4,20.2-9.4,31.7-5.4C1465.2-163.1,1469.3-151,1467.2-140.2z"/>
		<path class="st0" d="M2800.7,407.2c-93,73.5-244,110.6-446.3,16.2C2152.2,329,2111.7,345.8,1892,360
			c-180.7,11.5-285.8-73.5-330.3-207c-14.2-43.1-27.6-98.4-39.8-131.5c-1.3-4-3.4-7.4-5.4-10.1c35.1-12.1,51.9-37.8,60.7-68.8
			c13.5-51.2,12.8-103.1-0.7-154.4c-10.8-40.4-41.1-65.4-89.7-70.8c-36.4-4.7-73.5-10.1-110.6-8.8c-62,2-56,14.8-56,67.4
			c0,16.9,1.3,33.7,1.3,50.6c0,72.8-4.7,161.8-5.4,234.6c-1.3,62-2.7,123.4-3.4,185.4c0,10.8,2,21.6,13.5,27.6
			c27.6,13.5,48.5,1.3,48.5-29c0-2,0-4.7,0-6.7c0.7-63.4,1.3-126.1,2-189.4c0-12.8,3.4-21.6,17.5-22.2c19.6-0.7,38.4-1.3,58-1.3
			c2.7,0,7.4,5.4,8.1,8.8c7.4,22.2,16.2,44.5,21.6,66.7c21.6,82.9,72.8,180,101.8,212.4c29,32.4,103.1,99.8,271,93
			c254.8-10.1,288.5-37.8,502.2,75.5c202.9,107.2,348.5,51.2,446.3-20.9c99.1-72.8,173.3-159.8,329-165.2v-35.1
			C2976.7,260.2,2897.8,331,2800.7,407.2z M1407.9-51.2c-2.7-0.7-22.9-15.5-24.9-16.9c-35.7-51.2-20.2-150.3,42.5-155.7
			c39.1-4.7,66.1-0.7,88.3,41.1c10.8,20.2,6.1,53.9-2,72.8C1484.1-43.1,1455.1-33,1407.9-51.2z"/>
	</g>
</g>
</svg>
