<?xml version="1.0" encoding="utf-8"?>
<!-- Generator: Adobe Illustrator 19.0.0, SVG Export Plug-In . SVG Version: 6.00 Build 0)  -->
<svg version="1.1" id="Layer_1" xmlns="http://www.w3.org/2000/svg" xmlns:xlink="http://www.w3.org/1999/xlink" x="0px" y="0px"
	 viewBox="0 0 128 128" style="enable-background:new 0 0 128 128;" xml:space="preserve">
<style type="text/css">
	.st0{fill:#F15A29;}
	.st1{fill:#26A9E1;}
	.st2{fill:#FFFFFF;}
</style>
<g id="XMLID_22_">
	<path id="XMLID_21_" class="st0" d="M99.6,51.4c-1.3,1.7-3,1.8-4.7,0.7c-1.7-1.1-2.4-2.8-1.2-4.7c1.2-1.9,3-1.8,4.7-0.8
		C100.2,47.8,100.8,49.4,99.6,51.4z"/>
	<path id="XMLID_20_" class="st1" d="M33.3,50c-1.3,1.7-3,1.8-4.7,0.7c-1.7-1.1-2.4-2.8-1.2-4.7c1.2-1.9,3-1.8,4.7-0.8
		C33.9,46.3,34.5,48,33.3,50z"/>
	<path id="XMLID_19_" class="st0" d="M32.5,82.6c-1.3,1.7-3,1.8-4.7,0.7c-1.7-1.1-2.4-2.8-1.2-4.7c1.2-1.9,3-1.8,4.7-0.8
		C33,79,33.6,80.6,32.5,82.6z"/>
	<path id="XMLID_18_" class="st1" d="M96.8,83.3c-1.3,1.7-3,1.8-4.7,0.7c-1.7-1.1-2.4-2.8-1.2-4.7c1.2-1.9,3-1.8,4.7-0.8
		C97.3,79.7,97.9,81.3,96.8,83.3z"/>
	<path id="XMLID_17_" class="st2" d="M59.6,30.4c3.5-0.1,3.8-2,7.4,0.5c2.2,1.5,5.3,0.5,4.8-2.8c-0.8-5.3-1.9-12.4-6.1-14.3
		c-5.8-2.6-8.9,4.1-10.4,9.8C53.8,28.9,57.3,30.4,59.6,30.4z"/>
	<path id="XMLID_16_" class="st2" d="M57.6,104.8c2.3,1.4,4.4,1.1,6.7-0.2c1.3-0.8,3.8-1,3.4,0.9c-0.6,3.1-2.2,8.1-4.7,9.1
		c-3.5,1.4-4.8-2.8-5.8-6.1C56.8,107.7,56.4,104,57.6,104.8z"/>
	<g id="XMLID_42_">
		<path id="XMLID_43_" class="st2" d="M66.7,60.4c-2.7-0.9-5.4-0.4-7.9,1.4c-1.7,1.3-2.5,4.9-1.4,7.2c1.5,3,4.2,5,6.9,3.6
			c0.8-0.4,4.7-3.7,5.1-5.7C69.8,64.2,68.8,61.1,66.7,60.4z M66.3,66.7c-0.2,1-2.2,2.7-2.6,2.9c-1.3,0.7-2.7-0.3-3.5-1.8
			c-0.6-1.2-0.2-3,0.7-3.6c1.3-0.9,2.6-1.2,4-0.7C66,63.8,66.6,65.3,66.3,66.7z"/>
	</g>
	<path id="XMLID_39_" class="st2" d="M78.9,66c-1.2-14.8-19.2-21.6-28.1-10.7c-3.6,4.4-5.6,14.2-2.3,19.3c1.3,2.1,3.4,3.6,5.7,4.7
		C63.2,88.8,80,80.4,78.9,66z M72.2,70.3c-3.6,8.6-7.3,9.9-13.3,7.5c-0.3-0.1-2.9-2-3.2-2.1c-4.5-6.5-2.6-19.2,5.4-19.9
		c5-0.6,8.5-0.1,11.3,5.2C73.9,63.6,73.2,67.9,72.2,70.3z"/>
	<path id="XMLID_36_" class="st2" d="M87,110.1c-0.9,0-1.8-0.3-2.5-0.8c-2.2-1.8-4.5-3.3-6.9-4.6c-0.1-0.1-0.2-0.1-0.4-0.2
		c-1.3-0.6-2.3-1.8-2.7-3.2c-0.4-1.5,0-3,1-4.2c2.6-2.9,5.5-5.5,8.8-7.8c1.3-0.9,2.8-1,4.2-0.4c1.6,0.7,2.7,2.3,2.9,4.1v0l0.3,2.9
		c0.2,1.9,0.4,3.7,0.5,5.6c0.2,2.3,0.3,4.9-1.8,7.3C89.7,109.5,88.3,110.1,87,110.1z M86.8,92.8c-2.9,2.1-5.6,4.4-7.9,7
		c-0.1,0.1-0.1,0.2-0.1,0.3c0,0.2,0.2,0.3,0.3,0.4l0.3,0.1l0.4,0.3c2.5,1.4,5,3,7.3,4.9c0,0,0,0,0,0c0.8-0.9,0.9-2,0.7-4
		c-0.2-1.9-0.4-3.7-0.5-5.6L87,93.2C87,93,86.9,92.9,86.8,92.8z"/>
	<path id="XMLID_32_" class="st2" d="M36,111.5c-1.4,0-2.7-0.6-3.5-1.5c-2.1-2.4-2.1-5.1-1.9-7.4c0.2-2,0.4-3.9,0.6-5.9l0.3-2.8
		c0.2-1.8,1.3-3.5,3-4.2c1.4-0.6,3-0.5,4.2,0.4l0,0c3.4,2.3,6.4,5,9,7.9c1.1,1.2,1.5,2.8,1.1,4.3c-0.4,1.4-1.4,2.7-2.7,3.3
		c-0.1,0.1-0.2,0.2-0.4,0.2c-2.5,1.4-4.8,3-7.1,4.7C37.8,111.2,36.9,111.5,36,111.5z M35.9,107.1C35.9,107.1,35.9,107.1,35.9,107.1
		C35.9,107.1,35.9,107.1,35.9,107.1C35.9,107.1,35.9,107.1,35.9,107.1z M36.1,93.9C36,94,36,94.1,35.9,94.3l-0.3,2.8
		c-0.2,1.9-0.4,3.9-0.6,5.8c-0.2,2-0.1,3.1,0.7,4.1c2.4-1.9,4.9-3.5,7.5-5l0.3-0.3l0.3-0.1c0.1,0,0.2-0.2,0.3-0.4
		c0-0.1,0-0.2-0.1-0.3C41.8,98.4,39.1,96,36.1,93.9z"/>
	<path id="XMLID_29_" class="st2" d="M102.9,42.2c-1.6,0-3.5-1.1-6.6-3.1c-1.9-1.2-4.1-2.6-5.4-3c-1.7-0.5-1.9-0.3-3.1,1.2
		c-0.4,0.4-0.8,0.9-1.2,1.4l-0.8,0.8l-1.1-0.2c-0.2,0-5.7-1-8-5.9l-0.3-0.7l0.3-0.8c0-0.1,1-2.9,2.5-5.7c3.1-5.3,6.1-6,8.2-5.6
		c5.4,1,16,13.1,17.9,17.1c0.2,0.5,0.9,1.9,0.2,3.1c-0.4,0.6-0.9,1.1-1.7,1.3C103.4,42.2,103.2,42.2,102.9,42.2z M89.6,31.8
		c0.7,0,1.6,0.1,2.5,0.4c1.9,0.6,4.2,2,6.4,3.4c0.2,0.1,0.4,0.3,0.6,0.4c-3.6-4.5-10-10.9-12.6-11.4c-1.9-0.3-4.5,4.1-5.8,7.7
		c1,1.5,2.5,2.2,3.6,2.6c0.1-0.1,0.1-0.2,0.2-0.3C85.6,33.4,86.9,31.8,89.6,31.8z"/>
	<path id="XMLID_26_" class="st2" d="M40.2,40.5l-0.8-0.8c-0.5-0.5-0.9-1-1.3-1.5c-1.3-1.6-1.5-1.8-3.3-1.2c-0.9,0.3-1.9,0.6-2.8,1
		c-3.7,1.3-7.5,2.7-9.2-0.3c-0.8-1.4-0.1-2.9,0.2-3.4c1.8-3.8,10.3-12.7,15.6-13.7l0,0c2.1-0.4,5.4,0.3,8.6,5.9
		c1.7,2.9,2.6,5.8,2.7,5.9l0.3,0.8l-0.4,0.8c-2.4,5.1-8.2,6.2-8.4,6.2L40.2,40.5z M36.1,32.4c2.8,0,4.2,1.7,5.3,3.1
		c0.1,0.1,0.1,0.2,0.2,0.3c1.1-0.4,2.7-1.2,3.7-2.7c-1.4-3.8-4.1-8.4-6.1-8.1l0,0c-3.2,0.6-9.4,6.7-11.7,9.9c0.9-0.3,2-0.7,2.9-1
		c1-0.4,2-0.7,3-1C34.5,32.5,35.4,32.4,36.1,32.4z"/>
	<path id="XMLID_23_" class="st2" d="M81.6,44.4c-3.5-3.2-8.7-8-13.9-9.9c-2.5-1.3-5-2-7.4-1.7c-3,0.4-5.7,3.6-8.1,5.4
		c-3.3,2.3-6.7,4.6-9.8,7.3c-4.5,4.1-7.3,9.5-7.9,15.4c-0.8,3.2-0.9,6.7-0.3,10.3c1.8,10.6,9.1,18.6,16.3,25.2
		c0.3,0.3,0.7,0.5,1,0.5c3.2,3.2,7.3,5.6,11.7,4.9c4-0.6,15.1-13.6,17.2-15.7c5.9-5.8,12.5-12.7,12.9-22.1
		C93.7,55.2,87.2,49.5,81.6,44.4z M87.7,68.4c-2.1,7.7-9.1,14.3-14,19c-3.5,3.4-7.4,6.9-12.2,7c-0.8,0-1.6-0.1-2.3-0.3
		c-3.2-2-5.9-5.7-8.4-8.4c-6-6.5-16.1-16.6-10-26.9c2.5-4.2,6.7-7.4,10.1-10.7c3-2.9,5.9-5.7,8.9-8.6c0.5-0.1,1.1,0,1.8,0.1
		c2.2,0.4,4.5,1.9,6.5,3.2c3.8,2.5,7.2,5.7,10.5,8.9c3.3,3.3,7.5,6.8,8.8,11.8C87.7,65.1,87.8,66.8,87.7,68.4z"/>
</g>
</svg>
