<?xml version="1.0" standalone="no"?>
<!DOCTYPE svg PUBLIC "-//W3C//DTD SVG 1.1//EN" "http://www.w3.org/Graphics/SVG/1.1/DTD/svg11.dtd" >
<svg xmlns="http://www.w3.org/2000/svg">
<metadata>Generated by IcoMoon</metadata>
<defs>
<font id="rex" horiz-adv-x="1024">
<font-face units-per-em="1024" ascent="960" descent="-64" />
<missing-glyph horiz-adv-x="1024" />
<glyph unicode="&#x20;" horiz-adv-x="512" d="" />
<glyph unicode="&#xe558;" glyph-name="shipping" d="M768 148.667c36 0 64 28 64 64s-28 64-64 64-64-28-64-64 28-64 64-64zM832 532.667h-106v-106h190zM256 148.667c36 0 64 28 64 64s-28 64-64 64-64-28-64-64 28-64 64-64zM854 596.667l128-170v-214h-86c0-70-58-128-128-128s-128 58-128 128h-256c0-70-58-128-128-128s-128 58-128 128h-86v470c0 46 40 86 86 86h598v-172h128z" />
<glyph unicode="&#xe7fd;" glyph-name="person" d="M512 340.667c114 0 342-56 342-170v-86h-684v86c0 114 228 170 342 170zM512 426.667c-94 0-170 76-170 170s76 172 170 172 170-78 170-172-76-170-170-170z" />
<glyph unicode="&#xe85e;" glyph-name="badge-id" d="M768 128.667v60c0 86-170 132-256 132s-256-46-256-132v-60h512zM512 640.667c-70 0-128-58-128-128s58-128 128-128 128 58 128 128-58 128-128 128zM512 810.667c-24 0-42-18-42-42s18-44 42-44 42 20 42 44-18 42-42 42zM810 810.667c46 0 86-40 86-86v-596c0-46-40-86-86-86h-596c-46 0-86 40-86 86v596c0 46 40 86 86 86h178c18 50 64 86 120 86s102-36 120-86h178z" />
<glyph unicode="&#xe8b6;" glyph-name="search" d="M406 340.667c106 0 192 86 192 192s-86 192-192 192-192-86-192-192 86-192 192-192zM662 340.667l212-212-64-64-212 212v34l-12 12c-48-42-112-66-180-66-154 0-278 122-278 276s124 278 278 278 276-124 276-278c0-68-24-132-66-180l12-12h34z" />
<glyph unicode="&#xe8b8;" glyph-name="settings" d="M512 276.667c82 0 150 68 150 150s-68 150-150 150-150-68-150-150 68-150 150-150zM830 384.667l90-70c8-6 10-18 4-28l-86-148c-6-10-16-12-26-8l-106 42c-22-16-46-32-72-42l-16-112c-2-10-10-18-20-18h-172c-10 0-18 8-20 18l-16 112c-26 10-50 24-72 42l-106-42c-10-4-20-2-26 8l-86 148c-6 10-4 22 4 28l90 70c-2 14-2 28-2 42s0 28 2 42l-90 70c-8 6-10 18-4 28l86 148c6 10 16 12 26 8l106-42c22 16 46 32 72 42l16 112c2 10 10 18 20 18h172c10 0 18-8 20-18l16-112c26-10 50-24 72-42l106 42c10 4 20 2 26-8l86-148c6-10 4-22-4-28l-90-70c2-14 2-28 2-42s0-28-2-42z" />
<glyph unicode="&#xe900;" glyph-name="cruise" d="M244 767.2l5.6 1.6c1.6-3.2 2.4-6.4 2.4-8.8s-1.6-4.8-4-7.2c-2.4-2.4-5.6-3.2-9.6-2.4s-8 3.2-12 7.2c-4 4.8-5.6 8.8-6.4 12.8 0 4 1.6 6.4 4 9.6 2.4 2.4 4.8 3.2 8 2.4 2.4 0 4.8-0.8 7.2-3.2l-3.2-4.8c-1.6 0.8-3.2 1.6-4.8 1.6s-2.4-0.8-4-1.6c-1.6-1.6-2.4-3.2-2.4-5.6s1.6-4.8 4-8c3.2-3.2 5.6-4.8 7.2-5.6 2.4-0.8 4 0 5.6 0.8 0.8 0.8 1.6 2.4 1.6 4 3.2 3.2 2.4 4.8 0.8 7.2zM284.8 782.4l-4.8-4-6.4 4.8-9.6-6.4 2.4-8-4.8-3.2-10.4 34.4 4.8 3.2 28.8-20.8zM268.8 787.2l-10.4 8 4.8-12.8 5.6 4.8zM292 786.4l-18.4 29.6 10.4 6.4c2.4 1.6 4.8 2.4 6.4 2.4s3.2 0 4.8-0.8c1.6-0.8 3.2-2.4 4-4 1.6-2.4 1.6-4.8 1.6-6.4 0-2.4-1.6-4-3.2-5.6 1.6 0 3.2-0.8 4-0.8s3.2-1.6 5.6-3.2l6.4-4-5.6-3.2-7.2 4c-2.4 1.6-4.8 2.4-5.6 2.4s-1.6 0.8-2.4 0c-0.8 0-1.6-0.8-2.4-0.8l-0.8-0.8 7.2-12-4.8-3.2zM286.4 806.4l3.2 2.4c2.4 1.6 3.2 2.4 4 3.2s0.8 1.6 0.8 2.4c0 0.8 0 1.6-0.8 2.4s-1.6 1.6-1.6 1.6c-0.8 0-1.6 0.8-2.4 0-0.8 0-1.6-0.8-4-2.4l-4-2.4 4.8-7.2zM320.8 804l-16 30.4 4.8 2.4 16-30.4-4.8-2.4zM320.8 842.4l10.4 4.8c3.2 1.6 4.8 1.6 6.4 1.6s2.4-0.8 4-1.6c1.6-0.8 2.4-2.4 3.2-4s0.8-3.2 0.8-4.8c0-1.6-0.8-3.2-1.6-4 1.6 0 3.2 0 4.8-0.8s2.4-2.4 3.2-4c0.8-2.4 1.6-4.8 0.8-6.4 0-2.4-1.6-4-2.4-4.8s-3.2-1.6-7.2-4l-8.8-4-13.6 32zM328 839.2l3.2-7.2 3.2 1.6c2.4 0.8 3.2 1.6 4 1.6 0.8 0.8 1.6 1.6 1.6 2.4s0 1.6 0 2.4c-0.8 0.8-0.8 1.6-1.6 1.6s-1.6 0.8-1.6 0.8c-0.8 0-2.4-0.8-4.8-2.4l-4-0.8zM333.6 827.2l4-8 4.8 2.4c2.4 0.8 3.2 1.6 4 2.4s0.8 0.8 0.8 1.6 0 1.6-0.8 2.4c-0.8 0.8-0.8 1.6-1.6 2.4s-1.6 0.8-2.4 0.8c-0.8 0-2.4-0.8-4.8-1.6l-4-2.4zM353.6 856.8l10.4 4c3.2 0.8 4.8 1.6 6.4 1.6s2.4-0.8 4-1.6c1.6-0.8 2.4-2.4 3.2-4s0.8-3.2 0.8-4.8c0-1.6-0.8-2.4-1.6-4 1.6 0 3.2-0.8 4.8-1.6s2.4-2.4 3.2-4.8c0.8-2.4 0.8-4.8 0.8-6.4-0.8-2.4-1.6-3.2-3.2-4.8-0.8-0.8-3.2-1.6-7.2-3.2l-8.8-3.2-12.8 32.8zM360.8 853.6l2.4-7.2 3.2 1.6c2.4 0.8 3.2 1.6 4 1.6 0.8 0.8 1.6 0.8 1.6 1.6s0 1.6 0 3.2c0 0.8-0.8 1.6-1.6 2.4 0-0.8 0-0.8-0.8-0.8s-2.4-0.8-4.8-1.6l-4-0.8zM365.6 840.8l3.2-8.8 4.8 1.6c2.4 0.8 3.2 1.6 4 1.6 0.8 0.8 0.8 0.8 0.8 1.6s0 1.6 0 2.4c0 0.8-0.8 1.6-1.6 2.4s-1.6 0.8-2.4 0.8c-0.8 0-2.4-0.8-4.8-1.6h-4zM397.6 835.2l-8.8 32.8 20 5.6 1.6-5.6-15.2-4 1.6-7.2 13.6 4 1.6-5.6-13.6-4 2.4-8.8 15.2 4 1.6-5.6-20-5.6zM452 848l-6.4-0.8-4 7.2-11.2-2.4-0.8-8-5.6-0.8 4.8 36 5.6 0.8 17.6-32zM440 859.2l-6.4 12-1.6-13.6 8 1.6zM460.8 848.8l-3.2 34.4 5.6 0.8 13.6-21.6-2.4 22.4 5.6 0.8 3.2-34.4-5.6-0.8-13.6 20.8 2.4-22.4h-5.6zM528.8 864l5.6-2.4c-0.8-4-2.4-6.4-4.8-8s-4.8-2.4-7.2-2.4c-4 0-6.4 1.6-8.8 4.8s-4 8-4 13.6c0 5.6 1.6 10.4 4 13.6s5.6 4 9.6 4c3.2 0 5.6-1.6 8-3.2 1.6-1.6 2.4-4 3.2-7.2l-5.6-1.6c0 1.6-0.8 3.2-2.4 4s-2.4 1.6-4 1.6c-2.4 0-4-0.8-4.8-2.4-1.6-1.6-2.4-4.8-2.4-8.8s0.8-7.2 1.6-9.6c1.6-1.6 3.2-3.2 4.8-3.2s2.4 0.8 4 1.6c1.6 1.6 2.4 3.2 3.2 5.6zM543.2 850.4l3.2 34.4 12-1.6c3.2 0 4.8-0.8 6.4-1.6s3.2-1.6 3.2-3.2c0.8-1.6 0.8-3.2 0.8-5.6s-0.8-4.8-2.4-6.4c-1.6-1.6-3.2-2.4-5.6-2.4 0.8-0.8 2.4-2.4 2.4-3.2 0.8-0.8 1.6-3.2 2.4-5.6l2.4-7.2-6.4 0.8-3.2 8c-0.8 3.2-1.6 4.8-2.4 5.6s-0.8 1.6-1.6 1.6c0 0-1.6 0-2.4 0h-0.8l-1.6-14.4-6.4 0.8zM551.2 869.6l4-0.8c2.4 0 4 0 4.8 0s1.6 0.8 1.6 0.8 0.8 1.6 0.8 2.4c0 0.8 0 1.6 0 2.4s-0.8 1.6-1.6 1.6c-0.8 0-2.4 0.8-4.8 0.8l-4 1.6-0.8-8.8zM583.2 880.8l5.6-0.8-3.2-18.4c-0.8-3.2-1.6-4.8-1.6-5.6 0-1.6 0-2.4 0.8-4 0.8-0.8 1.6-1.6 3.2-1.6s2.4 0 3.2 0c0.8 0.8 1.6 0.8 2.4 2.4s0.8 3.2 1.6 6.4l3.2 18.4 5.6-0.8-3.2-17.6c-0.8-4.8-1.6-8-2.4-9.6s-2.4-3.2-4-4c-1.6-0.8-4-0.8-7.2-0.8-3.2 0.8-4.8 1.6-6.4 3.2s-2.4 3.2-2.4 4.8c0 2.4 0 5.6 0.8 10.4l4 17.6zM609.6 840l8.8 32.8 5.6-1.6-8.8-32.8-5.6 1.6zM627.2 847.2l5.6-0.8c-0.8-4 0.8-7.2 4-8 1.6-0.8 3.2-0.8 4 0 1.6 0.8 2.4 1.6 2.4 2.4s0 1.6 0 2.4c0 0.8-0.8 1.6-0.8 1.6-0.8 0.8-1.6 1.6-4 3.2s-3.2 2.4-4 4c-0.8 0.8-1.6 2.4-1.6 4s0 3.2 0.8 4.8c0.8 1.6 1.6 3.2 2.4 4.8 1.6 0.8 2.4 1.6 4 2.4 1.6 0 3.2 0 5.6-0.8 3.2-0.8 5.6-2.4 6.4-4.8 1.6-2.4 1.6-4.8 0.8-8l-5.6 1.6c0 1.6 0 3.2 0 4-0.8 0.8-1.6 1.6-3.2 2.4s-2.4 0.8-4 0c-0.8 0-1.6-0.8-1.6-1.6s0-1.6 0-2.4c0.8-0.8 1.6-2.4 4-3.2 2.4-1.6 4-3.2 4.8-4 0.8-1.6 1.6-2.4 1.6-4s0-3.2-0.8-5.6c-0.8-3.2-2.4-4.8-4.8-6.4s-5.6-1.6-8.8 0c-6.4-0.8-8.8 4-7.2 12zM655.2 825.6l12.8 32 19.2-8-2.4-5.6-14.4 5.6-3.2-7.2 12.8-5.6-2.4-5.6-12.8 5.6-3.2-8.8 14.4-5.6-2.4-5.6-18.4 8.8zM702.4 816.8l4.8-2.4c-1.6-4-0.8-7.2 2.4-8.8 1.6-0.8 3.2-0.8 4-0.8 1.6 0 2.4 0.8 3.2 2.4 0 0.8 0.8 1.6 0.8 1.6 0 0.8 0 1.6-0.8 1.6-0.8 0.8-1.6 1.6-4 4-1.6 1.6-3.2 3.2-3.2 4.8-0.8 1.6-0.8 2.4-0.8 4s0.8 3.2 1.6 4.8c0.8 1.6 2.4 3.2 3.2 4 1.6 0.8 3.2 1.6 4.8 1.6s3.2-0.8 5.6-1.6c3.2-1.6 4.8-4 5.6-6.4s0-4.8-0.8-8l-4.8 2.4c0.8 1.6 0.8 3.2 0.8 4s-1.6 1.6-2.4 2.4c-1.6 0.8-2.4 0.8-3.2 0.8s-1.6-0.8-2.4-1.6c-0.8-0.8-0.8-1.6 0-2.4 0-0.8 1.6-2.4 3.2-4 2.4-2.4 3.2-4 4-5.6s0.8-3.2 0.8-4.8c0-1.6-0.8-3.2-1.6-4.8-1.6-2.4-3.2-4-6.4-5.6-2.4-0.8-5.6 0-8.8 1.6-7.2 4-8.8 9.6-5.6 16.8zM725.6 791.2l19.2 28.8 4.8-3.2-7.2-11.2 9.6-6.4 7.2 11.2 4.8-3.2-20-28.8-4.8 3.2 8 12.8-8.8 5.6-8-12.8-4.8 4zM752.8 772l20.8 27.2 4.8-3.2-20.8-27.2-4.8 3.2zM765.6 762.4l22.4 26.4 7.2-5.6c2.4-2.4 4-4 4.8-4.8 0.8-1.6 1.6-3.2 0.8-5.6 0-2.4-1.6-4-3.2-6.4-1.6-1.6-3.2-3.2-4.8-4s-3.2-0.8-4.8-0.8c-1.6 0-3.2 1.6-6.4 4l-3.2 2.4-8-9.6-4.8 4zM788.8 780l-6.4-7.2 2.4-2.4c1.6-1.6 2.4-2.4 3.2-2.4s1.6 0 2.4 0c0.8 0 1.6 0.8 2.4 1.6s0.8 1.6 1.6 2.4c0 0.8 0 1.6 0 2.4s-1.6 1.6-3.2 3.2l-2.4 2.4zM239.2 124l2.4-5.6c-3.2-2.4-6.4-3.2-8.8-3.2s-4.8 0.8-7.2 3.2c-2.4 2.4-4 5.6-4 8.8 0 4 2.4 8 5.6 12.8 4 4.8 8 7.2 12 8s7.2 0 9.6-3.2c2.4-2.4 4-4.8 4-8 0-2.4-0.8-4.8-1.6-7.2l-5.6 2.4c0.8 1.6 1.6 3.2 0.8 4.8 0 1.6-0.8 2.4-1.6 4-1.6 1.6-3.2 1.6-5.6 1.6-2.4-0.8-4.8-2.4-7.2-5.6-3.2-3.2-4-5.6-4.8-8 0-2.4 0.8-4 1.6-5.6 0.8-0.8 2.4-1.6 4-1.6 2.4 0 4.8 0.8 6.4 2.4zM264.8 88l-4.8 4 2.4 8-8.8 6.4-6.4-4.8-4.8 3.2 28.8 20.8 4.8-3.2-11.2-34.4zM264.8 105.6l4.8 12.8-10.4-8 5.6-4.8zM273.6 82.4l17.6 28.8 10.4-6.4c2.4-1.6 4-3.2 4.8-4 0.8-1.6 0.8-2.4 0.8-4.8s-0.8-3.2-1.6-5.6c-1.6-2.4-3.2-4-4.8-4.8s-4-0.8-6.4 0c0.8-1.6 0.8-2.4 0.8-4s0-3.2 0-6.4l-0.8-7.2-5.6 3.2 0.8 8.8c0 3.2 0 4.8 0 5.6s0 1.6-0.8 2.4c0 0.8-0.8 0.8-2.4 1.6l-0.8 0.8-7.2-12-4.8 4zM288.8 96.8l3.2-2.4c2.4-1.6 4-2.4 4-2.4 0.8 0 1.6 0 2.4 0s1.6 0.8 1.6 1.6c0.8 0.8 0.8 1.6 0.8 2.4s0 1.6-0.8 2.4c0 0.8-1.6 1.6-4 2.4l-4 2.4-3.2-6.4zM304 64.8l16 30.4 4.8-2.4-16-30.4-4.8 2.4zM334.4 87.2l10.4-4.8c2.4-1.6 4.8-2.4 5.6-3.2s1.6-2.4 1.6-4c0-1.6 0-3.2-0.8-4.8s-1.6-2.4-3.2-4c-1.6-0.8-2.4-1.6-4-1.6 1.6-1.6 2.4-2.4 2.4-4s0-3.2-0.8-5.6c-0.8-2.4-2.4-4-4-4.8s-3.2-1.6-4.8-0.8c-0.8 0-4 0.8-7.2 3.2l-9.6 3.2 14.4 31.2zM331.2 67.2l-4-8 4.8-2.4c2.4-0.8 3.2-1.6 4-1.6s1.6 0 2.4 0.8c0.8 0.8 1.6 0.8 1.6 2.4 0.8 0.8 0.8 1.6 0.8 3.2 0 0.8-0.8 1.6-0.8 2.4s-2.4 1.6-4 2.4l-4.8 0.8zM336.8 80l-3.2-7.2 3.2-1.6c2.4-0.8 3.2-1.6 4-1.6s1.6 0 2.4 0c0.8 0 1.6 0.8 1.6 2.4 0.8 0.8 0.8 1.6 0.8 2.4s-0.8 1.6-0.8 1.6-2.4 1.6-4.8 2.4l-3.2 1.6zM364 74.4l10.4-4c3.2-0.8 4.8-2.4 5.6-3.2s1.6-2.4 1.6-4c0-1.6 0-3.2-0.8-4.8s-1.6-3.2-2.4-4c-0.8-0.8-2.4-1.6-4-1.6 1.6-0.8 2.4-2.4 2.4-4s0-3.2-0.8-5.6c-0.8-2.4-2.4-4-4-5.6s-3.2-1.6-4.8-1.6c-0.8 0-4 0.8-7.2 2.4l-8.8 3.2 12.8 32.8zM363.2 53.6l-3.2-8.8 4.8-1.6c2.4-0.8 4-0.8 4-0.8 0.8 0 1.6 0 2.4 0.8s0.8 1.6 1.6 2.4c0 0.8 0.8 1.6 0 3.2 0 0.8-0.8 1.6-1.6 2.4s-2.4 1.6-4.8 2.4h-3.2zM368 66.4l-2.4-7.2 3.2-1.6c2.4-0.8 3.2-1.6 4-1.6s1.6 0 2.4 0 1.6 0.8 1.6 2.4c0 0.8 0.8 1.6 0 2.4 0 0.8-0.8 1.6-0.8 1.6s-2.4 0.8-4.8 2.4l-3.2 1.6zM386.4 30.4l8.8 32.8 20-5.6-1.6-5.6-14.4 4-2.4-7.2 13.6-4-1.6-5.6-13.6 4-2.4-8.8 15.2-4-1.6-5.6-20 5.6zM444 16.8l-6.4 0.8-0.8 8-11.2 2.4-4-7.2-5.6 0.8 16.8 32 5.6-0.8 5.6-36zM436 32l-1.6 13.6-6.4-12 8-1.6zM454.4 16l4 34.4 5.6-0.8 8.8-24 2.4 22.4 5.6-0.8-4-34.4-5.6 0.8-8.8 23.2-2.4-22.4-5.6 1.6zM524.8 24.8l5.6-2.4c-0.8-4-2.4-6.4-4-8.8-1.6-1.6-4.8-2.4-7.2-2.4-4 0-6.4 1.6-8.8 4-2.4 3.2-4 7.2-4 12.8s0.8 10.4 4 13.6c2.4 3.2 5.6 4 8.8 4.8 3.2 0 5.6-0.8 8-3.2 1.6-1.6 2.4-4 3.2-6.4l-5.6-1.6c0 1.6-0.8 3.2-2.4 4-0.8 0.8-2.4 1.6-4 1.6-2.4 0-4-0.8-4.8-2.4s-1.6-4.8-1.6-8.8c0-4 0.8-7.2 2.4-8.8s3.2-2.4 4.8-2.4c1.6 0 2.4 0.8 4 1.6 0.8 0 1.6 2.4 1.6 4.8zM543.2 12.8l-3.2 34.4 12 0.8c3.2 0 5.6 0 6.4 0 1.6-0.8 2.4-1.6 3.2-3.2s1.6-3.2 1.6-5.6c0-2.4 0-4.8-1.6-6.4s-3.2-3.2-4.8-3.2c1.6-0.8 2.4-1.6 3.2-2.4s2.4-2.4 4-5.6l4-6.4-6.4-0.8-4.8 7.2c-1.6 2.4-3.2 4-3.2 4.8-0.8 0.8-0.8 0.8-1.6 1.6-0.8 0-1.6 0-3.2 0h-0.8l1.6-14.4-6.4-0.8zM546.4 32.8l4 0.8c2.4 0 4 0.8 4.8 0.8s1.6 0.8 1.6 1.6 0.8 1.6 0 2.4c0 0.8-0.8 1.6-0.8 2.4s-0.8 0.8-1.6 0.8c-0.8 0-2.4 0-4.8 0l-4.8-0.8 1.6-8zM572 50.4l5.6 0.8 3.2-18.4c0.8-3.2 0.8-4.8 1.6-5.6 0.8-1.6 1.6-2.4 2.4-3.2s2.4-0.8 4-0.8c1.6 0 2.4 0.8 3.2 1.6s0.8 1.6 1.6 2.4c0 0.8 0 3.2-0.8 6.4l-3.2 18.4 5.6 0.8 3.2-17.6c0.8-4.8 0.8-8 0.8-9.6 0-2.4-0.8-4-2.4-5.6s-3.2-2.4-6.4-3.2c-3.2-0.8-5.6-0.8-7.2 0s-3.2 1.6-4 4c-0.8 1.6-2.4 4.8-3.2 10.4l-4 19.2zM612.8 24l-8 33.6 5.6 1.6 8-33.6-5.6-1.6zM625.6 38.4l4.8 2.4c1.6-4 4.8-5.6 8-4.8 1.6 0.8 2.4 1.6 3.2 2.4s0.8 2.4 0.8 4c0 0.8-0.8 1.6-0.8 1.6s-0.8 0.8-1.6 0.8c-0.8 0-2.4 0-5.6 0-2.4 0-4.8 0-5.6 0.8-1.6 0.8-2.4 1.6-3.2 2.4s-1.6 2.4-2.4 4c-0.8 1.6-0.8 3.2 0 4.8 0 1.6 0.8 3.2 2.4 4s3.2 2.4 4.8 2.4c3.2 0.8 5.6 0.8 8 0s4-3.2 4.8-6.4l-5.6-1.6c-0.8 1.6-1.6 2.4-2.4 3.2s-2.4 0.8-4 0c-1.6-0.8-2.4-0.8-3.2-1.6s-0.8-1.6-0.8-2.4c0-0.8 0.8-1.6 1.6-1.6s2.4-0.8 5.6-0.8c3.2 0 4.8 0 6.4-0.8s2.4-1.6 4-2.4 1.6-2.4 2.4-4.8c0.8-3.2 0.8-5.6-0.8-8-0.8-2.4-3.2-4-7.2-5.6-5.6-1.6-10.4 0.8-13.6 8zM662.4 38.4l-12.8 32 19.2 8 2.4-5.6-14.4-5.6 2.4-7.2 12.8 4.8 2.4-5.6-12.8-4.8 3.2-8.8 14.4 5.6 2.4-5.6-19.2-7.2zM702.4 68l4.8 3.2c2.4-3.2 5.6-4.8 8.8-3.2 1.6 0.8 2.4 1.6 3.2 3.2s0 2.4 0 4c0 0.8-0.8 0.8-1.6 1.6-0.8 0-1.6 0.8-2.4 0.8s-2.4 0-5.6-0.8c-2.4-0.8-4.8-0.8-5.6-0.8s-2.4 0.8-4 1.6c-1.6 0.8-2.4 2.4-3.2 3.2-0.8 1.6-1.6 3.2-1.6 4.8s0.8 3.2 1.6 4.8c0.8 1.6 2.4 2.4 4 4 3.2 1.6 5.6 1.6 8 1.6 2.4-0.8 4.8-2.4 6.4-5.6l-4.8-3.2c-0.8 1.6-2.4 2.4-3.2 2.4s-2.4 0-4-0.8c-1.6-0.8-2.4-1.6-2.4-2.4-0.8-0.8-0.8-1.6 0-2.4s0.8-1.6 2.4-1.6c0.8 0 3.2 0 5.6 0.8 3.2 0.8 4.8 0.8 6.4 0.8s3.2-0.8 4-1.6 2.4-2.4 3.2-4c1.6-2.4 1.6-5.6 0.8-8s-2.4-4.8-6.4-6.4c-4.8-4-10.4-2.4-14.4 4zM738.4 75.2l-18.4 28.8 4.8 3.2 7.2-11.2 9.6 6.4-7.2 11.2 4.8 3.2 18.4-28.8-4.8-3.2-8 12.8-9.6-6.4 8-12.8-4.8-3.2zM767.2 94.4l-20 28 4.8 3.2 20-28-4.8-3.2zM781.6 105.6l-21.6 26.4 7.2 5.6c2.4 2.4 4.8 3.2 5.6 4 1.6 0.8 3.2 0.8 5.6 0 1.6-0.8 4-2.4 5.6-4s2.4-4 3.2-5.6c0-1.6 0-3.2-0.8-4.8s-2.4-3.2-4.8-5.6l-3.2-2.4 8-9.6-4.8-4zM768 131.2l6.4-7.2 2.4 1.6c1.6 1.6 2.4 2.4 3.2 3.2 0 0.8 0.8 1.6 0.8 2.4s-0.8 1.6-1.6 2.4c-0.8 0.8-1.6 1.6-2.4 1.6s-1.6 0-2.4 0-2.4-0.8-4-2.4l-2.4-1.6zM825.6 188.8l-4.8 8-4.8-8-8-4.8 8-4 4.8-8.8 4.8 8.8 8 4zM195.2 188.8l-4.8 8-4.8-8-8-4.8 8-4 4.8-8.8 4.8 8.8 8 4zM825.6 716.8l-4.8 8.8-4.8-8.8-8-4.8 8-4 4.8-8.8 4.8 8.8 8 4zM195.2 716.8l-4.8 8.8-4.8-8.8-8-4.8 8-4 4.8-8.8 4.8 8.8 8 4zM81.6 461.6h860v-10.4h-860v10.4zM81.6 272.8h860v-10.4h-860v10.4zM737.6 627.2c-2.4 1.6-4.8 2.4-7.2 3.2-22.4 8.8-45.6 11.2-68.8 11.2-24.8-0.8-48.8-4.8-72-10.4-44.8-11.2-87.2-28.8-128.8-49.6-64-31.2-131.2-55.2-200.8-72.8-10.4-2.4-10.4-2.4-10.4-14.4 0-22.4 14.4-36.8 36.8-36.8 124.8 0 249.6 0 374.4 0 2.4 0 4.8 0 7.2 0 0.8 2.4 0.8 4.8 1.6 6.4 0.8 12.8 4.8 24.8 10.4 36.8 10.4 22.4 27.2 40.8 43.2 59.2 8.8 10.4 18.4 20.8 25.6 32.8 7.2 12.8 2.4 26.4-11.2 34.4zM607.2 534.4c-13.6-2.4-27.2-4.8-40-7.2-6.4-0.8-8.8 0.8-11.2 6.4-2.4 6.4-4 12-6.4 18.4-1.6 4-0.8 7.2 3.2 8.8s8 0 9.6-4c1.6-4.8 4-9.6 5.6-15.2 9.6 2.4 19.2 4 28.8 6.4-1.6 4.8-2.4 8.8-4 13.6-1.6 6.4 0 10.4 4.8 12 4 1.6 8-0.8 9.6-7.2 2.4-7.2 4-14.4 6.4-21.6 1.6-5.6-0.8-9.6-6.4-10.4zM305.6 543.2c4.8 9.6 12 17.6 23.2 21.6 2.4 0.8 4.8 2.4 7.2 3.2 48 23.2 95.2 48.8 140 79.2 7.2 4.8 12.8 10.4 13.6 19.2 0 2.4 1.6 4.8 4 5.6 34.4 21.6 69.6 42.4 112 43.2 20 0.8 39.2 0 58.4-5.6 9.6-3.2 12.8-7.2 12-17.6-16.8 2.4-34.4 4.8-52 6.4-16.8 1.6-33.6 0.8-49.6-4-15.2-4.8-30.4-12.8-45.6-19.2-0.8-0.8-2.4-1.6-2.4-3.2-0.8-6.4-2.4-12.8-3.2-20 2.4 1.6 4.8 2.4 6.4 3.2 14.4 5.6 28.8 12.8 44 16 34.4 8.8 68.8 5.6 102.4 0.8 5.6-0.8 8-4 8.8-8.8 0-1.6 1.6-4 3.2-4 7.2-1.6 13.6-1.6 21.6-3.2-4 16.8-8 33.6-12 50.4-2.4 12.8-9.6 20.8-21.6 24.8-10.4 3.2-21.6 5.6-32 7.2-23.2 3.2-46.4 1.6-68.8-2.4s-42.4-14.4-62.4-25.6c-5.6-3.2-12-6.4-19.2-5.6-3.2 0-7.2 0-11.2-0.8-36-6.4-68.8-20.8-96.8-44.8-1.6-0.8-2.4-3.2-3.2-4.8-4-12.8-7.2-25.6-11.2-37.6-0.8-2.4-3.2-4.8-4.8-6.4-19.2-9.6-38.4-19.2-57.6-28.8-1.6-0.8-4-1.6-4.8-2.4-12.8-12.8-21.6-28-27.2-45.6 8 2.4 15.2 4.8 22.4 6.4 2.4-0.8 4.8 0 6.4 3.2zM508.8 725.6c-5.6 12.8-14.4 21.6-27.2 24.8-11.2 2.4-23.2 0.8-34.4-0.8-29.6-6.4-45.6-24-52.8-58.4 33.6 25.6 71.2 40 114.4 34.4zM272.8 292c-27.2 0-46.4 8.8-57.6 25.6-7.2 11.2-10.4 25.6-10.4 43.2 0 22.4 6.4 40.8 18.4 55.2 12 13.6 29.6 20 52 20 9.6 0 21.6-1.6 35.2-4.8v-24h-4l-20.8 15.2c-3.2 2.4-7.2 3.2-12 3.2-14.4 0-25.6-5.6-33.6-16-8-12-12-27.2-12-46.4 0-15.2 2.4-28 7.2-37.6 7.2-16 20.8-24 38.4-24 4.8 0 8.8 0.8 12 3.2l20.8 15.2h4v-24c-13.6-2.4-26.4-4-37.6-4zM400 426.4c8-4.8 12-12 12-20.8 0-9.6-4.8-18.4-13.6-25.6-6.4-4.8-15.2-8-24.8-9.6l31.2-49.6c3.2-4.8 6.4-8.8 11.2-13.6 3.2-4 8-7.2 13.6-8.8v-4h-32.8l-48 76v-45.6c0-7.2 0.8-12.8 2.4-16.8 2.4-4 4.8-8 8-9.6v-4h-41.6v4c3.2 1.6 6.4 5.6 8 9.6s2.4 9.6 2.4 16.8v76.8c0 7.2-0.8 12.8-2.4 16.8-2.4 4-4.8 8-8 9.6v4h53.6c12 0.8 21.6-1.6 28.8-5.6zM348.8 424v-49.6c13.6 0 24 3.2 31.2 8.8 5.6 4.8 8.8 12.8 8.8 21.6 0 7.2-3.2 12-8.8 16-5.6 2.4-12 3.2-20.8 3.2h-10.4zM536 341.6c0-16-2.4-26.4-6.4-32.8-8-11.2-22.4-16.8-44.8-16.8-17.6 0-30.4 3.2-37.6 10.4s-11.2 18.4-11.2 32.8v67.2c0 7.2-0.8 12.8-2.4 16.8-2.4 4-4.8 8-8 9.6v4h41.6v-4c-3.2-2.4-6.4-5.6-8-9.6s-2.4-9.6-2.4-16.8v-61.6c0-13.6 2.4-24 7.2-29.6 5.6-5.6 13.6-8.8 25.6-8.8 13.6 0 23.2 4.8 28 14.4 2.4 4 3.2 12 3.2 23.2v62.4c0 7.2-0.8 12.8-1.6 16.8-0.8 3.2-3.2 6.4-7.2 10.4v4h33.6v-4c-3.2-3.2-6.4-7.2-7.2-10.4-1.6-4-1.6-9.6-1.6-16.8v-60.8zM552.8 294.4v4c3.2 1.6 6.4 5.6 8 9.6s2.4 9.6 2.4 16.8v76.8c0 7.2-0.8 12.8-2.4 16.8-2.4 4-4.8 8-8 9.6v4h41.6v-4c-3.2-2.4-6.4-5.6-8-9.6s-2.4-9.6-2.4-16.8v-76.8c0-7.2 0.8-12.8 2.4-16.8 2.4-4 4.8-8 8-9.6v-4h-41.6zM615.2 378.4c-6.4 5.6-9.6 13.6-9.6 24 0 9.6 4 17.6 12 24 8 5.6 18.4 8.8 31.2 8.8 7.2 0 18.4-1.6 34.4-4.8v-24h-4l-20.8 15.2c-4 2.4-8 3.2-11.2 3.2-8 0-13.6-1.6-17.6-5.6-3.2-3.2-5.6-7.2-5.6-11.2 0-7.2 3.2-12.8 9.6-16 1.6-0.8 3.2-1.6 5.6-2.4s4.8-2.4 7.2-3.2c18.4-8 30.4-16 36.8-23.2 5.6-7.2 8.8-16 8.8-27.2 0-13.6-4.8-24.8-13.6-32.8-9.6-8-22.4-11.2-40-11.2-4.8 0-9.6 0.8-15.2 1.6s-12 1.6-18.4 3.2v24h3.2l20.8-15.2c3.2-2.4 5.6-3.2 9.6-3.2 20 0.8 30.4 10.4 30.4 28 0 8-2.4 15.2-8 20.8-3.2 3.2-10.4 7.2-19.2 12-11.2 4-20.8 9.6-26.4 15.2zM729.6 369.6v-66.4h32c4 0 8 1.6 12 4.8l17.6 15.2h4l-3.2-28.8h-93.6v4c3.2 1.6 6.4 5.6 8 9.6s2.4 9.6 2.4 16.8v76.8c0 7.2-0.8 12.8-2.4 16.8-2.4 4-4.8 8-8 9.6v4h88.8v-25.6h-4l-16 14.4c-2.4 1.6-6.4 3.2-10.4 3.2h-26.4v-47.2h16c7.2 0 12.8 0.8 16.8 2.4 4 2.4 8 5.6 11.2 9.6h4v-33.6h-4c-3.2 4-7.2 7.2-11.2 9.6-4 1.6-9.6 3.2-16.8 3.2h-16.8zM256.8 243.2h21.6c6.4 0 11.2-0.8 13.6-3.2 3.2-1.6 4-4.8 4-8.8 0-5.6-3.2-9.6-9.6-12.8-4.8-2.4-10.4-3.2-16.8-3.2v-16.8c0-3.2 0-5.6 0.8-7.2s2.4-3.2 3.2-4v-1.6h-17.6v1.6c1.6 0.8 2.4 2.4 3.2 4s0.8 4 0.8 7.2v32c0 3.2 0 5.6-0.8 7.2s-2.4 3.2-3.2 4v1.6zM284.8 237.6c-1.6 1.6-4.8 2.4-9.6 2.4h-4.8v-20.8c4 0 8 0.8 11.2 3.2s5.6 5.6 5.6 8.8c0 3.2-0.8 4.8-2.4 6.4zM330.4 244.8l16-47.2c0.8-2.4 1.6-4.8 3.2-6.4 0.8-1.6 2.4-2.4 4-3.2v-1.6h-16.8v1.6c2.4 0 3.2 3.2 1.6 7.2l-4 12.8h-17.6l-4.8-12c-1.6-5.6-1.6-8 1.6-8v-1.6h-13.6v1.6c1.6 0.8 2.4 1.6 3.2 3.2s2.4 4 4 8l18.4 45.6h4.8zM325.6 234.4l-8-22.4h15.2l-7.2 22.4zM363.2 220.8c-2.4 2.4-4 5.6-4 9.6s1.6 7.2 4.8 10.4c3.2 2.4 8 4 12.8 4 3.2 0 8-0.8 14.4-2.4v-9.6h-1.6l-8.8 6.4c-1.6 0.8-3.2 1.6-4.8 1.6-3.2 0-5.6-0.8-7.2-2.4s-2.4-3.2-2.4-4.8c0-3.2 1.6-5.6 4-6.4 0.8 0 1.6-0.8 2.4-0.8s1.6-0.8 3.2-1.6c7.2-3.2 12.8-6.4 15.2-9.6s4-6.4 4-11.2c0-5.6-2.4-10.4-5.6-13.6-4-3.2-9.6-4.8-16.8-4.8-1.6 0-4 0-6.4 0.8-2.4 0-4.8 0.8-7.2 1.6v9.6h0.8l8.8-6.4c1.6-0.8 2.4-1.6 4-1.6 8 0 12.8 4 12.8 12 0 3.2-0.8 6.4-3.2 8.8-1.6 1.6-4 3.2-8 4.8-5.6 0.8-8.8 3.2-11.2 5.6zM406.4 220.8c-2.4 2.4-4 5.6-4 9.6s1.6 7.2 4.8 10.4c3.2 2.4 8 4 12.8 4 3.2 0 8-0.8 14.4-2.4v-9.6h-2.4l-8 6.4c-1.6 0.8-3.2 1.6-4.8 1.6-3.2 0-5.6-0.8-7.2-2.4s-2.4-3.2-2.4-4.8c0-3.2 1.6-5.6 4-6.4 0.8 0 1.6-0.8 2.4-0.8s1.6-0.8 3.2-1.6c7.2-3.2 12.8-6.4 15.2-9.6s4-6.4 4-11.2c0-5.6-2.4-10.4-5.6-13.6-4-3.2-9.6-4.8-16.8-4.8-1.6 0-4 0-6.4 0.8-2.4 0-4.8 0.8-7.2 1.6v9.6h1.6l8.8-6.4c1.6-0.8 2.4-1.6 4-1.6 8 0 12.8 4 12.8 12 0 3.2-0.8 6.4-3.2 8.8-1.6 1.6-4 3.2-8 4.8-6.4 0.8-9.6 3.2-12 5.6zM472 244.8l16-47.2c0.8-2.4 1.6-4.8 3.2-6.4 0.8-1.6 2.4-2.4 4-3.2v-1.6h-16.8v1.6c2.4 0 3.2 3.2 1.6 7.2l-4 12.8h-17.6l-4-12c-1.6-5.6-1.6-8 1.6-8v-1.6h-13.6v1.6c1.6 0.8 2.4 1.6 3.2 3.2s2.4 4 4 8l18.4 45.6h4zM467.2 234.4l-8-22.4h15.2l-7.2 22.4zM540 199.2v0l-32 32.8v-32.8c0-2.4 0-4.8 0.8-6.4s1.6-3.2 3.2-4.8v-1.6h-12.8v1.6c1.6 1.6 2.4 3.2 3.2 4.8s0.8 4 0.8 6.4v32c0 2.4 0 4.8-0.8 6.4s-1.6 3.2-3.2 4.8v1.6h10.4l30.4-32v19.2c0 2.4 0 4.8-0.8 6.4s-1.6 3.2-3.2 4.8v1.6h12.8v-1.6c-1.6-1.6-2.4-3.2-3.2-4.8s-0.8-4-0.8-6.4v-32c0-2.4 0-4.8 0.8-6.4s1.6-3.2 3.2-4.8v-1.6h-12.8v1.6c1.6 1.6 2.4 3.2 3.2 4.8s0.8 4 0.8 6.4zM590.4 208c0 3.2 0 5.6-0.8 7.2s-1.6 2.4-3.2 4v1.6h16v-1.6c-1.6-0.8-2.4-2.4-2.4-4-0.8-1.6-0.8-4-0.8-7.2v-20.8c-6.4-1.6-12-1.6-16.8-1.6-8 0-14.4 2.4-19.2 7.2s-7.2 12-7.2 20.8c0 9.6 2.4 16.8 8 23.2 4.8 5.6 12.8 8 21.6 8 4 0 8.8-0.8 14.4-1.6v-9.6h-1.6l-8.8 6.4c-1.6 0.8-3.2 1.6-4.8 1.6-6.4 0-10.4-2.4-13.6-6.4-3.2-4.8-4.8-11.2-4.8-19.2s1.6-15.2 4.8-19.2c3.2-4 8.8-6.4 15.2-6.4 0.8 0 2.4 0 4.8 0v17.6zM622.4 216.8v-27.2h13.6c1.6 0 3.2 0.8 4.8 1.6l7.2 6.4h1.6l-1.6-11.2h-38.4v1.6c1.6 0.8 2.4 2.4 3.2 4s0.8 4 0.8 7.2v32c0 3.2 0 5.6-0.8 7.2s-2.4 3.2-3.2 4v1.6h36.8v-10.4h-1.6l-6.4 6.4c-0.8 0.8-2.4 1.6-4.8 1.6h-11.2v-19.2h6.4c3.2 0 5.6 0 7.2 0.8s3.2 2.4 4.8 4h1.6v-13.6h-1.6c-1.6 1.6-3.2 3.2-4.8 4s-4 1.6-7.2 1.6h-6.4zM689.6 240.8c3.2-1.6 4.8-4.8 4.8-8.8s-1.6-8-5.6-10.4c-2.4-2.4-6.4-3.2-10.4-4l12.8-20.8c1.6-1.6 2.4-4 4.8-5.6 1.6-1.6 3.2-3.2 5.6-4v-1.6h-13.6l-20 31.2v-18.4c0-3.2 0-5.6 0.8-7.2s2.4-3.2 3.2-4v-1.6h-16v1.6c1.6 0.8 2.4 2.4 3.2 4s0.8 4 0.8 7.2v32c0 3.2 0 5.6-0.8 7.2s-2.4 3.2-3.2 4v1.6h22.4c4.8 0 8.8-0.8 11.2-2.4zM668.8 240v-20.8c5.6 0 10.4 1.6 12.8 3.2 2.4 2.4 4 4.8 4 8.8 0 3.2-1.6 4.8-4 6.4-2.4 0.8-4.8 1.6-8.8 1.6h-4zM708.8 220.8c-2.4 2.4-4 5.6-4 9.6s1.6 7.2 4.8 10.4c3.2 2.4 8 4 12.8 4 3.2 0 8-0.8 14.4-2.4v-9.6h-1.6l-8.8 6.4c-1.6 0.8-3.2 1.6-4.8 1.6-3.2 0-5.6-0.8-7.2-2.4s-2.4-3.2-2.4-4.8c0-3.2 1.6-5.6 4-6.4 0.8 0 1.6-0.8 2.4-0.8s1.6-0.8 3.2-1.6c7.2-3.2 12.8-6.4 15.2-9.6s4-6.4 4-11.2c0-5.6-2.4-10.4-5.6-13.6-4-3.2-9.6-4.8-16.8-4.8-1.6 0-4 0-6.4 0.8-2.4 0-4.8 0.8-7.2 1.6v9.6h1.6l8.8-6.4c1.6-0.8 2.4-1.6 4-1.6 8 0 12.8 4 12.8 12 0 3.2-0.8 6.4-3.2 8.8-1.6 1.6-4 3.2-8 4.8-5.6 0.8-9.6 3.2-12 5.6z" />
<glyph unicode="&#xe901;" glyph-name="pin" d="M512 809.6c-146.4 0-265.6-118.4-265.6-264 0-61.6 21.6-120.8 60-167.2 0 0 0.8-0.8 0.8-0.8l202.4-289.6c0.8-0.8 1.6-1.6 3.2-1.6s2.4 0.8 3.2 1.6l204 292.8c0 0 0.8 0.8 0.8 0.8 7.2 9.6 14.4 19.2 21.6 31.2 0 0 0 0.8 0.8 0.8 0 0 0 0 0 0.8s0.8 1.6 1.6 2.4c22.4 39.2 33.6 84 33.6 128.8-0.8 145.6-120 264-266.4 264zM507.2 412c-74.4 0-134.4 60-134.4 133.6s60 133.6 134.4 133.6 134.4-60 134.4-133.6c0-73.6-60-133.6-134.4-133.6z" />
<glyph unicode="&#xe902;" glyph-name="chat" d="M472 828c15.2 0 29.6 0 44.8 0 2.4-0.8 5.6-1.6 8-1.6 17.6-2.4 36-4 53.6-8 216.8-48 346.4-275.2 276.8-485.6-8-24.8-8-45.6 1.6-68.8 19.2-47.2 35.2-95.2 52.8-143.2 0-4 0-8.8 0-12.8-8.8-13.6-16.8-16-32.8-11.2-3.2 0.8-6.4 2.4-9.6 3.2-41.6 16-83.2 32.8-125.6 49.6-7.2 3.2-12 1.6-18.4-2.4-98.4-72.8-207.2-96-325.6-64.8-223.2 57.6-342.4 296-254.4 509.6 51.2 124.8 146.4 200 278.4 228.8 16.8 3.2 33.6 4.8 50.4 7.2zM305.6 496.8c-27.2 0-49.6-21.6-49.6-48.8s21.6-48.8 48.8-48.8c27.2 0 48.8 21.6 49.6 48 0 27.2-21.6 49.6-48.8 49.6zM436 448c0-26.4 21.6-48.8 48.8-48.8s49.6 22.4 49.6 49.6c0 27.2-21.6 48.8-48.8 48.8-28 0-49.6-22.4-49.6-49.6zM615.2 448.8c0-27.2 21.6-48.8 48-49.6 27.2 0 49.6 21.6 49.6 48.8s-21.6 48.8-48 49.6c-27.2 0-48.8-21.6-49.6-48.8z" />
<glyph unicode="&#xe903;" glyph-name="cart" d="M898.4 686.4c21.6 0 25.6-16.8 21.6-38.4-7.2-39.2-16.8-78.4-24.8-117.6-12-54.4-24-108.8-36-163.2-5.6-24-14.4-31.2-39.2-33.6-48-5.6-96-12-144-17.6s-96-11.2-144-16.8c-40.8-4.8-80.8-9.6-121.6-14.4-8-0.8-16.8-2.4-24.8-3.2-15.2-0.8-27.2 8.8-33.6 26.4-24 64.8-48 128.8-72 193.6-26.4 71.2-52.8 142.4-78.4 213.6-3.2 8.8-7.2 12.8-16.8 12-15.2-0.8-31.2-0.8-46.4 0-21.6 0.8-36 14.4-35.2 33.6s15.2 32 36.8 32c12.8 0 25.6 0 38.4 0 13.6 0 26.4 0 40 0 16.8 0 27.2-6.4 32.8-23.2 8.8-24 142.4-394.4 150.4-418.4 0 0 5.6-14.4 34.4-9.6s361.6 46.4 361.6 46.4 17.6 2.4 20.8 17.6 44 217.6 46.4 233.6c3.2 23.2 12 50.4 33.6 47.2zM360.8 185.6c0-45.6-33.6-79.2-80-79.2-44.8 0-80.8 35.2-80.8 79.2s36 80.8 80 80.8c45.6 0 80-34.4 80.8-80.8zM867.2 183.2c0-45.6-34.4-79.2-81.6-79.2-43.2 0-79.2 36-79.2 80 0 44.8 36.8 80 83.2 80 43.2 0 77.6-35.2 77.6-80.8z" />
<glyph unicode="&#xe904;" glyph-name="compass" d="M518.4 219.2l-4-132.8-4 132.8zM740.8 454.4l132.8-4-132.8-4zM505.6 676.8l4 132.8 4-132.8zM283.2 441.6l-132.8 4 132.8 4zM465.6 347.2c0-25.6 20.8 24 46.4 24s46.4-49.6 46.4-24c0 25.6-46.4 234.4-46.4 234.4s-46.4-208-46.4-234.4zM512 696c-136.8 0-248-111.2-248-248s111.2-248 248-248 248 111.2 248 248-111.2 248-248 248zM512 236c-117.6 0-212 95.2-212 212s94.4 212 212 212 212-94.4 212-212-94.4-212-212-212z" />
<glyph unicode="&#xe905;" glyph-name="heart" d="M753.333 853.334q69.667 0 128.5-34.333t93.167-93.167 34.333-128.5q0-50-19.167-97.167t-55.833-83.833l-422.333-422.333-422.333 422.333q-36.667 36.667-55.833 83.833t-19.167 97.167q0 69.667 34.333 128.5t93.167 93.167 128.5 34.333q50.333 0 97.167-19t83.833-56l60.333-60.333 60.333 60.333q36.667 36.667 83.833 55.833t97.167 19.167zM753.333 768q-33.333 0-64.667-12.667t-56-37.333l-120.667-120.667-120.667 120.667q-24.667 24.667-56 37.333t-64.667 12.667q-46.667 0-85.833-22.833t-62-62-22.833-85.833q0-33.333 12.667-64.667t37.333-56l362-362 362 362q24.667 24.667 37.333 56t12.667 64.667q0 46.667-22.833 85.833t-62 62-85.833 22.833z" />
<glyph unicode="&#xe906;" glyph-name="bag" d="M512 938.667q43.333 0 82.833-17t68-45.5 45.5-68 17-82.833v-42.667h170.667v-640q0-53-37.5-90.5t-90.5-37.5h-512q-53 0-90.5 37.5t-37.5 90.5v640h170.667v42.667q0 43.333 17 82.833t45.5 68 68 45.5 82.833 17zM810.667 42.667v554.667h-597.333v-554.667q0-17.667 12.5-30.167t30.167-12.5h512q17.667 0 30.167 12.5t12.5 30.167zM512 853.334q-53 0-90.5-37.5t-37.5-90.5v-42.667h256v42.667q0 53-37.5 90.5t-90.5 37.5z" />
<glyph unicode="&#xe907;" glyph-name="watch" d="M252.8 426.057c0 9.6 0 17.6 0 27.2 0 1.6 1.6 4.8 1.6 6.4 6.4 67.2 35.2 120 86.4 163.2 4.8 3.2 6.4 8 6.4 12.8 0 52.8 0 105.6 0 158.4 0 6.4 0 14.4 0 20.8 94.4 0 188.8 0 283.2 0 0-1.6 0-1.6 0-3.2 0-60.8 0-121.6 0-180.8 0-3.2 1.6-6.4 4.8-8 43.2-33.6 70.4-78.4 83.2-131.2 1.6-4.8 3.2-6.4 6.4-6.4 16 0 30.4 0 46.4 0 0-32 0-62.4 0-94.4-16 0-30.4 0-46.4 0-4.8 0-6.4-1.6-6.4-6.4-12.8-51.2-40-94.4-80-128-6.4-4.8-8-9.6-8-16 0-52.8 0-105.6 0-160 0-6.4 0-12.8 0-19.2-94.4 0-188.8 0-283.2 0 0 1.6 0 1.6 0 3.2 0 60.8 0 120 0 180.8 0 3.2-3.2 6.4-4.8 8-43.2 35.2-72 80-83.2 134.4-3.2 14.4-4.8 25.6-6.4 38.4zM675.2 438.857c0 102.4-83.2 187.2-184 187.2-105.6 0-190.4-83.2-190.4-187.2 0-102.4 83.2-187.2 185.6-187.2 105.6 0 188.8 83.2 188.8 187.2zM465.6 579.657c16 0 30.4 0 48 0 0-3.2 0-6.4 0-8 0-40 0-80 0-118.4 0-4.8 1.6-8 3.2-12.8 19.2-35.2 40-70.4 60.8-104 1.6-1.6 1.6-3.2 3.2-6.4-14.4-8-27.2-16-40-24-1.6 1.6-3.2 3.2-3.2 6.4-22.4 38.4-44.8 76.8-67.2 116.8-1.6 3.2-3.2 6.4-3.2 9.6 0 46.4 0 91.2 0 137.6-3.2 0-1.6 1.6-1.6 3.2z" />
<glyph unicode="&#xe908;" glyph-name="calendar" d="M822.4 653.257c-6.4 22.4-25.6 38.4-49.6 38.4-25.6 0-51.2 0-76.8 0-1.6 0-4.8 0-8 0 0 11.2 0 22.4 0 33.6 0 12.8-3.2 20.8-16 25.6-3.2 0-4.8 0-8 0-11.2-4.8-16-12.8-16-25.6 0-11.2 0-22.4 0-33.6-38.4 0-78.4 0-116.8 0 0 11.2 0 22.4 0 33.6 0 12.8-4.8 20.8-16 25.6-3.2 0-4.8 0-8 0-11.2-4.8-16-12.8-16-25.6 0-11.2 0-22.4 0-33.6-38.4 0-78.4 0-116.8 0 0 11.2 0 22.4 0 33.6 0 12.8-4.8 20.8-16 25.6-3.2 0-4.8 0-8 0-11.2-4.8-16-12.8-16-25.6 0-11.2 0-22.4 0-33.6-3.2 0-4.8 0-6.4 0-25.6 0-49.6 0-75.2 0-28.8 0-48-16-54.4-43.2 0 0 0-1.6-1.6-1.6 0-158.4 0-316.8 0-475.2 0-1.6 1.6-4.8 1.6-6.4 6.4-20.8 19.2-33.6 40-38.4 1.6 0 1.6 0 3.2-1.6 177.6 0 356.8 0 534.4 0 1.6 0 4.8 1.6 6.4 1.6 20.8 6.4 33.6 19.2 38.4 40 0 1.6 0 1.6 1.6 3.2 0 158.4 0 316.8 0 475.2 1.6 4.8 0 6.4 0 8zM785.6 181.257c0-11.2-4.8-16-16-16-172.8 0-344 0-516.8 0-9.6 0-14.4 4.8-14.4 14.4 0 152 0 305.6 0 457.6 0 11.2 4.8 14.4 16 14.4 25.6 0 51.2 0 76.8 0 1.6 0 3.2 0 6.4 0 0-8 0-16 0-24 0-25.6 4.8-35.2 19.2-35.2s19.2 9.6 19.2 35.2c0 8 0 16 0 24 38.4 0 78.4 0 116.8 0 0-1.6 0-3.2 0-4.8 0-9.6 0-20.8 0-30.4 0-12.8 8-22.4 19.2-22.4s19.2 9.6 19.2 22.4c0 11.2 0 24 0 36.8 38.4 0 78.4 0 116.8 0 0-12.8 0-25.6 0-36.8 0-9.6 4.8-16 12.8-19.2 12.8-4.8 25.6 4.8 25.6 17.6 0 11.2 0 20.8 0 32 0 1.6 0 3.2 0 6.4 3.2 0 4.8 0 6.4 0 25.6 0 49.6 0 75.2 0 11.2 0 16-4.8 16-16 1.6-152 1.6-304 1.6-456zM609.6 264.457c25.6 0 51.2 0 76.8 0 0 19.2 0 38.4 0 57.6-25.6 0-51.2 0-76.8 0 0-20.8 0-40 0-57.6zM473.6 264.457c25.6 0 51.2 0 76.8 0 0 19.2 0 38.4 0 57.6-25.6 0-51.2 0-76.8 0 0-20.8 0-40 0-57.6zM337.6 264.457c25.6 0 51.2 0 76.8 0 0 19.2 0 38.4 0 57.6-25.6 0-51.2 0-76.8 0 0-20.8 0-40 0-57.6zM686.4 419.657c-25.6 0-51.2 0-76.8 0 0-19.2 0-38.4 0-57.6 25.6 0 51.2 0 76.8 0 0 19.2 0 38.4 0 57.6zM550.4 418.057c-25.6 0-51.2 0-76.8 0 0-19.2 0-38.4 0-57.6 25.6 0 51.2 0 76.8 0 0 20.8 0 40 0 57.6zM337.6 362.057c25.6 0 51.2 0 76.8 0 0 19.2 0 38.4 0 57.6-25.6 0-51.2 0-76.8 0 0-20.8 0-40 0-57.6zM686.4 515.657c-25.6 0-51.2 0-76.8 0 0-19.2 0-38.4 0-57.6 25.6 0 51.2 0 76.8 0 0 19.2 0 38.4 0 57.6zM550.4 515.657c-25.6 0-51.2 0-76.8 0 0-19.2 0-38.4 0-57.6 25.6 0 51.2 0 76.8 0 0 20.8 0 40 0 57.6zM414.4 517.257c-25.6 0-51.2 0-76.8 0 0-19.2 0-38.4 0-57.6 25.6 0 51.2 0 76.8 0 0 19.2 0 38.4 0 57.6z" />
<glyph unicode="&#xe909;" glyph-name="package" d="M480 896l-480-128v-576l480-128 480 128v576l-480 128zM63.875 239.066l-0.375 432.934 384.498-102.533 0.001-432.833-384.124 102.432zM63.5 736l160.254 42.734 416.246-111.134-160-42.667-416.5 111.067zM896.125 239.066l-384.124-102.432 0.001 432.833 127.998 34.133v-156l128 34.135v155.998l128.5 34.267-0.375-432.934zM768 701.733v0.125l-416.266 111.004 128.266 34.204 416.5-111.066-128.5-34.267z" />
<glyph unicode="&#xe90a;" glyph-name="close" d="M420.544 447.936l-368.256-368.256 91.456-91.392 368.256 368.256 368.32-368.256 91.328 91.392-368.256 368.256 368.384 368.32-91.456 91.456-368.32-368.256-368.256 368.256-91.456-91.456z" />
<glyph unicode="&#xe90b;" glyph-name="list" horiz-adv-x="1062" d="M29.422 102.104h1003.156v-145.966h-1003.156zM29.422 377.12h1003.156v-145.966h-1003.156zM29.422 663.076h1003.156v-145.928h-1003.156zM29.422 939.904h1003.156v-145.966h-1003.156z" />
<glyph unicode="&#xe90c;" glyph-name="grid" horiz-adv-x="1248" d="M20.096 240.128h354.784v-277.088h-354.784zM873.152 240.128h354.752v-277.088h-354.752zM444.192 240.128h354.784v-277.088h-354.784zM20.096 586.592h354.784v-277.12h-354.784zM873.152 586.592h354.752v-277.12h-354.752zM444.192 586.592h354.784v-277.12h-354.784zM20.096 932.96h354.784v-277.024h-354.784zM873.152 932.96h354.752v-277.024h-354.752zM444.192 932.96h354.784v-277.024h-354.784z" />
<glyph unicode="&#xe90d;" glyph-name="cart-2" d="M879.957 665.844c20.48-0.341 24.576-16.384 20.48-36.864-7.168-37.547-15.701-74.752-23.893-112.299-11.264-51.883-23.211-103.424-34.475-154.965-5.12-22.528-13.312-29.696-36.864-32.085-45.739-5.12-91.136-11.264-136.875-16.725s-91.477-10.581-136.875-16.043c-38.571-4.437-77.141-9.216-115.712-13.995-7.851-1.024-16.043-2.389-23.893-2.731-14.677-0.683-25.941 8.192-32.427 25.259-22.869 61.44-45.739 122.88-68.267 184.32-25.259 67.925-50.176 135.509-75.093 203.435-3.072 8.533-6.827 11.947-16.384 11.605-14.677-0.683-29.696-0.683-44.373 0-20.48 0.683-34.133 13.995-33.451 31.744 0.341 18.091 13.995 30.037 34.816 30.037 12.288 0 24.576 0 36.864 0 12.629 0 25.259 0 38.229 0 16.384 0 25.6-6.144 31.744-21.845 8.875-22.869 135.851-375.808 143.701-398.677 0 0 5.12-13.653 33.109-9.216s344.747 44.032 344.747 44.032 17.067 2.389 19.456 17.067c2.389 14.336 41.643 207.189 44.032 222.549 2.389 22.528 10.923 48.811 31.403 45.397zM367.275 189.342c0-43.349-32.085-75.435-75.776-75.776-42.667 0-76.8 33.451-76.8 75.435s34.475 77.141 76.117 77.141c43.008 0 76.459-33.451 76.459-76.8zM849.579 186.953c0-43.691-33.109-75.776-77.483-75.776-41.301 0-75.435 34.816-75.435 75.776 0 43.008 34.816 76.459 78.848 76.459 41.984 0 74.411-33.792 74.069-76.459zM354.645 609.524c2.389-20.48 30.037-21.504 52.907-18.432 8.192 1.024 205.483 16.043 260.779 20.48 29.696 1.707 59.392 3.413 89.088 5.12 38.229 2.389 76.459 4.437 114.688 7.851 20.821 2.048 34.816 9.899 29.696 30.037-2.389 20.48-30.037 21.504-52.907 18.432-8.192-1.024-65.536-5.803-120.832-10.24-29.696-1.707-59.392-3.413-89.088-5.12-38.229-2.389-216.405-14.677-254.635-18.091-20.821-2.048-35.157-10.24-29.696-30.037z" />
<glyph unicode="&#xe90e;" glyph-name="filter" horiz-adv-x="1210" d="M480.97-73.143c-7.758 0-15.515 1.924-22.559 5.834-14.801 8.192-23.986 23.8-23.986 40.712v386.7l-423.812 514.607c-11.45 13.933-13.84 33.171-6.144 49.462 7.664 16.291 24.048 26.686 42.077 26.686h1117.060c17.998 0 34.382-10.395 42.077-26.686s5.306-35.561-6.144-49.462l-423.781-514.607v-231.548c0-16.074-8.285-30.968-21.876-39.471l-248.242-155.152c-7.54-4.717-16.105-7.075-24.669-7.075zM145.191 857.766l371.712-451.398c6.858-8.316 10.612-18.773 10.612-29.572v-319.426l155.152 96.97v222.456c0 10.799 3.755 21.256 10.612 29.572l371.681 451.398h-919.769z" />
<glyph unicode="&#xf02f;" glyph-name="print" horiz-adv-x="951" d="M219.429 73.143h512v146.286h-512v-146.286zM219.429 438.857h512v219.429h-91.429c-30.286 0-54.857 24.571-54.857 54.857v91.429h-365.714v-365.714zM877.714 402.286c0 20-16.571 36.571-36.571 36.571s-36.571-16.571-36.571-36.571 16.571-36.571 36.571-36.571 36.571 16.571 36.571 36.571zM950.857 402.286v-237.714c0-9.714-8.571-18.286-18.286-18.286h-128v-91.429c0-30.286-24.571-54.857-54.857-54.857h-548.571c-30.286 0-54.857 24.571-54.857 54.857v91.429h-128c-9.714 0-18.286 8.571-18.286 18.286v237.714c0 60 49.714 109.714 109.714 109.714h36.571v310.857c0 30.286 24.571 54.857 54.857 54.857h384c30.286 0 72-17.143 93.714-38.857l86.857-86.857c21.714-21.714 38.857-63.429 38.857-93.714v-146.286h36.571c60 0 109.714-49.714 109.714-109.714z" />
<glyph unicode="&#xf099;" glyph-name="twitter" horiz-adv-x="951" d="M925.714 717.714q-38.286-56-92.571-95.429 0.571-8 0.571-24 0-74.286-21.714-148.286t-66-142-105.429-120.286-147.429-83.429-184.571-31.143q-154.857 0-283.429 82.857 20-2.286 44.571-2.286 128.571 0 229.143 78.857-60 1.143-107.429 36.857t-65.143 91.143q18.857-2.857 34.857-2.857 24.571 0 48.571 6.286-64 13.143-106 63.714t-42 117.429v2.286q38.857-21.714 83.429-23.429-37.714 25.143-60 65.714t-22.286 88q0 50.286 25.143 93.143 69.143-85.143 168.286-136.286t212.286-56.857q-4.571 21.714-4.571 42.286 0 76.571 54 130.571t130.571 54q80 0 134.857-58.286 62.286 12 117.143 44.571-21.143-65.714-81.143-101.714 53.143 5.714 106.286 28.571z" />
<glyph unicode="&#xf09a;" glyph-name="facebook" horiz-adv-x="602" d="M548 944v-150.857h-89.714q-49.143 0-66.286-20.571t-17.143-61.714v-108h167.429l-22.286-169.143h-145.143v-433.714h-174.857v433.714h-145.714v169.143h145.714v124.571q0 106.286 59.429 164.857t158.286 58.571q84 0 130.286-6.857z" />
<glyph unicode="&#xf09d;" glyph-name="credit-card" horiz-adv-x="1097" d="M1005.714 877.714c50.286 0 91.429-41.143 91.429-91.429v-694.857c0-50.286-41.143-91.429-91.429-91.429h-914.286c-50.286 0-91.429 41.143-91.429 91.429v694.857c0 50.286 41.143 91.429 91.429 91.429h914.286zM91.429 804.571c-9.714 0-18.286-8.571-18.286-18.286v-128h950.857v128c0 9.714-8.571 18.286-18.286 18.286h-914.286zM1005.714 73.143c9.714 0 18.286 8.571 18.286 18.286v347.429h-950.857v-347.429c0-9.714 8.571-18.286 18.286-18.286h914.286zM146.286 146.286v73.143h146.286v-73.143h-146.286zM365.714 146.286v73.143h219.429v-73.143h-219.429z" />
<glyph unicode="&#xf0d5;" glyph-name="google-plus" horiz-adv-x="1317" d="M821.143 429.143q0-118.857-49.714-211.714t-141.714-145.143-210.857-52.286q-85.143 0-162.857 33.143t-133.714 89.143-89.143 133.714-33.143 162.857 33.143 162.857 89.143 133.714 133.714 89.143 162.857 33.143q163.429 0 280.571-109.714l-113.714-109.143q-66.857 64.571-166.857 64.571-70.286 0-130-35.429t-94.571-96.286-34.857-132.857 34.857-132.857 94.571-96.286 130-35.429q47.429 0 87.143 13.143t65.429 32.857 44.857 44.857 28 47.429 12.286 42.286h-237.714v144h395.429q6.857-36 6.857-69.714zM1316.571 498.857v-120h-119.429v-119.429h-120v119.429h-119.429v120h119.429v119.429h120v-119.429h119.429z" />
<glyph unicode="&#xf1f0;" glyph-name="cc-visa" horiz-adv-x="1317" d="M1128.571 385.143h-78.857c0 0 8 21.143 37.714 102.286-0.571-0.571 8 21.143 12.571 34.857l6.857-31.429c17.714-87.429 21.714-105.714 21.714-105.714zM303.429 422.286l-33.143 168.571c-4.571 23.429-22.286 30.857-42.857 30.857h-153.143l-1.143-7.429c105.143-26.857 191.429-84 230.286-192zM405.714 621.714l-92.571-250.286-9.714 50.857c-20 53.143-68.571 102.286-123.429 124.571l77.143-291.429h100l149.143 366.286h-100.571zM485.143 254.857h94.857l59.429 366.857h-94.857zM924 612.571c-18.857 7.429-48.571 15.429-85.143 15.429-93.714 0-159.429-49.714-160-121.143-0.571-52.571 46.857-81.714 82.857-99.429 37.143-17.714 49.143-29.714 49.143-45.714 0-24.571-29.714-35.429-56.571-35.429-38.286 0-58.857 4.571-89.143 18.857l-12.571 6.286-13.143-82.286c22.286-10.286 62.857-19.429 105.714-19.429 99.429-0.571 164 49.143 165.143 125.143 0 41.714-25.714 73.143-80 99.429-33.143 16.571-53.143 28.571-53.143 45.714 0 15.429 17.143 31.429 54.286 31.429 30.857 0.571 53.714-5.714 70.857-13.714l8.571-4.571zM1166.857 621.714h-73.143c-22.857 0-40-6.857-49.714-30.857l-140.571-336h99.429c16 45.143 20 54.857 20 54.857h121.143c0 0 2.857-12.571 11.429-54.857h88zM1316.571 804.571v-731.429c0-40-33.143-73.143-73.143-73.143h-1170.286c-40 0-73.143 33.143-73.143 73.143v731.429c0 40 33.143 73.143 73.143 73.143h1170.286c40 0 73.143-33.143 73.143-73.143z" />
<glyph unicode="&#xf1f1;" glyph-name="cc-mastercard" horiz-adv-x="1317" d="M639.429 756c-47.429 31.429-103.429 48.571-160.571 48.571-160.571 0-290.857-130.286-290.857-290.286 0-160.571 130.286-290.857 290.857-290.857 57.143 0 113.143 17.143 160.571 48.571-153.143 124.571-152 359.429 0 484zM658.286 742.286c-147.429-116-148-341.143 0-456.571 148 115.429 147.429 340.571 0 456.571zM677.143 756c151.429-124.571 153.714-360 0-484 47.429-31.429 104-48.571 160.571-48.571 160.571 0 290.857 130.286 290.857 290.857 0 160-130.286 290.286-290.857 290.286-57.143 0-113.143-17.143-160.571-48.571zM1100.571 343.428h4v1.714h-9.714v-1.714h4v-9.714h1.714v9.714zM1117.143 333.714h2.286v11.429h-2.857l-3.429-7.429-3.429 7.429h-2.857v-11.429h1.714v8.571l3.429-7.429h2.286l2.857 7.429v-8.571zM1112.571 82.286v-1.143h-2.857v1.714h2.857v-0.571zM1112.571 77.143h1.714l-2.286 2.857c1.143 0 1.143 0.571 1.714 0.571 0.571 0.571 0.571 1.143 0.571 1.714s0 1.143-0.571 1.714c-0.571 0-1.143 0.571-2.286 0.571h-3.429v-7.429h1.714v2.857h0.571zM391.429 116c0 13.714 8.571 24.571 23.429 24.571 13.714 0 22.857-10.857 22.857-24.571 0-14.286-9.143-24.571-22.857-24.571-14.857 0-23.429 10.857-23.429 24.571zM661.714 141.143c10.857 0 18.286-6.286 20-18.286h-40c1.714 10.857 8.571 18.286 20 18.286zM865.143 116c0 13.714 8.571 24.571 22.857 24.571s23.429-10.857 23.429-24.571c0-14.286-9.143-24.571-23.429-24.571s-22.857 10.857-22.857 24.571zM1020.571 116c0 13.714 9.143 24.571 23.429 24.571 13.714 0 23.429-10.857 23.429-24.571 0-14.286-9.714-24.571-23.429-24.571-14.286 0-23.429 10.857-23.429 24.571zM1110.857 74.857c-0.571 0-1.143 0-2.286 0.571-0.571 0-1.143 0.571-1.714 1.143s-1.143 1.143-1.143 1.714-0.571 1.714-0.571 2.286 0 1.714 0.571 2.286c0 1.143 0.571 1.714 1.143 2.286s1.143 0.571 1.714 1.143 1.714 0.571 2.286 0.571 1.714 0 2.286-0.571 1.714-0.571 2.286-1.143 0.571-1.143 1.143-2.286c0-0.571 0.571-1.143 0.571-2.286 0-0.571-0.571-1.143-0.571-2.286-0.571-0.571-0.571-1.143-1.143-1.714s-1.143-1.143-2.286-1.143c-0.571-0.571-1.143-0.571-2.286-0.571zM342.286 77.143h17.143v48.571c0 18.286-12 30.286-30.857 30.857-9.714 0-20-2.857-26.857-13.714-5.143 8.571-13.714 13.714-25.714 13.714-8 0-16-2.857-22.286-11.429v9.143h-17.143v-77.143h17.143v42.857c0 13.714 7.429 20.571 18.857 20.571s17.143-7.429 17.143-20.571v-42.857h16.571v42.857c0 13.714 8 20.571 18.857 20.571 11.429 0 17.143-7.429 17.143-20.571v-42.857zM437.143 77.143h16.571v77.143h-16.571v-9.143c-5.714 6.857-13.714 11.429-24.571 11.429-21.714 0-38.286-17.143-38.286-40.571s16.571-40.571 38.286-40.571c10.857 0 18.857 4 24.571 11.429v-9.714zM538.857 100.571c0 13.714-10.286 20.571-26.857 22.857l-8 1.143c-7.429 1.143-13.143 2.857-13.143 8s5.143 8.571 14.286 8.571c10.286 0 19.429-3.429 24.571-6.286l6.857 13.714c-8 5.143-18.857 8-31.429 8-19.429 0-32-9.714-32-25.143 0-12.571 9.143-20 26.857-22.286l7.429-1.143c9.714-1.714 13.714-4 13.714-8 0-6.286-6.286-9.714-17.714-9.714s-20 4-25.714 8l-7.429-13.143c9.143-6.286 20.571-9.714 33.143-9.714 22.286 0 35.429 10.286 35.429 25.143zM613.143 81.143l-4.571 14.286c-5.143-2.857-10.286-4-14.857-4-8.571 0-10.857 5.143-10.857 12.571v34.857h27.429v15.429h-27.429v23.429h-17.143v-23.429h-16v-15.429h16v-34.857c0-17.714 6.857-28.571 26.857-28.571 6.857 0 15.429 2.286 20.571 5.714zM662.286 156.571c-22.286 0-38.286-16.571-38.286-40.571 0-24.571 16.571-40.571 39.429-40.571 11.429 0 22.286 2.857 31.429 10.857l-8 12.571c-6.286-5.143-14.857-8.571-22.286-8.571-10.857 0-20.571 5.143-23.429 18.857h57.714v6.857c0 24-14.857 40.571-36.571 40.571zM753.143 156.571c-9.714 0-16-4.571-20-11.429v9.143h-17.143v-77.143h17.143v43.429c0 12.571 5.143 20 16.571 20 3.429 0 6.857-0.571 10.286-2.286l5.143 16c-4 1.714-8.571 2.286-12 2.286zM770.286 116c0-23.429 16-40.571 41.143-40.571 11.429 0 19.429 2.286 27.429 9.143l-8 13.714c-6.286-4.571-12.571-7.429-20-6.857-13.714 0-23.429 9.714-23.429 24.571s9.714 24.571 23.429 24.571c7.429 0 13.714-2.286 20-6.857l8 13.714c-8 6.286-16 9.143-27.429 9.143-25.143 0-41.143-17.143-41.143-40.571zM910.286 77.143h17.143v77.143h-17.143v-9.143c-5.143 6.857-13.143 11.429-24 11.429-21.714 0-38.857-17.143-38.857-40.571s17.143-40.571 38.857-40.571c10.857 0 18.857 4 24 11.429v-9.714zM986.286 156.571c-9.714 0-16-4.571-20-11.429v9.143h-16.571v-77.143h16.571v43.429c0 12.571 5.714 20 16.571 20 3.429 0 6.857-0.571 10.286-2.286l5.143 16c-3.429 1.714-8.571 2.286-12 2.286zM1066.286 77.143h16.571v108.571h-16.571v-40.571c-5.143 6.857-13.143 11.429-24.571 11.429-21.143 0-38.286-17.143-38.286-40.571s17.143-40.571 38.286-40.571c11.429 0 19.429 4 24.571 11.429v-9.714zM1110.857 88.571c-0.571 0-1.714-0.571-2.857-0.571-1.143-0.571-1.714-1.143-2.286-1.714-1.143-0.571-1.714-1.714-1.714-2.286-0.571-1.143-0.571-2.286-0.571-3.429 0-0.571 0-1.714 0.571-2.857 0-0.571 0.571-1.714 1.714-2.286 0.571-0.571 1.143-1.143 2.286-1.714s2.286-0.571 2.857-0.571c1.143 0 2.286 0 3.429 0.571 0.571 0.571 1.714 1.143 2.286 1.714s1.143 1.714 1.714 2.286c0.571 1.143 0.571 2.286 0.571 2.857 0 1.143 0 2.286-0.571 3.429-0.571 0.571-1.143 1.714-1.714 2.286s-1.714 1.143-2.286 1.714c-1.143 0-2.286 0.571-3.429 0.571zM1316.571 804.571v-731.429c0-40-33.143-73.143-73.143-73.143h-1170.286c-40 0-73.143 33.143-73.143 73.143v731.429c0 40 33.143 73.143 73.143 73.143h1170.286c40 0 73.143-33.143 73.143-73.143z" />
<glyph unicode="&#xf1f2;" glyph-name="cc-discover" horiz-adv-x="1317" d="M178.857 506.857c0-18.286-7.429-36-20.571-48-11.429-10.286-26.857-14.857-50.857-14.857h-9.714v125.714h9.714c24 0 38.857-4 50.857-15.429 13.143-11.429 20.571-29.143 20.571-47.429zM1193.714 544c0-19.429-12.571-29.714-36.571-29.714h-10.857v57.714h11.429c23.429 0 36-9.714 36-28zM217.143 506.857c0 56-41.714 95.429-102.286 95.429h-54.286v-190.286h54.286c28.571 0 49.714 6.286 68 21.714 21.714 18.286 34.286 45.143 34.286 73.143zM234.286 412h37.143v190.286h-37.143v-190.286zM417.143 469.714c0 30.286-12.571 44-54.857 59.429-22.286 8-28.571 13.714-28.571 24 0 12 11.429 21.143 27.429 21.143 11.429 0 20.571-4.571 30.286-15.429l19.429 25.143c-16 14.286-35.429 21.143-56 21.143-33.714 0-59.429-23.429-59.429-54.286 0-26.286 12-40 46.857-52.571 14.286-5.143 21.714-8 25.714-10.857 7.429-4.571 10.857-11.429 10.857-19.429 0-15.429-12-26.857-28.571-26.857-17.714 0-32 8.571-40.571 25.143l-24-22.857c17.143-25.143 37.714-36.571 65.714-36.571 38.857 0 65.714 25.714 65.714 62.857zM576 418.286v44c-14.857-14.857-28-21.143-44.571-21.143-37.714 0-64 27.429-64 65.714 0 36.571 27.429 65.714 62.286 65.714 17.714 0 30.857-6.286 46.286-21.714v44c-16 8-29.714 11.429-45.714 11.429-56 0-101.143-44-101.143-99.429 0-56 44-99.429 100.571-99.429 16 0 29.714 2.857 46.286 10.857zM1280 73.143v301.143c-91.429-57.143-413.143-240-933.143-337.714h896.571c20 0 36.571 16.571 36.571 36.571zM793.714 505.714c0 57.143-46.286 103.429-103.429 103.429s-103.429-46.286-103.429-103.429 46.286-103.429 103.429-103.429 103.429 46.286 103.429 103.429zM880.571 406.857l82.286 195.429h-40.571l-51.429-128-50.857 128h-40.571l81.143-195.429h20zM979.429 412h105.143v32h-68v51.429h65.714v32h-65.714v42.286h68v32.571h-105.143v-190.286zM1202.857 412h45.714l-60 80c28 5.714 43.429 24.571 43.429 53.714 0 36-24.571 56.571-67.429 56.571h-55.429v-190.286h37.143v76h5.143zM1316.571 801.143v-724.571c0-42.286-33.714-76.571-75.429-76.571h-1165.714c-41.714 0-75.429 34.286-75.429 76.571v724.571c0 42.286 33.714 76.571 75.429 76.571h1165.714c41.714 0 75.429-34.286 75.429-76.571z" />
<glyph unicode="&#xf1f3;" glyph-name="cc-amex" horiz-adv-x="1317" d="M68 561.143h50.857l-25.714 61.714zM422.857 260.571l42.286 45.143-40 45.143h-93.143v-28h81.143v-31.429h-81.143v-30.857h90.857zM513.143 305.143l56.571-62.857v124zM677.714 332c0 13.714-10.286 18.857-22.857 18.857h-48v-39.429h47.429c13.143 0 23.429 6.286 23.429 20.571zM842.857 334.286c0 14.286-12.571 16.571-24 16.571h-46.857v-34.857h46.286c12.571 0 24.571 2.857 24.571 18.286zM684 600.571c0 14.286-12.571 16.571-24 16.571h-46.857v-34.286h46.286c12.571 0 24.571 2.857 24.571 17.714zM946.286 561.143h50.857l-25.143 61.714zM399.429 649.714v-154.857h-37.714v121.143l-53.714-121.143h-32.571l-53.714 121.143v-121.143h-75.429l-14.286 34.286h-77.143l-14.286-34.286h-40l66.286 154.857h54.857l62.857-146.857v146.857h60.571l48.571-105.143 44 105.143h61.714zM717.143 332c0-62.286-68-52-110.286-52v-52h-72l-45.714 51.429-47.429-51.429h-146.286v154.857h148.571l45.714-50.857 46.857 50.857h118.286c34.857 0 62.286-12 62.286-50.857zM550.857 526.857v-32h-124v154.857h124v-32.571h-86.857v-28h84.571v-31.429h-84.571v-30.857h86.857zM1316.571 207.428v-130.857c0-41.714-33.714-76.571-75.429-76.571h-1165.714c-41.714 0-75.429 34.857-75.429 76.571v387.429h63.429l14.286 34.857h31.429l14.286-34.857h124.571v26.286l10.857-26.286h64.571l11.429 26.857v-26.857h309.143v56.571l5.714 0.571c5.143 0 5.714-4 5.714-8v-49.143h159.429v13.143c37.143-19.429 88-13.143 126.857-13.143l14.286 34.857h32l14.286-34.857h129.714v33.143l19.429-33.143h104v216h-102.857v-25.143l-14.286 25.143h-105.714v-25.143l-13.143 25.143h-142.286c-21.143 0-43.429-2.286-62.286-12.571v12.571h-98.286v-12.571c-11.429 10.286-26.857 12.571-41.714 12.571h-358.857l-24.571-55.429-24.571 55.429h-113.143v-25.143l-12.571 25.143h-96.571l-44.571-102.286v223.429c0 41.714 33.714 76.571 75.429 76.571h1165.714c41.714 0 75.429-34.857 75.429-76.571v-387.429h-68.571c-16 0-33.143-2.857-46.286-12.571v12.571h-101.143c-14.286 0-33.714-2.286-44.571-12.571v12.571h-180.571v-12.571c-13.714 9.714-33.714 12.571-49.714 12.571h-119.429v-12.571c-12 11.429-36.571 12.571-52 12.571h-133.714l-30.857-33.143-28.571 33.143h-199.429v-216h196l31.429 33.714 29.714-33.714h120.571v50.857h12c17.143 0 34.857 0.571 51.429 7.429v-58.286h99.429v56.571h4.571c5.714 0 6.857-0.571 6.857-6.857v-49.714h302.286c16.571 0 37.143 3.429 50.286 13.714v-13.714h96c18.286 0 37.714 1.714 54.286 9.714zM883.429 341.143c0-17.143-9.143-34.286-26.286-41.143 20.571-7.429 24.571-21.143 24.571-41.143v-30.857h-37.143v25.714c0 26.286-8.571 30.857-33.143 30.857h-39.429v-56.571h-37.143v154.857h88c29.143 0 60.571-5.143 60.571-41.714zM725.143 608c0-17.714-9.714-34.857-26.286-41.714 21.143-7.429 24.571-20.571 24.571-41.143v-30.286h-37.143c-0.571 33.143 8 56-33.143 56h-40v-56h-36.571v154.857l87.429-0.571c29.714 0 61.143-4.571 61.143-41.143zM1027.429 260v-32h-123.429v154.857h123.429v-32h-86.286v-28h84.571v-31.429h-84.571v-30.857zM784 649.714v-154.857h-37.714v154.857h37.714zM1180 277.143c0-36.571-25.143-49.143-58.286-49.143h-72v33.143h72c9.143 0 19.429 2.286 19.429 14.286 0 33.143-95.429-12.571-95.429 61.143 0 31.429 24 46.286 52.571 46.286h74.286v-32.571h-68c-9.714 0-20.571-1.714-20.571-14.286 0-33.714 96 15.429 96-58.857zM1316.571 305.714v-57.714c-10.857-16-32-20-50.286-20h-71.429v33.143h71.429c9.143 0 18.857 2.857 18.857 14.286 0 32.571-95.429-12.571-95.429 61.143 0 31.429 24.571 46.286 53.143 46.286h73.714v-32.571h-67.429c-10.286 0-20.571-1.714-20.571-14.286 0-27.429 64.571 0.571 88-30.286zM1222.286 649.143v-154.286h-52.571l-69.714 116v-116h-75.429l-14.857 34.286h-76.571l-14.286-34.286h-42.857c-50.857 0-73.714 26.286-73.714 76 0 52 23.429 78.857 76 78.857h36v-33.714c-38.857 0.571-74.286 9.143-74.286-44 0-26.286 6.286-44.571 36-44.571h16.571l52.571 121.714h55.429l62.286-146.286v146.286h56.571l65.143-107.429v107.429h37.714z" />
<glyph unicode="&#xf24b;" glyph-name="cc-jcb" horiz-adv-x="1317" d="M1114.857 380.571c0-20.571-13.714-35.429-30.857-38.857-2.286-0.571-7.429-1.143-10.286-1.143h-87.429v80h87.429c2.857 0 8-0.571 10.286-1.143 17.143-3.429 30.857-18.857 30.857-38.857zM1104.571 502.286c0-20-13.714-33.143-30.286-36-1.714-0.571-5.714-0.571-8.571-0.571h-79.429v73.714h79.429c2.857 0 6.857-0.571 8.571-0.571 16.571-2.857 30.286-16.571 30.286-36.571zM416 408.571v176h-130.286v-176c0-42.857-29.143-74.857-81.714-74.857-44.571 0-88.571 13.143-130.857 33.714v-64c68.571-18.857 155.429-18.857 155.429-18.857 145.143 0 187.429 55.429 187.429 124zM824 303.428v64.571c-29.714-15.429-67.429-30.286-114.286-33.714-82.286-6.286-131.429 33.714-131.429 104.571s49.143 110.857 131.429 104.571c46.857-3.429 84-17.714 114.286-33.143v64c-61.143 15.429-118.857 17.714-118.857 17.714-201.143 9.143-258.286-70.286-258.286-153.143s57.143-162.286 258.286-153.143c0 0 57.714 2.286 118.857 17.714zM1243.429 369.143c0 42.286-37.714 69.714-86.857 73.143v1.714c44.571 6.286 69.143 35.429 69.143 69.143 0 43.429-36 68.571-84.571 70.857-3.429 0-9.714 0.571-14.857 0.571h-260v-291.429h280.571c55.429 0 96.571 29.714 96.571 76zM1316.571 804.571v-731.429c0-40-33.143-73.143-73.143-73.143h-1170.286c-40 0-73.143 33.143-73.143 73.143v731.429c0 40 33.143 73.143 73.143 73.143h1170.286c40 0 73.143-33.143 73.143-73.143z" />
<glyph unicode="&#xf24c;" glyph-name="cc-diners-club" horiz-adv-x="1317" d="M490.286 241.714v396c-79.429-30.857-136-108-136-198.286s56.571-167.429 136-197.714zM778.286 439.428c0 90.286-56.571 167.429-136 198.286v-396.571c79.429 30.857 136 108 136 198.286zM901.143 439.428c0-184.571-149.714-334.857-334.857-334.857-184.571 0-334.857 150.286-334.857 334.857 0 185.143 150.286 334.857 334.857 334.857 185.143 0 334.857-149.714 334.857-334.857zM1120 435.428c0 218.286-182.286 369.143-382.286 369.143h-172c-202.286 0-369.143-150.857-369.143-369.143 0-199.429 166.857-362.286 369.143-362.286h172c200 0 382.286 162.857 382.286 362.286zM1316.571 804.571v-731.429c0-40-33.143-73.143-73.143-73.143h-1170.286c-40 0-73.143 33.143-73.143 73.143v731.429c0 40 33.143 73.143 73.143 73.143h1170.286c40 0 73.143-33.143 73.143-73.143z" />
<glyph unicode="&#xf262;" glyph-name="tripadvisor" horiz-adv-x="1317" d="M372 381.143q0-22.286-15.714-38t-37.429-15.714q-22.286 0-38 15.714t-15.714 38q0 21.714 15.714 37.429t38 15.714q21.714 0 37.429-15.714t15.714-37.429zM1031.429 381.714q0-22.286-15.714-38t-38-15.714-38 15.714-15.714 38 15.714 37.714 38 15.429 38-15.429 15.714-37.714zM437.143 381.143q0 45.143-32.286 77.714t-78 32.571-78-32.286-32.286-78 32.286-78 78-32.286 78 32.286 32.286 78zM1096 381.714q0 45.714-32.286 78t-78 32.286q-45.143 0-77.714-32.286t-32.571-78 32.286-78 78-32.286 78 32.286 32.286 78zM485.714 381.143q0-66.286-46.571-112.857t-112.286-46.571q-66.286 0-112.857 46.857t-46.571 112.571 46.857 112.286 112.571 46.571 112.286-46.571 46.571-112.286zM1145.143 381.714q0-65.714-46.571-112.286t-112.857-46.571q-65.714 0-112.286 46.571t-46.571 112.286 46.571 112.286 112.286 46.571q66.286 0 112.857-46.571t46.571-112.286zM594.286 380q0 109.143-77.429 186.571t-186.571 77.429q-71.429 0-132-35.429t-96-96.286-35.429-132.286 35.429-132.286 96-96.286 132-35.429q109.143 0 186.571 77.429t77.429 186.571zM976 707.428q-145.143 63.429-317.714 63.429-182.286 0-327.429-62.857 66.857 0 127.429-26t104.286-70 69.714-104.571 26-127.429q0 65.714 24.857 125.429t67.429 103.143 101.429 70.286 124 28.571zM1249.714 380q0 109.143-77.143 186.571t-186.286 77.429-186.571-77.429-77.429-186.571 77.429-186.571 186.571-77.429 186.286 77.429 77.143 186.571zM1097.714 703.428h218.857q-25.143-29.143-42.857-65.429t-22.857-65.429q62.857-86.286 62.857-192.571 0-89.143-44-164.571t-119.429-119.143-164-43.714q-76 0-142.286 32t-112 88.571q-26.857-32-73.714-102.286-6.286 12.571-30.571 47.143t-42.571 55.714q-45.714-56.571-112.286-88.857t-142.571-32.286q-88.571 0-164 43.714t-119.429 119.143-44 164.571q0 106.286 62.857 192.571-5.143 29.143-22.857 65.429t-42.857 65.429h208.571q85.143 57.143 202.857 89.429t246.857 32.286q128 0 240.571-32t198.857-89.714z" />
</font>
</defs>
</svg>
