<?xml version="1.0" standalone="no"?>
<!DOCTYPE svg PUBLIC "-//W3C//DTD SVG 20010904//EN"
 "http://www.w3.org/TR/2001/REC-SVG-20010904/DTD/svg10.dtd">
<svg version="1.0" xmlns="http://www.w3.org/2000/svg"
 width="3200.000000pt" height="93.000000pt" viewBox="0 0 3200.000000 93.000000"
 preserveAspectRatio="xMidYMid meet">
<metadata>
Created by potrace 1.13, written by Peter Selinger 2001-2015
</metadata>
<g transform="translate(0.000000,93.000000) scale(0.100000,-0.100000)"
fill="#000000" stroke="none">
<path d="M0 651 c0 -239 2 -280 15 -285 8 -3 15 -2 15 2 0 4 42 8 93 9 50 0
132 3 181 6 48 3 87 4 85 2 -11 -10 -204 -28 -321 -29 -67 -1 -68 -2 -68 -28
0 -25 2 -26 53 -23 37 2 45 1 27 -5 -24 -8 -23 -8 8 -9 18 -1 31 3 27 8 -3 5
-1 12 4 15 5 4 13 1 17 -5 5 -8 3 -9 -7 -4 -8 5 -11 4 -6 0 4 -5 16 -9 27 -10
15 -1 17 1 9 11 -8 10 -6 12 10 11 12 -1 21 -6 21 -12 0 -5 4 -4 9 4 6 9 20
12 40 9 17 -2 31 -2 31 2 0 3 19 6 43 5 29 0 41 -4 39 -13 -1 -8 2 -11 8 -7 6
3 8 10 5 15 -7 11 14 17 53 16 17 -1 32 2 32 5 0 3 17 7 38 8 75 5 91 7 98 14
4 4 16 0 26 -10 11 -9 18 -11 18 -5 0 7 10 10 22 8 12 -1 37 0 55 5 18 4 36 3
39 -2 3 -5 9 -7 14 -4 4 3 11 -2 14 -11 4 -12 2 -15 -9 -10 -8 3 -15 1 -15 -3
0 -5 -8 -8 -17 -6 -10 2 -20 4 -22 4 -3 1 4 8 15 16 18 14 17 14 -8 5 -16 -5
-28 -6 -28 -2 0 10 -20 -21 -20 -32 0 -5 8 -2 17 5 14 12 16 12 8 0 -6 -11 -4
-13 7 -8 21 7 56 -28 36 -37 -7 -3 -2 -3 12 1 14 3 40 5 59 5 19 -1 31 1 28 4
-3 4 -24 6 -46 6 -22 0 -44 4 -47 10 -5 8 -1 9 10 5 10 -4 15 -3 11 3 -4 6 7
10 24 10 21 0 32 6 36 20 4 11 11 18 16 15 5 -4 9 1 9 11 0 14 2 15 17 3 11
-10 14 -10 9 -1 -4 6 -3 12 2 12 6 0 12 -7 16 -15 3 -10 -1 -15 -12 -15 -10 0
-26 -6 -36 -13 -17 -12 -17 -14 -3 -20 10 -4 16 -2 14 5 -3 15 25 17 35 3 5
-6 8 -5 8 4 0 10 3 11 14 2 11 -9 16 -9 22 0 5 8 3 9 -6 4 -9 -5 -11 -4 -6 4
5 8 12 9 19 3 7 -5 23 -8 37 -5 14 2 41 5 60 6 19 1 41 6 49 11 11 7 13 5 8
-8 -5 -12 -3 -16 5 -14 7 3 13 10 13 16 0 14 14 17 23 6 4 -4 1 -4 -5 0 -9 5
-11 2 -7 -7 5 -14 14 -15 107 -5 25 3 21 15 -9 21 -14 2 -31 -1 -37 -7 -17
-15 -37 -18 -37 -6 0 6 6 10 13 10 8 0 8 3 -2 9 -8 5 -22 8 -32 6 -10 -2 -21
1 -25 6 -3 6 -12 3 -21 -8 -8 -10 -12 -13 -9 -7 3 6 -1 11 -9 11 -8 0 -12 -4
-9 -9 3 -4 -2 -8 -11 -8 -10 0 -13 5 -9 13 4 6 4 9 -1 5 -4 -4 -14 0 -21 10
-18 23 -17 37 1 22 10 -8 19 -9 28 -3 13 11 47 13 47 4 0 -4 17 -7 38 -7 20
-1 70 -2 110 -4 55 -2 77 1 84 11 8 11 9 10 4 -5 -5 -13 -2 -17 9 -12 8 3 15
1 15 -3 0 -5 9 -7 20 -4 11 3 20 10 20 17 0 6 5 4 10 -4 5 -8 10 -10 10 -5 0
11 20 -16 20 -27 0 -5 -5 -8 -11 -8 -5 0 -8 4 -5 9 3 5 0 11 -7 14 -18 7 -57
-10 -56 -25 0 -10 2 -10 6 -1 3 8 11 10 21 5 29 -14 113 -15 110 -1 -2 7 10
13 30 15 17 1 32 -1 32 -6 0 -5 -9 -7 -21 -5 -11 2 -19 -1 -17 -6 2 -6 7 -10
11 -10 4 1 28 2 55 2 26 1 39 3 30 6 -25 6 -23 22 2 20 11 -1 20 -5 20 -9 0
-4 7 -8 16 -8 9 0 12 5 8 12 -5 7 -3 8 7 3 17 -11 49 -14 49 -5 0 4 7 7 15 7
8 0 12 -4 9 -9 -4 -5 2 -8 12 -6 11 2 18 -1 17 -7 -1 -5 13 -11 30 -12 29 -1
30 -1 9 8 -19 7 -23 29 -6 29 3 0 2 -4 -1 -10 -3 -5 3 -10 14 -10 11 0 23 5
27 11 4 8 9 7 15 -2 5 -8 9 -9 9 -4 0 6 9 11 20 12 28 2 20 -21 -10 -28 -14
-4 29 -6 95 -4 144 4 145 4 120 16 l-20 9 20 -2 c11 -2 26 1 33 5 7 5 12 4 12
-2 0 -6 -4 -11 -10 -11 -5 0 -10 -5 -10 -11 0 -6 7 -9 15 -6 14 6 28 -7 31
-31 1 -6 -2 -12 -7 -12 -5 0 -9 6 -9 13 0 7 -5 5 -11 -5 -5 -10 -17 -15 -27
-12 -14 5 -14 4 -2 -4 9 -7 18 -8 26 -1 8 6 14 6 18 0 8 -12 39 -7 44 7 2 7
-4 12 -13 12 -9 0 -14 4 -10 9 3 5 1 12 -5 16 -20 13 -9 22 22 19 18 -2 35 1
40 8 5 9 8 9 8 2 0 -7 7 -15 16 -18 8 -3 12 -2 9 4 -4 6 16 10 50 10 35 0 54
-4 50 -10 -3 -5 -2 -10 4 -10 5 0 15 8 20 17 6 10 11 14 11 8 0 -5 24 -10 53
-9 60 1 83 -7 47 -17 l-25 -7 24 -1 c14 -1 33 7 43 16 15 14 19 14 16 3 -2 -9
6 -16 22 -18 24 -3 24 -3 5 12 -19 14 -17 14 28 12 26 -1 47 1 47 5 0 5 10 5
23 0 13 -5 35 -7 49 -4 18 3 30 -1 39 -15 10 -14 26 -19 57 -19 23 0 42 3 42
7 0 4 -8 7 -17 7 -10 0 -29 1 -43 2 -25 2 -25 2 -3 11 12 5 31 7 43 5 11 -2
20 1 20 8 0 9 2 9 8 1 5 -8 48 -11 127 -10 89 0 119 -2 118 -11 -2 -9 4 -10
23 -3 14 6 38 10 52 10 112 -2 250 11 287 26 17 6 18 5 8 -7 -10 -12 4 -14 98
-14 60 0 109 -3 109 -7 0 -4 11 -3 25 2 16 6 25 6 25 0 0 -5 6 -7 13 -5 6 3
30 7 52 9 22 2 44 5 48 5 5 1 5 5 2 11 -8 13 25 1 50 -19 13 -10 16 -11 8 -1
-20 22 -15 35 6 16 11 -10 25 -15 30 -11 6 3 11 0 11 -7 0 -10 2 -10 8 -1 4 7
35 13 70 15 34 1 62 7 62 13 0 5 4 4 8 -2 8 -13 41 -11 64 3 6 4 8 3 5 -3 -7
-12 81 -11 101 0 6 5 12 4 12 -2 0 -7 8 -7 24 -1 16 6 28 5 36 -3 10 -9 11 -9
5 2 -6 10 -4 12 6 5 7 -4 30 -9 49 -10 19 -1 37 -3 40 -4 3 -1 15 -1 28 0 12
1 22 -2 22 -7 0 -5 -24 -9 -52 -9 -127 -1 -191 -4 -185 -10 8 -8 225 -9 233
-1 4 3 14 2 24 -3 10 -5 20 -6 24 -3 4 4 -3 12 -14 18 -16 9 23 11 164 11 103
-1 186 -5 186 -9 0 -4 8 -4 18 1 9 4 33 7 52 6 19 -1 57 -3 83 -3 35 -1 46 -4
41 -13 -6 -10 -4 -10 7 0 15 14 33 16 25 3 -3 -4 16 -4 42 1 26 5 148 11 272
12 259 4 243 3 235 16 -3 6 -1 10 4 10 6 0 11 -7 11 -15 0 -8 7 -15 15 -15 18
0 20 26 3 33 -11 5 35 11 55 8 4 0 7 3 7 7 0 4 26 7 58 6 31 -1 80 -3 107 -4
28 -1 44 -4 37 -7 -6 -2 -10 -9 -6 -14 3 -5 1 -9 -5 -9 -5 0 -12 6 -14 12 -4
10 -8 10 -15 -1 -8 -11 -10 -11 -15 0 -4 11 -6 11 -6 1 -1 -10 -6 -10 -21 -2
-15 8 -20 8 -20 -1 0 -8 -4 -8 -15 1 -10 9 -32 10 -70 5 -53 -6 -67 -16 -43
-31 7 -5 8 -2 3 7 -6 11 -5 12 6 2 17 -16 33 -17 23 -1 -5 8 -2 9 12 4 10 -4
76 -9 146 -10 98 -2 125 0 121 9 -6 16 13 29 22 15 4 -6 13 -7 23 -2 29 14 57
9 56 -10 -1 -10 3 -18 8 -18 6 0 8 9 5 20 -5 20 3 26 17 13 10 -11 120 -5 124
7 5 14 35 13 50 -2 9 -9 17 -10 30 -2 9 6 51 12 92 13 41 2 102 4 135 6 33 2
68 -1 77 -6 16 -9 74 -15 178 -20 25 -1 53 -8 64 -15 18 -12 7 -13 -131 -1
-18 2 -33 0 -33 -4 0 -13 31 -19 91 -19 46 0 58 -3 53 -12 -6 -10 -4 -10 7 -2
22 18 78 23 72 7 -3 -7 2 -13 12 -13 9 0 14 4 11 8 -3 5 1 9 9 9 8 0 12 -4 9
-8 -2 -4 1 -11 7 -15 8 -4 9 -3 5 4 -5 8 1 12 14 12 12 0 19 -3 17 -7 -3 -5
26 -9 64 -10 44 0 67 3 63 9 -4 7 0 7 12 1 11 -5 47 -9 82 -9 34 1 62 -2 62
-5 0 -4 12 -4 28 0 24 6 279 5 342 -2 14 -2 37 0 52 4 19 5 28 4 28 -4 0 -7 4
-6 10 3 5 8 10 11 10 5 0 -6 62 -10 164 -10 91 -1 162 3 160 7 -3 4 0 8 5 8 6
0 11 -6 12 -12 0 -7 4 -4 9 7 6 13 9 15 9 5 1 -11 14 -15 49 -16 31 -1 40 1
27 6 -11 4 -24 5 -30 2 -6 -3 -6 -1 -2 4 5 5 22 10 38 10 16 1 41 2 55 3 17 1
23 5 19 14 -4 6 -1 5 7 -4 7 -9 21 -15 31 -13 9 1 15 -2 11 -7 -3 -5 -10 -7
-15 -4 -5 4 -9 1 -9 -5 0 -13 32 -9 42 5 5 6 8 5 8 -2 0 -15 56 -18 65 -3 3 5
15 6 28 1 20 -7 81 -9 347 -14 55 -1 100 2 100 6 0 5 5 5 11 1 15 -9 89 -11
89 -2 0 3 -6 8 -12 10 -7 3 10 5 37 5 46 1 47 0 15 -7 l-35 -7 35 -3 c90 -6
110 -5 110 8 0 15 16 16 26 0 5 -7 2 -8 -7 -3 -8 5 -10 4 -6 0 12 -14 36 -14
31 -1 -3 7 4 12 16 12 21 0 28 -12 10 -18 -5 -1 24 -4 66 -5 83 -2 94 3 25 11
-23 2 -46 8 -49 11 -4 4 17 4 47 1 30 -3 57 -9 60 -13 8 -11 35 -10 43 2 5 6
8 6 8 -1 0 -14 42 -13 52 1 5 7 8 6 8 0 0 -16 47 -17 53 -1 3 7 16 12 29 11
13 -1 26 5 30 14 6 12 7 12 5 -4 -2 -15 -10 -20 -30 -20 -15 1 -27 -4 -27 -10
0 -7 122 -11 366 -13 233 -2 364 0 360 6 -8 13 24 21 49 12 17 -7 16 -8 -10
-12 -16 -3 13 -6 65 -7 256 -6 328 -5 324 1 -2 4 0 10 6 13 6 4 9 1 8 -6 -2
-8 12 -13 40 -15 23 -2 40 1 38 5 -3 3 4 7 14 7 10 0 16 -4 14 -8 -8 -13 31
-9 45 5 11 10 12 9 7 -1 -6 -10 1 -12 31 -10 21 2 45 8 52 13 10 5 12 4 7 -3
-10 -16 7 -15 23 0 8 8 11 8 8 2 -4 -7 2 -14 14 -17 16 -4 18 -3 9 8 -8 10 -8
15 2 21 7 4 9 3 5 -2 -13 -14 55 -32 92 -23 18 4 45 3 58 -2 22 -8 24 -7 18
13 -3 13 -3 18 2 13 9 -12 28 -13 38 -3 4 4 23 -1 42 -10 33 -16 36 -16 49 3
12 16 14 17 14 2 0 -9 7 -17 15 -17 9 0 12 6 9 17 -4 12 -3 14 3 6 5 -7 23
-13 41 -15 18 -1 32 -6 32 -11 0 -6 5 -6 13 0 6 5 41 8 77 7 128 -4 275 -6
285 -4 6 1 13 1 18 0 17 -4 85 -3 93 3 6 3 15 2 22 -1 6 -4 37 -7 69 -5 36 1
60 -3 65 -10 6 -9 8 -9 8 1 0 6 9 12 21 12 13 0 18 -4 13 -12 -6 -10 -5 -10 7
-1 19 15 122 16 112 0 -3 -6 4 -3 17 6 18 12 27 14 37 5 9 -7 17 -7 28 2 8 7
15 8 15 3 0 -13 43 -11 52 2 5 6 8 6 8 -2 0 -7 15 -9 45 -6 40 4 44 2 39 -14
-6 -17 -6 -17 7 -1 11 13 27 17 67 15 28 -1 52 1 52 5 0 4 11 4 23 -1 13 -5
30 -5 37 -1 8 5 18 6 23 3 15 -9 188 -13 183 -4 -3 5 1 11 9 14 8 4 12 1 9 -6
-4 -10 57 -12 283 -10 159 1 299 2 313 2 27 -1 68 -1 113 1 15 1 27 5 27 9 0
5 -95 7 -210 5 -116 -2 -210 1 -210 5 0 12 52 13 498 14 227 0 408 4 401 8 -7
4 -38 6 -69 5 -41 -3 -49 -1 -31 5 13 5 38 9 55 8 17 0 85 2 151 6 173 11 253
9 272 -7 12 -9 15 -10 9 -1 -5 9 1 13 23 13 16 0 32 -6 34 -13 4 -9 6 -9 6 1
1 7 14 12 31 12 17 0 30 -5 30 -12 0 -9 3 -9 8 -2 7 11 92 15 92 4 0 -8 37 -6
46 2 3 3 18 3 32 -1 15 -4 140 -6 277 -4 298 4 316 4 327 -3 4 -3 8 0 8 6 0 6
5 8 13 3 6 -4 55 -9 107 -10 52 -1 111 -4 130 -6 19 -2 41 1 49 7 11 8 13 8 7
-1 -5 -9 0 -13 16 -14 13 0 70 -2 128 -5 93 -3 122 -6 205 -17 11 -1 23 2 27
8 5 7 13 6 26 -1 10 -7 33 -11 50 -9 27 2 30 0 21 -11 -17 -21 -5 -17 22 7 13
12 25 16 27 10 2 -6 8 -9 13 -6 5 4 7 0 4 -7 -4 -10 10 -13 54 -14 47 0 58 2
54 14 -5 11 4 13 43 10 27 -2 55 -8 63 -12 10 -6 12 -5 7 2 -4 7 -3 12 3 12 5
0 13 -5 16 -10 4 -6 12 -7 18 -3 7 4 19 6 28 5 9 -2 21 3 27 10 8 11 6 14 -9
14 -10 0 -19 -3 -19 -6 0 -4 -21 -4 -47 0 -27 3 -63 5 -80 4 -18 -1 -33 3 -33
8 0 6 -7 8 -15 4 -8 -3 -15 -1 -15 5 0 6 21 7 56 4 39 -5 60 -2 72 7 9 7 13 8
9 2 -11 -19 477 -8 545 12 14 4 16 1 11 -13 -8 -23 1 -15 16 15 11 21 11 22
-16 17 -26 -5 -27 -5 -5 5 26 11 46 5 36 -12 -4 -7 8 -9 34 -5 23 2 44 2 48
-2 8 -9 113 -7 107 1 -6 10 1 10 31 -2 15 -5 26 -6 26 0 0 5 12 5 30 0 17 -5
30 -6 30 -3 0 3 6 1 13 -5 7 -6 38 -10 68 -8 29 2 45 1 35 -3 -16 -6 -14 -10
16 -24 40 -19 151 -28 170 -14 9 6 7 7 -5 3 -11 -3 -16 -2 -12 4 10 17 35 11
36 -7 0 -16 1 -16 8 1 7 19 8 19 14 1 4 -10 10 -15 14 -12 3 4 13 1 21 -6 10
-7 13 -8 9 -1 -4 8 2 11 17 10 13 0 22 -4 19 -8 -2 -5 1 -8 6 -8 6 0 11 6 11
13 0 7 3 8 8 2 4 -6 65 -10 154 -10 81 0 140 4 132 8 -8 4 -19 5 -24 2 -6 -3
-10 -4 -10 -1 0 3 10 10 21 17 17 9 20 8 14 -2 -6 -9 -3 -10 11 -5 10 4 49 8
86 9 52 2 64 -1 56 -11 -8 -9 -4 -11 19 -9 16 2 35 7 43 12 10 6 12 3 7 -14
-3 -13 -3 -20 0 -17 4 3 13 0 21 -7 13 -10 15 -9 10 4 -3 9 -2 22 4 30 8 11 9
11 5 -2 -3 -9 -1 -22 4 -30 6 -10 9 -11 9 -1 0 9 5 10 19 2 12 -6 22 -6 25 -1
3 5 15 7 25 4 10 -3 22 0 25 6 5 7 -4 9 -24 7 -17 -2 -32 0 -35 3 -2 4 14 8
36 9 28 2 39 -1 39 -12 0 -18 28 -15 41 5 7 12 12 7 11 -11 0 -3 17 -5 39 -5
21 0 39 4 39 8 0 5 4 6 9 3 5 -4 21 -2 35 4 17 6 26 6 26 0 0 -6 5 -10 11 -10
5 0 8 4 5 9 -3 5 5 11 19 13 14 3 25 2 25 -2 0 -4 10 -7 23 -6 12 1 25 -3 30
-9 4 -6 10 -5 16 4 5 8 16 11 24 8 8 -3 26 1 41 8 15 8 24 10 21 5 -8 -13 16
-17 59 -9 22 4 80 6 130 4 50 -1 99 2 110 7 14 8 17 7 11 -3 -6 -9 0 -11 25
-6 18 4 39 7 47 7 8 0 11 5 7 12 -5 7 -3 8 7 2 24 -15 62 -16 70 -2 7 10 9 10
9 0 0 -9 5 -10 19 -3 10 6 21 7 25 4 9 -10 37 -13 31 -4 -2 4 21 7 51 7 31 -1
57 1 59 4 2 3 35 6 73 5 39 0 68 3 66 6 -2 3 27 9 64 13 37 3 82 8 100 11 23
3 31 1 27 -8 -4 -7 -1 -5 7 3 7 8 24 15 38 14 14 0 36 3 50 7 14 4 73 11 132
14 73 5 106 10 104 18 -2 7 -1 9 1 4 8 -13 56 -7 77 10 20 17 20 17 7 0 -15
-18 -2 -24 16 -6 7 7 13 7 17 0 4 -5 14 -7 24 -4 9 3 14 3 11 -1 -8 -8 -43
-17 -94 -21 -51 -5 -67 -9 -83 -19 -7 -4 -19 -3 -27 4 -8 6 -18 9 -23 6 -14
-8 -82 -20 -114 -19 -15 0 -25 -3 -23 -7 4 -6 -19 -11 -112 -22 -7 -1 -10 -4
-8 -8 2 -4 28 -6 57 -5 29 2 64 3 78 4 20 1 22 3 10 11 -13 9 -13 10 0 10 9 0
22 -6 29 -13 11 -10 12 -9 6 2 -6 11 -2 13 18 9 15 -3 28 0 30 6 3 8 9 7 20
-2 9 -8 21 -11 27 -7 5 3 10 0 10 -7 0 -10 3 -9 10 2 5 8 12 11 16 7 4 -4 19
0 33 9 15 11 26 13 28 7 2 -6 13 -9 23 -6 11 3 17 10 13 16 -3 6 -1 7 6 3 6
-4 19 -2 27 5 14 12 29 15 94 18 29 2 32 4 15 11 -11 5 -18 9 -15 10 17 7 188
4 184 -2 -7 -11 37 -10 54 1 8 4 12 12 10 16 -1 4 8 10 22 11 21 3 22 2 8 -6
-10 -6 -15 -18 -12 -28 5 -14 4 -15 -5 -2 -9 12 -11 13 -11 1 0 -8 -3 -11 -6
-8 -11 10 -45 -13 -38 -25 5 -7 2 -8 -7 -2 -21 13 -39 14 -36 1 1 -7 -17 -12
-48 -13 -73 -2 -159 -14 -168 -23 -4 -4 21 -6 55 -5 35 2 63 4 63 4 0 1 18 3
40 5 134 11 173 18 168 31 -3 10 3 14 20 14 14 0 28 4 31 9 3 4 -4 8 -16 7
-12 0 -23 6 -25 14 -3 9 -1 11 4 4 5 -7 22 -7 51 -2 47 10 59 32 13 25 -17 -3
-37 0 -46 6 -12 10 -7 11 27 9 24 -1 53 -3 66 -3 12 -1 22 -6 22 -11 0 -5 -4
-7 -9 -3 -5 3 -12 1 -16 -5 -3 -5 9 -9 30 -8 27 1 33 4 21 10 -21 12 -11 29
11 21 10 -4 14 -2 9 5 -3 6 -1 14 5 18 7 4 9 3 5 -4 -3 -6 -2 -13 4 -17 6 -3
13 1 16 10 6 14 9 14 23 1 13 -12 38 -14 72 -7 4 0 9 7 12 15 4 10 -5 13 -34
13 -22 0 -44 4 -49 9 -5 5 12 8 40 8 68 -2 72 -3 66 -13 -3 -5 1 -12 10 -15
17 -6 12 6 -15 38 -15 18 -15 18 5 8 30 -16 137 -18 142 -4 2 7 8 9 14 6 15
-9 75 -14 273 -20 99 -3 182 -10 183 -15 2 -5 8 -9 13 -9 6 0 8 4 5 9 -3 5 2
15 11 22 14 11 15 11 9 1 -6 -11 1 -13 35 -11 24 2 44 -1 44 -7 0 -5 -12 -9
-27 -9 -20 0 -24 -3 -16 -12 8 -9 7 -13 -3 -14 -8 0 -5 -4 6 -8 11 -5 25 -4
33 1 8 7 12 7 12 -2 0 -8 3 -10 7 -7 3 4 12 2 19 -4 7 -6 43 -11 81 -11 110
-1 135 1 128 12 -3 5 -13 6 -21 3 -9 -3 -20 0 -25 8 -5 8 -9 9 -9 4 0 -6 -15
-12 -33 -13 -25 -2 -33 2 -34 16 -1 13 6 18 27 17 23 0 26 -2 17 -14 -9 -10
-3 -9 21 3 28 14 36 15 50 4 12 -10 14 -10 8 0 -5 9 2 12 26 12 27 -1 30 -2
15 -11 -9 -6 -15 -14 -12 -20 4 -5 1 -9 -5 -9 -6 0 -9 -4 -6 -9 3 -5 23 -7 43
-4 21 2 63 4 93 3 42 -1 52 2 43 11 -6 6 -24 12 -40 12 -17 1 -30 7 -30 14 0
7 4 10 8 7 4 -2 9 1 11 8 4 10 10 10 31 1 16 -8 27 -9 27 -3 0 6 7 10 15 10 8
0 12 -6 9 -13 -2 -7 4 -13 16 -14 22 -2 27 12 8 20 -7 3 4 6 24 6 20 1 40 -4
43 -9 4 -7 -2 -9 -19 -4 -14 3 -26 2 -26 -3 0 -11 37 -10 63 2 17 7 64 3 115
-11 16 -5 22 -3 20 7 -2 7 6 14 17 16 17 2 18 2 2 -5 -16 -7 -16 -9 3 -25 11
-9 37 -20 58 -22 29 -4 33 -3 19 5 -9 6 -22 8 -27 5 -6 -3 -10 -1 -10 4 0 6
16 11 35 11 21 0 35 5 35 13 0 6 10 12 23 12 12 1 43 4 70 8 26 4 47 3 47 -2
0 -12 -48 -23 -63 -15 -9 5 -9 4 0 -6 6 -7 23 -13 37 -13 14 0 26 -3 26 -8 0
-5 -25 -9 -57 -9 -66 0 -68 -7 -3 -10 72 -4 83 -2 76 15 -7 19 3 19 23 1 18
-16 115 -11 105 5 -3 5 4 9 15 9 12 0 21 5 21 11 0 5 -4 7 -10 4 -5 -3 -10 -1
-10 4 0 6 12 11 28 12 15 0 37 2 49 3 12 1 28 -1 35 -6 9 -5 6 -8 -9 -9 -13
-1 -32 -2 -42 -3 -24 -1 -48 -23 -36 -33 4 -5 10 -3 12 3 2 6 15 9 30 6 17 -3
24 -1 19 6 -7 11 50 9 62 -2 3 -3 12 0 20 7 13 9 14 9 8 0 -5 -9 -2 -11 11 -6
39 13 36 18 -12 24 -36 4 -23 5 45 6 52 0 85 -2 73 -4 -15 -3 -23 -11 -23 -25
0 -12 3 -18 6 -15 4 3 16 1 28 -5 19 -10 20 -10 7 5 -12 15 -11 17 3 17 11 0
15 5 10 12 -6 10 -4 10 7 1 17 -17 59 -17 59 0 0 8 3 8 8 2 4 -6 13 -10 20 -9
6 1 17 2 23 3 5 0 7 5 4 11 -4 6 1 7 12 3 27 -9 43 -24 37 -34 -3 -5 -1 -9 4
-9 15 0 22 28 9 34 -20 8 25 10 133 7 44 -1 60 -4 51 -10 -12 -8 -9 -11 12
-17 33 -8 44 0 28 20 -11 13 -2 15 66 13 51 -1 77 2 76 9 -1 6 5 11 12 11 11
0 12 -4 4 -14 -11 -12 -2 -18 24 -14 4 0 7 -4 7 -10 0 -6 5 -7 13 -2 19 12
274 22 297 12 8 -4 24 -1 34 7 10 7 24 10 30 6 6 -4 20 -7 30 -7 11 0 21 -6
24 -14 3 -9 0 -11 -9 -6 -8 5 -11 5 -7 0 4 -4 2 -15 -5 -23 -10 -13 -9 -14 3
-7 8 5 23 8 33 7 10 -2 24 2 32 8 14 12 39 5 31 -8 -2 -4 47 -7 109 -7 62 0
111 3 108 7 -5 10 11 10 20 1 10 -9 56 -10 51 -1 -3 4 1 8 8 9 7 1 -3 5 -22 9
-19 5 -54 5 -77 1 -24 -5 -43 -5 -43 -2 0 4 -18 6 -40 4 -22 -1 -40 2 -40 6 0
5 8 8 18 8 48 0 63 4 56 14 -5 8 -1 8 14 0 25 -13 52 -14 52 -2 0 5 -8 12 -17
14 -10 2 -3 3 15 2 18 -2 38 -8 45 -14 11 -8 59 -9 135 -2 8 0 10 6 6 13 -6
10 -3 9 8 0 24 -19 114 -21 110 -3 -2 11 0 12 11 3 8 -7 16 -9 20 -6 5 5 109
8 132 4 6 -2 15 -1 20 0 6 1 7 -1 3 -5 -8 -9 16 -35 32 -35 6 0 9 4 6 9 -3 5
1 14 8 20 10 8 16 9 21 1 3 -6 11 -7 17 -4 5 3 49 7 96 8 64 1 94 -2 112 -14
15 -9 21 -10 17 -3 -5 7 -4 13 2 13 5 0 14 -8 20 -17 7 -14 12 -15 24 -4 9 7
37 13 64 14 26 1 54 7 60 13 12 11 146 12 215 1 17 -3 25 0 22 7 -3 8 17 11
68 8 90 -4 73 -4 196 2 69 3 100 1 96 -6 -4 -6 2 -6 15 1 14 8 21 8 21 1 0 -5
19 -10 43 -10 31 0 38 3 27 10 -11 8 -9 9 10 5 32 -7 54 -8 113 -1 30 3 45 2
42 -4 -4 -6 5 -5 19 1 14 7 33 8 43 4 10 -5 23 -7 28 -5 31 8 115 9 115 1 0
-11 19 -9 39 4 10 5 16 4 19 -3 2 -7 9 -9 15 -5 7 4 26 8 42 8 17 0 36 4 42 8
8 5 11 3 8 -5 -4 -10 12 -12 74 -8 44 3 90 2 103 -1 13 -3 29 -1 36 4 8 6 12
6 12 -2 0 -7 5 -9 10 -6 6 4 7 12 3 18 -4 8 -1 7 9 -1 13 -10 17 -10 21 0 4
11 6 10 6 0 1 -7 6 -10 11 -7 6 3 10 2 10 -3 0 -5 9 -12 21 -15 15 -4 19 -2
15 9 -3 8 -1 14 3 14 5 0 18 3 28 6 16 6 15 5 -2 -9 -11 -8 -17 -19 -13 -22
12 -13 134 -5 158 10 9 5 11 4 6 -3 -10 -16 7 -15 23 1 11 9 13 9 7 0 -4 -7
-2 -13 3 -13 6 0 11 3 11 8 0 4 30 6 68 4 37 -2 164 -2 282 -2 328 3 430 1
440 -5 6 -4 10 -1 10 6 0 8 4 8 15 -1 12 -10 15 -10 15 1 0 11 2 11 8 1 5 -7
18 -14 31 -17 12 -2 19 0 16 6 -4 5 -10 7 -15 4 -5 -3 -12 0 -16 7 -4 7 -4 10
1 6 4 -4 15 -2 23 5 13 9 14 9 8 0 -4 -8 -1 -13 9 -13 9 0 13 -4 10 -10 -3 -5
-2 -10 3 -10 5 0 12 9 15 20 5 19 37 29 37 11 0 -5 9 -11 20 -14 11 -3 20 -1
20 3 0 5 13 5 29 0 24 -7 31 -5 34 8 4 14 5 13 6 -2 1 -20 1 -20 17 0 8 10 13
13 9 7 -8 -17 7 -17 24 0 9 7 11 7 8 1 -5 -8 6 -12 33 -11 24 1 35 4 27 9 -9
6 -9 8 0 8 6 0 15 -5 18 -11 5 -7 14 -4 26 7 15 13 18 14 14 3 -4 -10 1 -15
14 -15 13 0 17 4 11 11 -10 13 70 12 91 0 9 -6 11 -3 6 8 -3 9 -1 19 5 23 7 4
8 3 4 -4 -4 -7 -3 -12 3 -12 6 0 9 -6 7 -13 -1 -6 -1 -9 1 -4 3 4 14 7 25 7
15 0 19 5 14 17 -6 17 -5 17 7 1 10 -12 27 -16 69 -15 31 1 54 5 52 8 -2 3
-15 5 -29 4 -14 -2 -27 1 -30 5 -3 5 6 7 19 4 14 -2 28 1 32 7 4 8 12 3 21
-12 14 -23 14 -23 10 -2 -5 22 -4 22 25 7 17 -9 27 -11 24 -6 -3 6 1 12 9 16
8 3 15 1 15 -3 0 -5 9 -7 20 -4 13 4 20 0 20 -9 0 -16 51 -19 62 -3 5 7 8 6 8
0 0 -18 103 -13 107 5 3 9 1 11 -4 5 -11 -13 -47 -19 -39 -7 4 6 -5 8 -23 6
-16 -3 -32 -1 -35 4 -3 5 28 9 69 8 41 0 75 -4 75 -9 0 -5 7 -4 15 3 11 9 15
9 15 1 0 -8 6 -9 18 -3 9 5 23 7 31 4 8 -3 11 0 7 7 -5 7 -1 9 9 5 8 -4 14
-11 13 -18 -2 -6 2 -11 7 -11 6 0 10 7 9 15 -1 12 8 14 40 11 23 -2 47 -8 55
-15 12 -9 13 -8 6 3 -6 11 -4 13 8 8 9 -3 19 -1 23 5 5 7 2 8 -6 3 -9 -6 -11
-4 -6 4 6 9 12 8 26 -4 14 -12 20 -13 26 -4 5 8 3 10 -6 4 -9 -5 -11 -4 -6 4
6 8 12 9 20 2 9 -7 17 -7 26 2 9 8 11 9 6 0 -3 -6 -1 -15 5 -19 7 -4 9 -3 5 4
-3 6 -2 13 3 17 5 3 15 -3 21 -12 11 -17 11 -17 6 0 -5 14 -2 17 13 12 13 -4
23 0 30 12 6 10 11 13 11 8 0 -6 -6 -17 -12 -23 -10 -10 -8 -12 9 -9 13 2 26
7 30 12 5 4 2 5 -6 0 -10 -6 -12 -4 -7 4 6 9 11 9 22 0 7 -6 11 -16 7 -22 -3
-6 -1 -7 6 -3 6 4 8 13 4 19 -4 7 2 5 12 -3 17 -14 18 -13 12 4 -7 18 -6 18
19 1 15 -9 23 -12 20 -6 -4 6 0 11 9 11 10 0 13 -5 9 -12 -4 -7 4 -3 18 10
l26 23 17 -23 c11 -14 15 -16 12 -6 -4 10 -1 20 5 24 6 4 9 3 6 -2 -3 -5 0
-15 8 -22 10 -9 14 -9 14 -1 0 6 6 9 14 6 8 -3 17 1 20 9 3 8 11 14 18 13 10
0 10 -2 1 -6 -23 -9 -14 -20 12 -15 14 2 25 9 25 16 0 6 4 4 9 -4 6 -8 7 -18
4 -24 -3 -5 -1 -6 5 -2 7 4 12 13 12 21 0 8 4 17 10 20 5 3 7 0 4 -9 -4 -11 4
-14 41 -14 25 0 59 3 75 8 17 5 30 5 30 1 0 -4 7 -8 15 -8 8 0 12 4 9 9 -3 4
0 8 5 8 6 0 11 -6 11 -12 0 -9 4 -8 10 2 5 8 10 10 10 4 0 -11 35 -12 46 -1 4
3 15 2 25 -4 20 -10 26 0 9 17 -8 8 -6 15 6 25 12 9 15 10 10 1 -6 -11 11 -17
37 -13 4 0 7 -3 7 -9 0 -5 -4 -10 -10 -10 -5 0 -10 -4 -10 -8 0 -4 18 -8 39
-8 22 1 37 4 35 8 -3 4 11 4 31 1 22 -4 41 -1 52 8 9 8 14 9 10 3 -4 -8 5 -11
30 -10 23 1 38 6 40 16 3 11 2 12 -4 3 -6 -9 -12 -7 -21 7 -7 12 -8 20 -2 20
5 0 10 -5 10 -12 0 -9 3 -9 12 0 18 18 30 14 23 -7 -3 -11 0 -23 6 -27 7 -4 9
-3 6 3 -4 6 0 14 9 17 8 3 12 10 9 16 -3 5 -2 10 3 10 6 0 12 -7 16 -15 4 -12
10 -13 31 -3 19 9 22 14 13 20 -10 7 -9 8 2 4 8 -3 23 -9 33 -12 9 -4 17 -13
17 -20 0 -8 10 -14 25 -14 14 0 25 5 25 11 0 6 -6 9 -14 6 -8 -3 -16 0 -19 6
-3 9 20 12 87 11 50 -1 97 3 104 9 8 6 12 6 12 -1 0 -5 7 -13 16 -16 8 -3 13
-2 10 2 -2 4 7 12 20 19 17 8 26 8 31 1 3 -6 1 -8 -4 -5 -6 4 -16 0 -22 -7
-10 -12 -8 -13 8 -9 16 4 21 0 22 -13 1 -15 3 -13 8 5 l6 23 14 -26 c8 -14 19
-26 24 -26 6 0 2 9 -7 19 -13 14 -14 21 -5 27 7 4 10 3 7 -2 -3 -5 4 -18 15
-28 17 -16 19 -17 14 -3 -7 18 8 24 18 7 5 -8 11 -8 20 0 8 6 16 7 19 2 6 -11
99 -8 118 4 7 4 4 -3 -7 -17 -11 -13 -13 -19 -5 -13 8 6 23 10 33 8 18 -2 18
-1 2 16 -13 15 -26 18 -56 14 -26 -4 -46 -1 -56 8 -12 9 -15 9 -9 0 9 -14 -3
-16 -24 -2 -12 8 -12 10 -1 10 29 0 0 13 -34 16 -24 1 -33 -2 -28 -10 4 -6 -1
-5 -10 2 -21 18 -285 24 -306 8 -12 -9 -13 -8 -6 3 6 11 4 13 -7 9 -8 -4 -21
-2 -29 3 -9 5 46 9 141 10 85 0 171 3 190 5 78 9 146 9 159 -1 11 -7 13 -7 8
2 -5 8 0 12 15 11 45 -2 67 2 80 14 18 18 56 18 62 2 4 -9 -2 -14 -17 -15 -42
-1 -67 -6 -74 -12 -3 -4 6 -7 20 -7 15 0 27 -5 27 -11 0 -6 -9 -9 -20 -6 -11
3 -23 1 -26 -5 -4 -6 12 -8 45 -5 28 3 51 1 51 -4 0 -5 -20 -9 -45 -9 -25 0
-45 -3 -45 -7 0 -5 34 -8 75 -7 41 0 72 -3 69 -8 -3 -4 -10 -6 -15 -3 -5 4 -9
2 -9 -4 0 -5 14 -9 30 -9 17 1 30 5 30 10 0 5 33 7 74 5 70 -4 74 -3 63 14 -6
10 -15 15 -21 12 -5 -4 -6 -1 -1 6 5 9 16 3 37 -21 16 -18 27 -28 24 -22 -3 7
11 9 41 8 38 -3 43 -1 29 9 -14 10 -10 12 21 11 69 -3 67 -2 52 -21 -11 -15
-9 -14 9 1 12 11 38 20 59 20 35 1 37 3 39 38 3 36 2 36 -26 28 -18 -5 -32 -5
-35 1 -4 5 -15 5 -27 -2 -17 -9 -20 -9 -16 3 6 15 -28 19 -49 5 -7 -4 -22 -2
-34 5 -16 10 -23 10 -26 1 -3 -8 -13 -9 -33 -3 -19 5 -30 5 -33 -3 -2 -6 -6
-4 -10 5 -4 13 -1 16 18 12 14 -2 50 0 80 4 32 5 58 5 61 0 3 -4 11 -5 17 -1
6 4 32 8 57 9 25 1 48 3 53 3 4 1 7 44 7 96 l0 95 -16000 0 -16000 0 0 -279z
m19974 -199 c3 -5 0 -9 -7 -9 -11 -1 -48 -7 -107 -18 -14 -3 -54 -8 -90 -11
-36 -3 -78 -7 -95 -10 -16 -2 -65 -6 -109 -9 -43 -3 -82 -8 -87 -11 -5 -3 -53
-7 -107 -9 -53 -3 -108 -8 -121 -11 -19 -6 -22 -4 -16 7 7 11 6 12 -6 3 -8 -7
-23 -8 -34 -4 -11 4 -26 5 -32 3 -7 -3 -13 0 -13 6 0 6 12 11 28 12 44 1 76 9
83 20 9 14 20 13 30 -3 5 -7 9 -8 9 -2 0 7 32 12 93 12 50 1 92 2 92 2 0 1 10
3 23 6 13 2 22 -1 22 -9 0 -7 3 -8 8 -2 4 6 36 11 72 12 143 6 345 23 357 32
1 0 4 -3 7 -7z"/>
</g>
</svg>
