<?xml version="1.0" standalone="no"?>
<!DOCTYPE svg PUBLIC "-//W3C//DTD SVG 20010904//EN"
 "http://www.w3.org/TR/2001/REC-SVG-20010904/DTD/svg10.dtd">
<svg version="1.0" xmlns="http://www.w3.org/2000/svg"
 width="3200.000000pt" height="93.000000pt" viewBox="0 0 3200.000000 93.000000"
 preserveAspectRatio="xMidYMid meet">
<metadata>
Created by potrace 1.13, written by Peter Selinger 2001-2015
</metadata>
<g transform="translate(0.000000,93.000000) scale(0.100000,-0.100000)"
fill="#000000" stroke="none">
<path d="M12067 782 c-20 -2 -49 -10 -65 -18 -27 -14 -26 -14 26 -14 31 0 52
-4 52 -11 0 -7 -10 -9 -25 -5 -14 4 -25 2 -25 -4 0 -6 41 -10 107 -10 123 0
132 -11 12 -16 -45 -2 -87 -8 -92 -13 -8 -8 -6 -11 6 -11 9 0 17 -4 17 -9 0
-5 -10 -9 -22 -8 -13 0 -61 -3 -108 -8 -47 -4 -98 -8 -115 -8 -16 0 -33 -5
-37 -11 -5 -7 -41 -10 -105 -8 -68 1 -93 -1 -83 -8 10 -7 -15 -8 -80 -3 -52 5
-184 7 -292 6 -117 -1 -198 2 -198 8 0 9 -33 13 -42 4 -2 -3 -126 -7 -274 -10
-148 -3 -296 -7 -329 -8 -33 -1 -66 2 -72 7 -8 5 -13 4 -13 -3 0 -8 -27 -10
-92 -6 -50 3 -95 8 -99 11 -13 8 -89 -8 -83 -17 3 -5 -2 -9 -10 -9 -8 0 -18 5
-21 10 -3 6 -29 10 -56 10 -28 0 -48 -4 -45 -9 3 -5 -31 -9 -79 -9 -46 1 -82
4 -79 9 2 4 -15 7 -38 7 -30 0 -37 -3 -23 -8 19 -7 19 -7 -4 -15 -12 -4 -50
-7 -82 -7 -81 0 -74 -24 9 -31 12 0 22 -4 22 -8 0 -11 -122 -19 -170 -10 -43
7 -44 7 -15 13 39 8 65 7 65 -4 0 -4 11 -8 25 -8 14 0 25 5 25 11 0 6 -7 8
-16 5 -8 -3 -13 -2 -10 3 9 13 -19 32 -38 25 -10 -4 -18 0 -22 10 -3 9 -13 16
-21 16 -8 0 -11 -4 -8 -10 6 -9 -147 -18 -200 -11 -92 11 -127 12 -121 2 4 -6
3 -11 -3 -11 -5 0 -12 4 -15 8 -3 5 -52 7 -108 5 -138 -5 -252 -4 -313 3 -31
3 -67 -1 -95 -10 l-45 -14 60 -2 c112 -4 136 -7 147 -18 8 -8 -19 -10 -104 -6
-78 4 -118 2 -122 -5 -5 -7 -13 -7 -24 -1 -9 5 -38 12 -65 15 -26 4 -45 10
-42 15 3 5 22 6 43 4 35 -5 36 -5 18 10 -19 15 -18 16 12 16 45 0 40 19 -8 26
-54 9 -51 24 4 21 24 -1 42 -5 40 -8 -3 -6 41 -3 134 7 58 7 71 23 20 25 -107
4 -136 4 -161 -3 -18 -4 -25 -3 -21 4 5 7 -2 9 -20 6 -14 -3 -29 -2 -32 3 -3
5 -29 7 -59 4 -30 -2 -57 0 -60 5 -3 6 -16 5 -31 0 -31 -12 -37 -12 -30 -1 7
11 -34 22 -48 13 -6 -3 0 -9 14 -13 19 -6 12 -8 -25 -8 -27 0 -71 -3 -96 -7
-29 -3 -55 -1 -69 6 -14 7 -26 8 -32 2 -13 -13 -60 -2 -54 13 4 10 -3 11 -31
3 -20 -5 -57 -7 -82 -4 -80 11 -311 16 -311 6 0 -4 6 -11 13 -14 6 -4 2 -4
-10 -2 -13 2 -26 0 -29 -5 -3 -5 -44 -8 -92 -8 -48 1 -74 4 -58 6 l29 5 -27
13 c-19 10 -54 13 -124 10 -53 -2 -105 -4 -114 -5 -10 0 -18 -8 -18 -17 -1
-17 -1 -17 -14 0 -14 18 -32 24 -21 7 3 -5 -1 -10 -10 -10 -9 0 -13 4 -10 10
3 5 1 10 -5 10 -6 0 -13 -7 -16 -15 -4 -8 -11 -12 -16 -9 -6 4 -5 10 3 15 10
6 4 9 -18 9 -18 0 -33 -5 -33 -11 0 -5 4 -8 9 -4 5 3 12 1 15 -3 3 -5 -76 -9
-182 -9 -103 0 -173 3 -157 7 25 7 22 8 -20 8 -36 0 -45 -2 -30 -8 15 -6 7 -9
-32 -11 -29 -1 -57 -3 -63 -4 -5 -1 -22 -3 -37 -4 -25 -2 -26 -3 -8 -10 14 -6
4 -10 -38 -12 -56 -4 -79 5 -34 14 15 3 12 5 -11 6 -18 0 -31 -3 -27 -8 9 -16
-9 -20 -48 -11 -20 4 -39 5 -41 1 -2 -3 -25 -6 -50 -6 -25 0 -46 -3 -46 -7 0
-6 -29 -4 -102 7 -20 3 -28 0 -28 -10 0 -12 -7 -14 -26 -9 -15 4 -25 3 -21 -2
3 -5 -27 -9 -66 -8 -40 1 -62 -1 -49 -3 12 -3 20 -9 17 -14 -4 -5 3 -9 14 -9
12 0 21 -4 21 -10 0 -5 -4 -10 -10 -10 -17 0 -11 -28 8 -33 9 -3 6 -4 -9 -4
-22 1 -25 5 -21 27 l5 25 -23 -20 c-12 -11 -25 -20 -29 -20 -3 0 -5 -4 -3 -8
1 -5 -11 -6 -28 -4 -16 3 -32 1 -36 -4 -3 -5 -10 -7 -15 -3 -5 3 -15 1 -22 -4
-7 -6 -34 -11 -62 -12 -67 -2 -73 -1 -55 10 13 8 12 10 -3 10 -10 0 -15 5 -12
11 4 6 -2 5 -14 -3 -16 -10 -27 -10 -53 0 -25 9 -34 9 -40 -1 -5 -8 -8 -7 -8
5 0 30 -20 30 -48 1 -15 -15 -24 -24 -19 -19 4 6 7 14 7 18 0 11 -38 10 -45
-2 -4 -6 -13 -5 -25 2 -14 9 -22 9 -34 -1 -9 -8 -16 -9 -16 -3 0 12 -59 22
-66 10 -3 -5 -11 -5 -17 -1 -7 4 -24 6 -39 4 -19 -2 -30 4 -38 19 -12 22 -12
22 -26 2 -19 -27 -58 -22 -94 13 -25 24 -30 26 -36 12 -3 -9 -3 -21 1 -27 4
-6 -7 -10 -27 -11 -18 -1 -46 -3 -63 -5 -53 -5 -117 6 -112 20 4 9 -2 11 -20
8 -19 -4 -25 0 -30 18 -4 17 -11 21 -29 17 -13 -2 -24 0 -24 5 0 6 -8 7 -17 3
-10 -4 -65 -8 -123 -10 -58 -2 -109 -4 -115 -5 -28 -6 -65 1 -63 13 2 7 -6 11
-20 10 -12 -2 -22 2 -22 7 0 5 -7 7 -17 3 -14 -5 -13 -8 5 -14 29 -11 28 -29
-2 -29 -33 0 -57 -10 -50 -21 6 -10 -23 -13 -115 -10 -36 0 -62 -1 -59 -5 6
-5 42 -9 121 -13 15 0 27 -6 27 -12 0 -6 -6 -9 -13 -6 -8 3 -20 1 -28 -4 -10
-6 -6 -9 16 -10 17 -1 33 -1 38 0 4 0 7 -2 7 -7 0 -4 -23 -7 -51 -6 -29 0 -72
-3 -98 -7 -30 -4 -48 -3 -53 5 -5 8 -15 8 -37 0 -16 -7 -41 -9 -54 -7 -23 5
-25 2 -20 -18 6 -21 5 -23 -10 -10 -9 7 -14 18 -10 24 4 6 0 8 -10 4 -11 -4
-14 -2 -10 9 4 10 -2 14 -22 14 -27 0 -28 0 -10 -20 14 -15 15 -20 4 -20 -8 0
-19 10 -24 23 -7 15 -17 21 -35 20 -26 -3 -240 -2 -320 0 -41 2 -45 0 -42 -20
2 -13 -2 -23 -7 -23 -6 0 -11 9 -11 19 0 10 -7 21 -15 25 -17 6 -21 -9 -5 -19
5 -3 10 -12 10 -18 0 -8 -3 -8 -9 1 -6 10 -10 10 -21 -2 -7 -9 -17 -13 -22
-10 -6 4 -5 10 3 15 11 6 11 11 2 20 -18 18 -31 19 -197 19 -83 0 -147 3 -143
7 7 7 23 9 91 12 47 2 23 12 -40 17 -45 3 -63 10 -75 26 -12 15 -18 17 -24 8
-5 -8 -21 -10 -51 -6 -24 3 -44 2 -44 -3 0 -15 -93 -2 -112 16 -17 16 -24 9
-19 -19 3 -18 -17 -6 -22 12 -3 11 -13 20 -22 20 -11 0 -15 -6 -11 -18 6 -16
0 -19 -41 -21 -27 -2 -59 -4 -73 -5 -14 -2 -36 0 -50 4 -14 4 -32 3 -40 -1 -8
-4 -23 -10 -33 -13 -11 -4 -15 -11 -11 -17 5 -9 -2 -10 -24 -6 -17 4 -34 2
-37 -3 -3 -6 -15 -10 -26 -10 -10 0 -19 -4 -19 -10 0 -5 7 -7 15 -4 17 7 21
-11 4 -22 -6 -3 -54 -7 -107 -9 -64 -1 -96 -6 -95 -13 2 -6 -4 -9 -12 -6 -8 4
-15 11 -15 16 0 6 -6 5 -15 -2 -9 -7 -31 -10 -57 -6 -24 3 -51 5 -60 5 -10 1
-18 8 -18 17 0 8 -4 12 -10 9 -5 -3 -10 -1 -10 6 0 8 -6 7 -18 -4 -12 -11 -22
-13 -32 -7 -8 5 -23 10 -33 10 -21 0 -49 -24 -40 -34 4 -3 -1 -6 -9 -6 -10 0
-14 6 -12 18 5 15 -4 17 -66 19 -51 1 -73 -2 -76 -12 -9 -22 -39 -24 -65 -4
-29 22 -45 24 -52 5 -7 -19 -57 -27 -64 -10 -2 7 -11 10 -19 7 -8 -3 -14 1
-14 8 -1 10 -5 9 -14 -3 -13 -18 -62 -26 -52 -9 3 5 -1 15 -10 22 -8 7 -14 8
-13 3 5 -27 -3 -32 -49 -30 -26 1 -54 6 -62 11 -8 5 -17 2 -25 -8 -10 -14 -12
-13 -23 4 -7 11 -10 24 -7 29 4 6 0 10 -8 10 -10 0 -13 -7 -10 -20 4 -17 1
-20 -18 -17 -13 2 -22 8 -19 13 3 5 9 8 13 6 5 -1 7 3 5 10 -3 7 -19 14 -36
15 -29 3 -32 1 -27 -20 10 -37 -17 -53 -56 -33 -36 18 -63 20 -88 7 -10 -6
-23 -6 -32 0 -12 8 -11 11 4 20 23 14 22 29 -3 29 -11 0 -20 -5 -20 -11 0 -6
-5 -7 -12 -2 -29 18 -48 13 -48 -12 0 -24 -1 -24 -88 -23 -48 0 -91 -1 -97 -2
-22 -5 -35 1 -35 18 0 10 -3 13 -8 6 -4 -6 -14 -11 -22 -12 -8 0 -34 -4 -57
-8 -29 -4 -43 -3 -43 4 0 6 -7 9 -16 5 -10 -4 -17 1 -21 16 -3 11 -12 21 -20
21 -12 0 -13 -3 -5 -13 7 -8 7 -18 2 -27 -7 -11 -14 -12 -35 -2 -34 16 -40 15
-25 -2 9 -12 8 -15 -9 -13 -12 1 -21 7 -21 14 0 15 -26 17 -35 3 -10 -17 -85
-12 -85 5 0 8 6 16 13 16 6 1 -1 4 -18 8 -22 5 -32 3 -37 -9 -5 -10 -7 -11 -7
-2 -1 10 -5 10 -17 -2 -20 -21 -93 -21 -100 -1 -4 9 -19 15 -35 15 l-29 0 0
-104 c0 -91 2 -105 18 -109 16 -4 16 -5 0 -6 -21 -1 -24 -17 -5 -24 9 -4 9 -6
0 -6 -8 -1 -13 -16 -13 -42 l0 -41 45 4 c29 2 46 -1 50 -9 3 -9 -10 -13 -45
-13 l-50 0 0 -85 0 -85 16000 0 16000 0 0 334 c0 258 -3 335 -12 339 -10 4
-10 6 0 6 8 1 12 19 12 56 l0 55 -1281 -1 c-716 -1 -1275 -5 -1268 -10 8 -5
32 -9 53 -9 22 0 37 -3 33 -6 -3 -3 -54 -7 -112 -8 -81 -1 -110 -5 -119 -16
-8 -11 -31 -15 -81 -15 -38 1 -78 -4 -87 -9 -11 -6 -21 -6 -30 0 -11 9 -72 10
-173 5 l-30 -2 25 -14 25 -14 -35 -2 c-19 -1 -46 -3 -60 -6 -14 -2 -42 -5 -63
-7 -22 -1 -42 -7 -45 -12 -4 -5 -38 -10 -75 -11 -66 -1 -97 -11 -69 -20 26
-10 10 -23 -29 -23 -22 0 -50 -5 -62 -11 l-22 -12 20 20 c11 11 24 18 28 16
12 -7 57 26 57 42 0 11 8 13 29 9 16 -4 32 -1 35 5 5 7 -10 11 -46 12 -90 1
-118 12 -77 28 17 7 19 10 7 10 -20 1 -65 -39 -60 -53 2 -5 -9 -1 -23 8 -15
10 -33 15 -41 12 -8 -3 -12 -2 -9 3 3 5 0 13 -6 17 -6 3 -15 0 -20 -7 -5 -9
-29 -15 -66 -16 -32 0 -58 -2 -58 -3 0 -1 -19 -3 -42 -5 -32 -2 -43 1 -43 11
0 8 3 13 8 13 4 -1 20 -1 37 0 38 1 22 17 -28 25 -37 7 -38 7 -31 -20 5 -20 4
-25 -5 -20 -7 4 -18 3 -26 -4 -9 -7 -15 -8 -20 0 -3 5 -18 10 -33 9 -24 0 -25
-1 -7 -9 18 -8 18 -9 -5 -9 -15 -1 -30 -5 -35 -9 -6 -5 -21 -6 -35 -1 -23 7
-23 7 8 8 17 1 32 6 32 12 0 6 -6 9 -14 6 -8 -3 -20 1 -26 9 -13 15 -35 20
-26 5 10 -16 -36 -20 -81 -8 -36 9 -51 8 -89 -6 -32 -11 -51 -14 -64 -7 -9 5
-27 8 -39 5 -11 -2 -23 0 -26 5 -4 6 -14 4 -25 -3 -16 -9 -24 -9 -40 0 -12 8
-21 9 -25 3 -3 -6 -32 -10 -63 -10 -41 0 -53 3 -42 10 13 8 12 10 -3 10 -10 0
-26 -7 -34 -16 -13 -13 -17 -13 -24 -2 -7 10 -9 10 -9 0 0 -10 -4 -10 -20 0
-10 7 -23 9 -27 5 -4 -5 -2 -12 6 -16 9 -6 7 -10 -9 -14 -18 -5 -21 -2 -17 14
4 15 0 19 -17 19 -14 0 -27 9 -34 23 l-11 22 0 -25 c-1 -18 -4 -21 -10 -11 -7
11 -9 11 -14 0 -3 -8 -6 -3 -6 10 -1 20 -3 21 -16 11 -8 -7 -15 -18 -15 -26 0
-7 -5 -16 -12 -20 -6 -4 -8 -3 -5 3 8 12 -41 25 -91 24 -24 -1 -31 2 -26 11 5
10 4 10 -7 0 -12 -11 -12 -14 1 -22 12 -8 10 -10 -8 -10 -16 0 -21 4 -16 13 6
9 4 9 -7 0 -18 -18 -39 -16 -39 2 0 9 -9 14 -22 13 -13 0 -35 3 -50 7 -20 5
-28 3 -28 -5 0 -12 -3 -12 -102 6 -21 4 -28 1 -28 -11 0 -9 -4 -14 -9 -11 -5
3 -15 -2 -22 -11 -13 -15 -10 -16 29 -11 23 4 42 3 42 -1 0 -12 -88 -13 -95
-1 -3 5 -1 10 4 10 6 0 11 7 11 15 0 18 -16 20 -23 3 -3 -9 -9 -8 -19 5 -12
16 -25 18 -96 14 -74 -3 -82 -2 -88 15 -6 19 -18 17 -20 -3 -1 -5 -2 -11 -3
-13 0 -3 -16 0 -33 5 -28 8 -35 6 -49 -12 -11 -15 -18 -18 -23 -10 -6 9 -11 9
-22 0 -19 -16 -18 -26 6 -32 13 -3 18 -1 13 5 -4 8 6 9 30 5 21 -3 37 -2 37 4
0 5 7 9 15 9 8 0 15 -4 15 -9 0 -5 11 -8 25 -6 14 1 25 -3 25 -9 0 -7 -35 -12
-102 -13 -63 -2 -104 -7 -106 -13 -3 -7 -12 -4 -24 6 -15 15 -21 16 -27 5 -7
-11 -10 -11 -15 0 -5 11 -7 11 -12 1 -3 -6 -12 -12 -20 -12 -9 0 -13 3 -10 8
6 10 -204 8 -227 -3 -13 -5 -22 -2 -32 11 -12 17 -15 17 -32 3 -20 -17 -73
-24 -73 -10 0 5 8 12 18 14 16 4 16 5 -1 6 -10 0 -24 -5 -32 -12 -17 -18 -198
-21 -239 -5 -23 9 -31 9 -34 0 -6 -18 -62 -15 -62 3 0 20 -35 19 -56 -2 -13
-13 -19 -14 -22 -5 -4 14 -42 16 -42 2 0 -5 -11 -10 -25 -10 -14 0 -25 4 -25
9 0 13 -34 23 -54 15 -9 -3 -13 -11 -9 -17 4 -7 0 -8 -11 -4 -10 4 -20 7 -22
7 -3 0 -2 5 1 10 3 6 -3 10 -14 10 -12 0 -21 6 -21 13 0 15 -2 16 -75 21 -28
2 -88 6 -135 10 -79 7 -86 6 -100 -13 -18 -27 -34 -27 -27 -1 6 23 -12 26 -44
10 -10 -6 -19 -7 -19 -3 0 4 -25 8 -56 8 -31 0 -58 3 -61 7 -2 5 10 8 27 8 59
0 20 18 -55 25 -41 4 -72 11 -69 16 3 5 -2 9 -10 9 -9 0 -16 -4 -16 -9 0 -13
-57 -24 -72 -15 -9 6 -5 10 12 15 14 4 -698 7 -1582 8 l-1607 1 -14 -29 c-10
-20 -11 -33 -4 -40 6 -6 -1 -9 -23 -9 -24 1 -28 3 -16 10 9 5 16 19 16 31 -1
21 -1 22 -15 3 -14 -18 -15 -18 -15 -2 0 13 -5 16 -22 10 -13 -4 -26 -11 -29
-16 -4 -6 -9 -6 -13 1 -11 16 -46 13 -46 -4 0 -8 -8 -15 -17 -15 -15 0 -16 2
-3 10 8 5 11 12 7 16 -3 4 -14 1 -24 -7 -11 -9 -14 -10 -9 -1 4 7 2 12 -8 12
-8 0 -18 -5 -21 -10 -4 -6 -11 -8 -16 -5 -5 4 -9 2 -9 -4 0 -12 -32 -3 -41 12
-4 5 -17 -2 -29 -15 -13 -12 -20 -18 -16 -11 13 23 -17 26 -35 4 -25 -30 -94
-27 -94 4 0 29 -53 28 -84 -2 -25 -24 -41 -30 -41 -13 0 6 5 10 10 10 6 0 10
4 10 9 0 5 -34 7 -75 6 -45 -2 -75 1 -75 7 0 6 -15 7 -37 3 -51 -8 -86 -7 -92
4 -4 5 -22 1 -42 -8 -24 -12 -42 -15 -52 -10 -8 5 -30 9 -49 9 -18 0 -63 0
-101 0 -51 0 -69 3 -73 15 -8 19 -24 20 -24 1 0 -11 -18 -14 -87 -14 -49 1
-80 3 -70 5 30 7 18 23 -17 23 -29 0 -33 -3 -29 -20 5 -19 2 -20 -63 -14 -40
3 -81 1 -96 -5 -18 -7 -28 -7 -28 -1 0 14 -64 12 -78 -2 -9 -9 -15 -8 -25 7
-10 13 -16 15 -21 6 -4 -6 -11 -9 -16 -6 -5 3 -18 1 -29 -5 -21 -11 -54 -3
-45 11 3 5 0 9 -5 9 -6 0 -11 -8 -12 -17 0 -14 -3 -13 -11 5 -14 27 -25 28
-33 2 -3 -11 -11 -20 -16 -20 -6 0 -7 4 -4 10 4 6 -2 7 -16 1 -16 -5 -32 -3
-51 8 -23 13 -31 14 -48 4 -24 -15 -70 -17 -70 -3 0 6 -9 10 -20 10 -11 0 -20
-6 -20 -12 0 -9 -4 -8 -10 2 -8 12 -13 13 -30 3 -27 -18 -32 -16 -20 6 5 11 6
22 2 25 -11 7 -1835 6 -1862 -1 -16 -4 -18 -8 -9 -19 6 -8 20 -14 30 -14 11 0
19 -4 19 -10 0 -5 -13 -10 -30 -10 -18 0 -30 5 -30 13 0 7 -9 13 -20 13 -11 0
-20 -4 -20 -8 0 -4 -5 -8 -11 -8 -6 0 -8 7 -4 17 4 13 3 15 -5 7 -18 -18 -2
-41 28 -38 l27 4 -25 -9 c-16 -5 -29 -4 -35 3 -5 6 -26 11 -46 12 -29 0 -36
-3 -32 -15 4 -13 3 -13 -5 -2 -6 8 -21 12 -41 9 -17 -2 -31 -1 -31 3 0 3 -11
9 -25 11 -17 4 -25 1 -25 -8 0 -8 -5 -14 -11 -14 -5 0 -8 4 -5 9 9 13 -31 20
-62 11 l-27 -8 25 -3 c18 -1 13 -4 -15 -8 -32 -6 -45 -3 -62 13 -13 11 -23 15
-23 9 0 -6 6 -14 13 -16 6 -3 2 -6 -11 -6 -13 -1 -33 4 -44 10 -12 6 -44 11
-71 10 -28 0 -47 2 -43 6 7 7 81 13 159 12 26 0 47 5 47 10 0 7 -32 11 -84 11
-46 0 -92 3 -102 7 -10 4 -15 2 -11 -4 4 -6 -10 -7 -41 -3 -41 6 -480 5 -613
-1 -25 -1 -50 0 -55 3 -13 7 -174 -9 -206 -21 -27 -10 -44 -9 -83 4 -16 6 -17
5 -5 -4 12 -8 7 -11 -22 -11 -21 0 -38 5 -38 10 0 6 -5 10 -11 10 -5 0 -8 -4
-5 -9 3 -5 -12 -9 -34 -9 -22 0 -45 -4 -51 -8 -8 -4 -9 -3 -5 4 5 8 -2 12 -21
12 -22 0 -25 -2 -13 -10 12 -8 8 -10 -15 -10 -43 0 -198 -24 -192 -30 3 -3
-20 -6 -51 -8 -30 -2 -64 -8 -74 -13 -10 -5 -18 -6 -18 -2 0 4 -45 7 -100 7
-55 -1 -103 2 -106 7 -3 5 7 9 21 9 15 0 24 4 20 10 -4 6 -10 8 -15 5 -5 -3
-11 -1 -15 5 -3 5 -11 10 -16 10 -6 0 -7 -5 -4 -10 3 -6 -4 -10 -17 -10 -18 0
-20 2 -8 10 13 8 12 10 -2 10 -10 0 -18 -5 -18 -11 0 -5 -5 -7 -10 -4 -6 4
-16 2 -23 -3 -10 -8 -37 -13 -127 -23 -8 -1 -19 -5 -25 -9 -5 -4 -40 -8 -77
-8 -55 -1 -66 1 -61 13 3 8 0 15 -6 15 -6 0 -11 -6 -11 -14 0 -11 -18 -14 -80
-13 -54 0 -78 3 -71 10 6 6 29 10 52 9 46 -2 47 8 2 15 -15 2 -72 6 -125 7
-60 2 -103 8 -113 16 -8 7 -15 10 -15 6 0 -3 -11 -1 -24 4 -18 6 -28 5 -36 -6
-7 -7 -22 -14 -34 -14 -19 1 -20 2 -4 14 10 7 15 16 11 19 -11 12 -51 8 -56
-5 -4 -10 -6 -10 -6 0 -1 17 -208 17 -213 0 -3 -8 -11 -9 -24 -3 -10 4 -21 9
-24 9 -3 1 -9 4 -15 8 -17 10 -115 20 -115 11 0 -4 -20 -7 -45 -6 -31 1 -43
-2 -39 -9 5 -8 -20 -9 -87 -4 -52 4 -105 6 -119 5 -64 -6 -238 -3 -260 4 -20
7 -22 6 -10 -3 12 -9 7 -10 -20 -4 -19 3 -73 7 -120 8 -47 0 -89 4 -95 7 -5 4
-30 5 -55 3 -25 -3 -49 -4 -55 -4 -5 0 -140 1 -300 2 -159 2 -307 2 -328 0z"/>
</g>
</svg>
