<?xml version="1.0" encoding="utf-8"?>
<!-- Generator: Adobe Illustrator 19.0.0, SVG Export Plug-In . SVG Version: 6.00 Build 0)  -->
<svg version="1.1" id="Layer_1" xmlns="http://www.w3.org/2000/svg" xmlns:xlink="http://www.w3.org/1999/xlink" x="0px" y="0px"
	 viewBox="0 0 128 128" style="enable-background:new 0 0 128 128;" xml:space="preserve">
<g id="Q9mQkX_1_">
	<g>
		<g>
			<path id="XMLID_3_" d="M112.3,34.2c2.7,0,3.2,2.1,2.7,4.8c-0.9,4.9-2.1,9.8-3.1,14.7c-1.5,6.8-3,13.6-4.5,20.4
				c-0.7,3-1.8,3.9-4.9,4.2c-6,0.7-12,1.5-18,2.2c-6,0.7-12,1.4-18,2.1c-5.1,0.6-10.1,1.2-15.2,1.8c-1,0.1-2.1,0.3-3.1,0.4
				c-1.9,0.1-3.4-1.1-4.2-3.3c-3-8.1-6-16.1-9-24.2c-3.3-8.9-6.6-17.8-9.8-26.7c-0.4-1.1-0.9-1.6-2.1-1.5c-1.9,0.1-3.9,0.1-5.8,0
				c-2.7-0.1-4.5-1.8-4.4-4.2c0.1-2.4,1.9-4,4.6-4c1.6,0,3.2,0,4.8,0c1.7,0,3.3,0,5,0c2.1,0,3.4,0.8,4.1,2.9
				c1.1,3,17.8,49.3,18.8,52.3c0,0,0.7,1.8,4.3,1.2s45.2-5.8,45.2-5.8s2.2-0.3,2.6-2.2s5.5-27.2,5.8-29.2
				C108.5,37.2,109.6,33.8,112.3,34.2z"/>
			<path id="XMLID_2_" d="M45.1,96.8c0,5.7-4.2,9.9-10,9.9c-5.6,0-10.1-4.4-10.1-9.9c0-5.5,4.5-10.1,10-10.1
				C40.7,86.7,45,91,45.1,96.8z"/>
			<path id="XMLID_1_" d="M108.4,97.1c0,5.7-4.3,9.9-10.2,9.9c-5.4,0-9.9-4.5-9.9-10c0-5.6,4.6-10,10.4-10
				C104.1,87,108.4,91.4,108.4,97.1z"/>
		</g>
	</g>
</g>
</svg>
