<?xml version="1.0" encoding="utf-8"?>
<!-- Generator: Adobe Illustrator 19.0.0, SVG Export Plug-In . SVG Version: 6.00 Build 0)  -->
<svg version="1.1" id="Layer_1" xmlns="http://www.w3.org/2000/svg" xmlns:xlink="http://www.w3.org/1999/xlink" x="0px" y="0px"
	 viewBox="0 0 128 128" style="enable-background:new 0 0 128 128;" xml:space="preserve">
<path d="M59,16.5c1.9,0,3.7,0,5.6,0c0.3,0.1,0.7,0.2,1,0.2c2.2,0.3,4.5,0.5,6.7,1c27.1,6,43.3,34.4,34.6,60.7c-1,3.1-1,5.7,0.2,8.6
	c2.4,5.9,4.4,11.9,6.6,17.9c0,0.5,0,1.1,0,1.6c-1.1,1.7-2.1,2-4.1,1.4c-0.4-0.1-0.8-0.3-1.2-0.4c-5.2-2-10.4-4.1-15.7-6.2
	c-0.9-0.4-1.5-0.2-2.3,0.3c-12.3,9.1-25.9,12-40.7,8.1C21.8,102.5,6.9,72.7,17.9,46c6.4-15.6,18.3-25,34.8-28.6
	C54.8,17,56.9,16.8,59,16.5z M38.2,57.9c-3.4,0-6.2,2.7-6.2,6.1c0,3.4,2.7,6.1,6.1,6.1c3.4,0,6.1-2.7,6.2-6
	C44.3,60.7,41.6,57.9,38.2,57.9z M54.5,64c0,3.3,2.7,6.1,6.1,6.1c3.4,0,6.2-2.8,6.2-6.2c0-3.4-2.7-6.1-6.1-6.1
	C57.2,57.8,54.5,60.6,54.5,64z M76.9,63.9c0,3.4,2.7,6.1,6,6.2c3.4,0,6.2-2.7,6.2-6.1c0-3.4-2.7-6.1-6-6.2
	C79.7,57.8,77,60.5,76.9,63.9z"/>
</svg>
