<?xml version="1.0" encoding="utf-8"?>
<!-- Generator: Adobe Illustrator 19.0.0, SVG Export Plug-In . SVG Version: 6.00 Build 0)  -->
<svg version="1.1" id="Layer_1" xmlns="http://www.w3.org/2000/svg" xmlns:xlink="http://www.w3.org/1999/xlink" x="0px" y="0px"
	 viewBox="0 0 128 128" style="enable-background:new 0 0 128 128;" xml:space="preserve">
<style type="text/css">
	.st0{fill:none;}
	.st1{fill:#010101;}
</style>
<g id="XMLID_2_">
	<path id="XMLID_21_" class="st0" d="M64,37.5c-14.7,0-26.5,11.9-26.5,26.5S49.3,90.5,64,90.5S90.5,78.7,90.5,64S78.7,37.5,64,37.5z
		"/>
	<g id="XMLID_3_">
		<g id="XMLID_8_">
			<g id="XMLID_18_">
				<polygon id="XMLID_20_" class="st1" points="64.8,92.6 64.3,109.2 63.8,92.6 				"/>
			</g>
			<g id="XMLID_15_">
				<polygon id="XMLID_23_" class="st1" points="92.6,63.2 109.2,63.7 92.6,64.2 				"/>
			</g>
			<g id="XMLID_12_">
				<polygon id="XMLID_25_" class="st1" points="63.2,35.4 63.7,18.8 64.2,35.4 				"/>
			</g>
			<g id="XMLID_9_">
				<polygon id="XMLID_27_" class="st1" points="35.4,64.8 18.8,64.3 35.4,63.8 				"/>
			</g>
		</g>
		<path id="XMLID_7_" class="st1" d="M58.2,76.6c0,3.2,2.6-3,5.8-3s5.8,6.2,5.8,3c0-3.2-5.8-29.3-5.8-29.3S58.2,73.3,58.2,76.6z"/>
		<path id="XMLID_4_" class="st1" d="M64,33c-17.1,0-31,13.9-31,31s13.9,31,31,31s31-13.9,31-31S81.1,33,64,33z M64,90.5
			c-14.7,0-26.5-11.9-26.5-26.5S49.3,37.5,64,37.5S90.5,49.3,90.5,64S78.7,90.5,64,90.5z"/>
	</g>
</g>
</svg>
