<?xml version="1.0" encoding="utf-8"?>
<!-- Generator: Adobe Illustrator 19.0.0, SVG Export Plug-In . SVG Version: 6.00 Build 0)  -->
<svg version="1.1" id="Layer_1" xmlns="http://www.w3.org/2000/svg" xmlns:xlink="http://www.w3.org/1999/xlink" x="0px" y="0px"
	 viewBox="0 0 128 128" style="enable-background:new 0 0 128 128;" xml:space="preserve">
<style type="text/css">
	.st0{fill:none;}
	.st1{font-family:'Weibei-TC-Bold-B5pc-H';}
	.st2{font-size:26.1334px;}
	.st3{letter-spacing:-1;}
	.st4{font-size:10.8289px;}
</style>
<g id="XMLID_13_">
	<g>
		<g id="XMLID_96_">
			<path id="XMLID_x5F_18_x5F_" class="st0" d="M114,63.2c0.4,27.6-21.6,50.4-49.2,50.8C37.2,114.4,14.4,92.4,14,64.8
				C13.6,37.2,35.6,14.4,63.2,14C90.8,13.6,113.6,35.6,114,63.2z"/>
			<text id="XMLID_104_">			<textPath  xlink:href="#XMLID_x5F_18_x5F_" startOffset="33.6813%">
<tspan  style="font-family:'ArialNarrow-Bold'; font-size:5.9275px; letter-spacing:120;">CARIBBEAN CRUISE SHIP</tspan>			</textPath>
</text>
			<g id="XMLID_101_">
				<path id="XMLID_x5F_19_x5F_" class="st0" d="M10,64c0,29.8,24.2,54,54,54s54-24.2,54-54S93.8,10,64,10S10,34.2,10,64z"/>
				<text id="XMLID_102_">				<textPath  xlink:href="#XMLID_x5F_19_x5F_" startOffset="99.703%">
<tspan  style="font-family:'ArialNarrow-Bold'; font-size:5.9275px; letter-spacing:120;">CARIBBEAN CRUISE SHIP</tspan>				</textPath>
</text>
			</g>
			<polygon id="XMLID_100_" points="102.8,96.1 102.2,95.1 101.7,96.1 100.7,96.7 101.7,97.2 102.2,98.3 102.8,97.2 103.8,96.7 			
				"/>
			<polygon id="XMLID_99_" points="24.7,96.1 24.2,95.1 23.6,96.1 22.6,96.7 23.6,97.2 24.2,98.3 24.7,97.2 25.8,96.7 			"/>
			<polygon id="XMLID_98_" points="102.8,30.7 102.2,29.7 101.7,30.7 100.7,31.3 101.7,31.8 102.2,32.8 102.8,31.8 103.8,31.3 			
				"/>
			<polygon id="XMLID_97_" points="24.7,30.7 24.2,29.7 23.6,30.7 22.6,31.3 23.6,31.8 24.2,32.8 24.7,31.8 25.8,31.3 			"/>
		</g>
	</g>
	<g>
		<rect id="XMLID_9_" x="10.7" y="62.4" width="106.6" height="1.3"/>
		<rect id="XMLID_8_" x="10.7" y="85.7" width="106.6" height="1.3"/>
		<g>
			<path d="M91.9,41.8c-0.3-0.2-0.6-0.3-0.9-0.4c-2.7-1.1-5.6-1.4-8.5-1.4c-3,0.1-6,0.6-9,1.3C68,42.8,62.8,45,57.6,47.5
				c-8,3.9-16.2,6.9-24.8,9c-1.2,0.3-1.2,0.3-1.2,1.8c0,2.8,1.8,4.6,4.5,4.6c15.4,0,30.9,0,46.3,0c0.3,0,0.6,0,0.9,0
				c0.1-0.3,0.1-0.6,0.2-0.8c0.1-1.6,0.6-3.1,1.2-4.6c1.3-2.8,3.3-5,5.3-7.3c1.1-1.3,2.3-2.6,3.1-4.1C94.2,44.4,93.6,42.8,91.9,41.8
				z M75.8,53.3c-1.7,0.3-3.3,0.6-5,0.9c-0.8,0.1-1.1-0.1-1.4-0.8c-0.3-0.8-0.5-1.5-0.8-2.3c-0.2-0.5-0.1-0.9,0.4-1.1
				c0.5-0.2,0.9,0,1.2,0.5c0.2,0.6,0.5,1.2,0.7,1.9c1.2-0.3,2.4-0.5,3.6-0.8c-0.2-0.6-0.3-1.1-0.5-1.7c-0.2-0.8,0-1.3,0.6-1.5
				c0.5-0.2,1,0.1,1.2,0.9c0.3,0.9,0.5,1.8,0.8,2.6C76.8,52.7,76.5,53.2,75.8,53.3z"/>
			<path id="XMLID_5_" d="M38.5,52.2c0.6-1.2,1.5-2.2,2.8-2.7c0.3-0.1,0.6-0.3,0.9-0.4c6-2.9,11.8-6.1,17.4-9.8
				c0.9-0.6,1.6-1.3,1.7-2.4c0-0.3,0.2-0.6,0.5-0.7c4.3-2.6,8.6-5.2,13.9-5.4c2.4-0.1,4.9,0,7.2,0.7c1.2,0.4,1.6,0.9,1.5,2.2
				c-2.1-0.3-4.3-0.6-6.4-0.8c-2.1-0.2-4.2-0.1-6.1,0.5c-1.9,0.6-3.8,1.5-5.6,2.3c-0.1,0.1-0.3,0.2-0.3,0.4
				c-0.1,0.8-0.3,1.6-0.4,2.5c0.3-0.2,0.6-0.3,0.8-0.4c1.8-0.7,3.6-1.6,5.5-2c4.1-0.9,8.3-0.5,12.5,0.1c0.7,0.1,1,0.5,1.1,1.1
				c0,0.2,0.2,0.5,0.4,0.5c0.9,0.2,1.7,0.2,2.7,0.4c-0.5-2.1-1-4.2-1.5-6.3c-0.3-1.6-1.2-2.6-2.7-3c-1.3-0.4-2.6-0.7-4-0.9
				c-2.9-0.4-5.7-0.2-8.5,0.3c-2.8,0.5-5.3,1.8-7.7,3.1c-0.7,0.4-1.5,0.8-2.3,0.7c-0.4,0-0.9,0-1.3,0.1c-4.5,0.8-8.5,2.6-12,5.6
				c-0.2,0.1-0.3,0.4-0.3,0.6c-0.5,1.6-0.9,3.1-1.4,4.7c-0.1,0.3-0.4,0.6-0.6,0.8c-2.4,1.2-4.8,2.4-7.2,3.6
				c-0.2,0.1-0.5,0.2-0.6,0.3c-1.5,1.6-2.6,3.4-3.4,5.7c1-0.3,1.9-0.6,2.8-0.8C38,52.8,38.3,52.6,38.5,52.2z"/>
			<path id="XMLID_4_" d="M63.6,29.6c-0.7-1.6-1.7-2.7-3.4-3c-1.4-0.3-2.8-0.1-4.2,0.1c-3.7,0.8-5.6,3-6.6,7.2
				C53.6,30.7,58.2,28.9,63.6,29.6z"/>
		</g>
		<g id="XMLID_3_">
			<text id="XMLID_33_" transform="matrix(1 0 0 1 24.607 83.0137)"><tspan x="0" y="0" class="st1 st2 st3">CRUISE</tspan><tspan x="7.3" y="13.4" class="st1 st4">PASSANGERS</tspan></text>
		</g>
	</g>
</g>
</svg>
