<?xml version="1.0" encoding="utf-8"?>
<!-- Generator: Adobe Illustrator 19.0.0, SVG Export Plug-In . SVG Version: 6.00 Build 0)  -->
<svg version="1.1" id="Layer_1" xmlns="http://www.w3.org/2000/svg" xmlns:xlink="http://www.w3.org/1999/xlink" x="0px" y="0px"
	 viewBox="0 0 128 128" style="enable-background:new 0 0 128 128;" xml:space="preserve">
<style type="text/css">
	.st0{fill:#6B6F7D;}
</style>
<g id="XMLID_4_">
	<path id="XMLID_5_" class="st0" d="M64,18.8c-18.3,0-33.2,14.8-33.2,33c0,7.7,2.7,15.1,7.5,20.9c0,0,0.1,0.1,0.1,0.1L63.7,109
		c0.1,0.1,0.2,0.2,0.4,0.2c0.2,0,0.3-0.1,0.4-0.2l25.5-36.6c0,0,0.1-0.1,0.1-0.1c0.9-1.2,1.8-2.4,2.7-3.9c0,0,0-0.1,0.1-0.1
		c0,0,0,0,0-0.1c0-0.1,0.1-0.2,0.2-0.3c2.8-4.9,4.2-10.5,4.2-16.1C97.2,33.6,82.3,18.8,64,18.8z M63.4,68.5
		c-9.3,0-16.8-7.5-16.8-16.7c0-9.2,7.5-16.7,16.8-16.7s16.8,7.5,16.8,16.7C80.2,61,72.7,68.5,63.4,68.5z"/>
</g>
</svg>
