<?xml version="1.0" encoding="utf-8"?>
<!-- Generator: Adobe Illustrator 17.0.2, SVG Export Plug-In . SVG Version: 6.00 Build 0)  -->
<!DOCTYPE svg PUBLIC "-//W3C//DTD SVG 1.1//EN" "http://www.w3.org/Graphics/SVG/1.1/DTD/svg11.dtd">
<svg version="1.1" id="Layer_1" xmlns="http://www.w3.org/2000/svg" xmlns:xlink="http://www.w3.org/1999/xlink" x="0px" y="0px"
	 width="138px" height="142px" viewBox="0 0 138 142" enable-background="new 0 0 138 142" xml:space="preserve">
<path fill="#414042" d="M136.836,81.087l-11.545,3.312c1.906-5.401,2.988-10.907,3.244-16.421l7.174-14.243
	c0.5-0.994,0.102-2.204-0.895-2.709l-6.317,11.009c-0.288-4.66-1.176-9.298-2.66-13.854l4.224-12.017
	c0.369-1.049-0.185-2.2-1.234-2.571l-4.307,10.945c-1.5-3.747-3.411-7.428-5.744-11.004c-0.608-0.935-3.399-1.522-2.789-0.589
	c0.577,0.885,1.116,1.786,1.636,2.695l-4.262,11.357c-2.173-9.558-6.917-18.601-14.187-26.566c-0.75-0.825-3.601-0.954-2.849-0.131
	c7.78,8.524,12.42,18.995,13.884,30.051l-9.719-4.977c-0.587,0.948-0.291,2.192,0.656,2.776l9.415,5.697
	c0.331,4.647,0.109,9.369-0.668,14.071l-4.241-4.738c-0.041-0.09-0.082-0.181-0.138-0.266l-0.07,0.033l-3.106-3.47
	c-0.947,0.581-1.248,1.823-0.666,2.773l1.176,1.922l-8.195,3.871c1.011-5.638,1.191-11.247,0.555-16.73l4.785-15.214
	c0.333-1.062-0.254-2.192-1.319-2.529l-4.461,11.887c-1.309-5.757-3.552-11.325-6.717-16.585c3.305-0.621,6.694-0.953,10.146-0.949
	c1.114,0.002-0.901-2.018-2.014-2.018c-3.275-0.004-6.465,0.234-9.562,0.698c-1.769-2.664-3.784-5.241-6.041-7.714
	c-0.75-0.824-3.6-0.953-2.848-0.13c2.371,2.598,4.44,5.381,6.228,8.302c-6.091,1.194-11.783,3.301-16.974,6.239L72.218,22
	c-0.966-0.56-2.197-0.233-2.758,0.729l-8.028,13.78c-4.482,3.221-8.508,7.13-11.996,11.673L46.837,39.7l3.251-0.623
	c1.095-0.209,1.811-1.269,1.603-2.36l-5.753,0.048l-0.021-0.067c-0.091,0.015-0.175,0.043-0.26,0.069l-5.295,0.045
	c2.957-3.743,6.302-7.089,9.965-9.974l12.283,3.503c1.07,0.306,2.2-0.33,2.506-1.402l-1.35-0.457l-10.593-3.753
	c9.154-6.346,20.008-9.957,31.535-9.943c1.114,0.002-0.9-2.018-2.014-2.018c-10.784-0.014-20.665,2.567-29.196,7.394l4.828-9.43
	c1.983-0.509,4.005-0.92,6.07-1.206c1.104-0.153-1.171-1.875-2.276-1.721c-4.229,0.587-8.259,1.561-12.071,2.888L55.48,0.262
	c-0.969-0.547-2.201-0.21-2.752,0.757l-6.294,11.073c-4.411,1.872-8.493,4.246-12.199,7.087l4.161-11.991
	c-1.036-0.421-2.209,0.072-2.632,1.104l-6.037,14.758c-3.992,3.812-7.437,8.242-10.261,13.226l-5.077-10.882
	c-1.065,0.327-1.662,1.457-1.333,2.521l4.015,13.028c-1.756,3.817-3.176,7.909-4.243,12.246L5.38,43.429
	c-0.97,0.55-1.31,1.781-0.761,2.75l7.08,12.495c-0.857,5.068-1.207,10.151-1.087,15.166L0.932,61.726
	c-0.939,0.601-1.214,1.847-0.614,2.786l10.403,16.282c0.112,0.175,0.253,0.325,0.408,0.456c0.292,2.488,0.696,4.948,1.214,7.366
	l-1.768-1.155c-0.707,0.861-0.579,2.134,0.283,2.839l2.351,1.926c0.554,2.096,1.196,4.154,1.916,6.171L1.069,91.785
	c-0.58,0.952-0.278,2.192,0.673,2.773l15.69,9.557c0.962,2.118,2.023,4.169,3.17,6.151l-3.105-0.942
	c-0.442,1.007,0.012,2.18,1.007,2.637c0.011,0.006,0.024,0.011,0.037,0.018l4.264,1.857c0.125,0.188,0.257,0.369,0.384,0.555
	l-12.232-1.916c-0.295,1.06,0.314,2.159,1.364,2.473c0.013,0.005,0.025,0.008,0.039,0.012l14.207,3.955
	c1.182,1.445,2.421,2.828,3.717,4.142c-0.033,0.311,0.001,0.621,0.107,0.908c-0.382,0.016-0.763,0.038-1.146,0.046l-2.155,4.152
	c1.875-0.061,3.754-0.226,5.633-0.473c0.213,0.399,0.557,0.724,0.99,0.908c0.123,0.054,0.254,0.093,0.393,0.12
	c0.659,0.133,1.323,0.242,1.987,0.349c0.159,0.266,0.375,0.5,0.646,0.672c0.114,0.072,0.237,0.132,0.369,0.181
	c0.939,0.354,1.89,0.67,2.848,0.968c0.997,0.631,2.007,1.239,3.045,1.799c0.124,0.067,0.251,0.119,0.38,0.158
	c0.539,0.163,1.111,0.083,1.583-0.19c0.482,0.382,0.964,0.766,1.461,1.13c0.023,0.017,0.049,0.027,0.073,0.043
	c0.928,1.457,1.9,2.866,2.928,4.207l2.269-4.304c-0.135-0.177-0.264-0.361-0.397-0.541c0.07-0.023,0.138-0.047,0.205-0.077
	c2.239,0.187,4.504,0.238,6.781,0.169l12.308,8.123c0.011,0.007,0.022,0.015,0.033,0.021c0.927,0.586,2.157,0.324,2.761-0.595
	l-9.473-7.971c0.288-0.034,0.575-0.06,0.863-0.099l4.226,1.895c0.013,0.006,0.026,0.011,0.038,0.017
	c1.008,0.427,2.181-0.027,2.628-1.032l-2.666-1.59c2.155-0.427,4.306-0.955,6.443-1.592l17.508,5.564
	c1.062,0.338,2.196-0.248,2.535-1.311l-14.213-6.266c2.282-0.893,4.54-1.898,6.758-3.023l2.174,0.319
	c1.101,0.163,2.127-0.599,2.29-1.702l-1.283-0.332c1.91-1.083,3.787-2.247,5.62-3.5c0.201,0.032,0.406,0.04,0.612,0.01l19.111-2.838
	c1.105-0.164,1.865-1.19,1.701-2.292l-15.495,0.647c3.862-3.202,7.469-6.802,10.73-10.776l14.074-2.858
	c1.09-0.222,1.797-1.287,1.574-2.379l-12.252,0.786c2.573-3.652,4.729-7.41,6.456-11.241l12.464-5.52
	C136.829,83.297,137.286,82.105,136.836,81.087z M57.06,129.304c-1.566,0.016-3.124-0.032-4.67-0.148
	c1.053-0.148,2.105-0.327,3.155-0.531L57.06,129.304z M26.955,91.689l-0.069,0.062c-0.708-4.528-1.007-9.19-0.855-13.902
	l1.949-1.243l6.616,14.45c0.119,0.26,0.296,0.484,0.507,0.67l-7.266,4.968c-0.172-0.749-0.331-1.503-0.479-2.262
	C27.971,93.559,27.805,92.352,26.955,91.689z M33.482,39.331c-1.918,2.99-3.622,6.212-5.107,9.641l-1.489,0.665l-4.251-7.552
	l10.703-3.65L33.482,39.331z M33.26,55.581c0.023,0.116,0.053,0.232,0.098,0.345l4.496,11.377l-9.529,4.82l-0.778-1.313
	c-0.588,0.269-0.976,0.787-1.115,1.371c0.071-0.666,0.151-1.332,0.241-1.998l2.638-2.254c0.847-0.725,0.947-1.998,0.223-2.845
	l-2.307,1.604c0.581-3.195,1.372-6.38,2.379-9.527L33.26,55.581z M35.545,84.309l-5.388-9.092l8.272-5.278
	C36.999,74.627,36.045,79.451,35.545,84.309z M26.372,72.73c0.005,0.12,0.019,0.24,0.046,0.359l-0.08,0.041
	C26.351,72.996,26.358,72.863,26.372,72.73z M20.584,43.196l3.109,7.867l-6.936,3.098C17.717,50.338,19.005,46.673,20.584,43.196z
	 M15.083,63.55l4.022,8.784l-4.415,3.07C14.515,71.491,14.639,67.525,15.083,63.55z M15.661,59.444
	c0.017-0.102,0.032-0.205,0.049-0.307l9.004-5.488l0.986,2.495c-1.434,4.525-2.446,9.122-3.047,13.724l-0.578,0.402L15.661,59.444z
	 M28.914,100.832l6.237-6.028c0.13,4.911,0.696,9.776,1.663,14.489l-6.493-4.242C29.81,103.667,29.336,102.262,28.914,100.832z
	 M38.073,115.138c0.064,0.052,0.136,0.084,0.204,0.127c0.707,2.471,1.529,4.883,2.458,7.219c-0.127,0.031-0.255,0.06-0.383,0.091
	c-2.971-3.529-5.508-7.499-7.59-11.788L38.073,115.138z M34.454,121.514c-1.473-1.392-2.883-2.868-4.21-4.437l1.816,0.791
	C32.819,119.116,33.615,120.334,34.454,121.514z M46.567,125.66c-0.209-0.398-0.411-0.802-0.612-1.206
	c2.341-0.84,4.655-1.814,6.931-2.918l8.978,1.319C56.819,124.486,51.673,125.454,46.567,125.66z M67.144,87.75l1.685,9.773
	l-7.228,7.179c-0.513-4.052-0.682-8.046-0.516-11.944L67.144,87.75z M86.324,90.235l0.122-0.046l1.758,10.195l-10.73,2.215
	C80.769,98.817,83.747,94.682,86.324,90.235z M62.808,111.606c-0.143-0.63-0.275-1.264-0.4-1.901l6.975-8.963l0.748,4.341
	C67.801,107.458,65.355,109.639,62.808,111.606z M58.486,110.653c0.23,1.181,0.484,2.354,0.759,3.52
	c-1.385,0.93-2.797,1.799-4.231,2.606l-1.488-10.646L58.486,110.653z M58.322,118.61c4.297-2.547,8.406-5.563,12.234-8.993
	l-0.294,9.865c-1.035,0.501-2.08,0.966-3.13,1.41L58.322,118.61z M77.984,115.1c-0.637,0.064-1.203,0.426-1.528,0.974
	c-0.796,0.491-1.6,0.962-2.409,1.418l-1.336-9.56c0.078-0.015,0.156-0.028,0.232-0.052l15.69-5.012l0.564,3.273
	C85.709,109.528,81.939,112.523,77.984,115.1z M92.141,101.514c0.526-0.517,0.754-1.298,0.515-2.049l-1.024,0.211L88.76,89.312
	l10.989-4.165c0.259-0.098,0.486-0.244,0.675-0.423l1.662,4.848c-1.519,2.638-3.188,5.158-4.983,7.557l-0.154-1.416
	c-1.114,0.011-2.009,0.92-1.998,2.034l0.019,2.11c-0.809,0.984-1.639,1.944-2.49,2.88L92.141,101.514z M112.662,74.7l1.991-1.301
	c-0.322,0.528-0.404,1.194-0.152,1.81l3.787,9.283l-8.304,1.909l-0.281-0.923c-0.755,0.129-1.332,0.667-1.562,1.346l-0.037,0.009
	C110.053,82.815,111.574,78.759,112.662,74.7z M114.723,59.746l7.015,6.087l-7.939,3.75
	C114.391,66.287,114.696,63.002,114.723,59.746z M97.726,102.853c2.86-3.426,5.455-7.134,7.743-11.08l3.062-1.16l1.818,10.69
	l-12.511,2.583L97.726,102.853z M110.984,89.683l7.912-2.998c0.084-0.032,0.16-0.077,0.237-0.118l0.429,1.052
	c-1.628,3.643-3.628,7.182-5.986,10.565L110.984,89.683z M115.694,72.718l7.974-5.212l0.962,0.835
	c-0.422,4.642-1.402,9.269-2.928,13.787L115.694,72.718z M118.978,38.155c4.212,8.334,6.139,17.462,5.869,26.64l-0.014-0.011
	c-0.047-0.113-0.102-0.225-0.172-0.332l-0.161,0.076l-9.82-7.555c-0.057-1.381-0.166-2.755-0.324-4.122L118.978,38.155z
	 M104.11,66.237l4.555,7.444c-1.019,3.858-2.422,7.673-4.204,11.392L98.59,73.157c-1.054,0.361-1.614,1.51-1.253,2.565l2.43,7.089
	l-10.813,2.486c1.95-4.019,3.472-8.075,4.56-12.134L104.11,66.237z M63.259,39.978l12.285,3.502c1.071,0.306,2.201-0.33,2.506-1.402
	l-1.349-0.457l-10.592-3.754c5.657-3.922,11.965-6.793,18.68-8.413c3.279,6.024,5.375,12.58,6.272,19.358l-9.72-4.977
	c-0.586,0.948-0.291,2.192,0.656,2.776l9.415,5.698c0.331,4.647,0.109,9.368-0.668,14.071l-7.555-8.44
	c-0.949,0.581-1.249,1.823-0.667,2.773l6.995,11.43c-1.019,3.858-2.422,7.674-4.205,11.393l-5.871-11.916
	c-1.053,0.362-1.613,1.51-1.252,2.563l4.75,13.854c-2.824,4.92-6.019,9.432-9.521,13.477l-4.272-15.42l2.533-2.093
	c0.86-0.71,0.979-1.983,0.271-2.841l-10.356,5.788c0.637-4.743,1.805-9.301,3.508-13.596c0.028-0.005,0.057-0.007,0.085-0.013
	l13.274-3.02c1.086-0.244,1.773-1.346,1.524-2.433l-1.402,0.248l-12.059,1.955c3.506-7.362,8.681-13.833,15.545-18.96
	c2.042-1.524-1.679-1.739-4.123,0.105c-5.066,3.824-9.193,8.214-12.407,13.091l-0.316-11.243c-1.116-0.027-2.039,0.85-2.069,1.963
	l-0.367,14.014c-2.75,5.383-4.521,11.265-5.344,17.558l-8.222-8.008c-0.878,0.685-1.039,1.951-0.351,2.83l8.111,10.43
	c-0.197,4.183-0.006,8.525,0.566,13.003l-13.062-9.579c-0.713,0.857-0.593,2.131,0.263,2.841l8.526,7.769
	c-1.014,0.079-1.829,0.902-1.86,1.943l-0.328,10.958c-2.141,1.005-4.328,1.87-6.552,2.593c-1.034-2.395-1.932-4.877-2.686-7.43
	l7.263-7.02c0.801-0.774,0.822-2.052,0.048-2.852l-8.393,5.737c-1.454-6.337-2.061-13.021-1.758-19.793l10.23-12.817
	c1.742-2.015,0.304-3.297,0.304-3.297L39.399,84.977c0.55-4.915,1.591-9.839,3.139-14.675l13.44-5.813
	c1.023-0.442,1.494-1.631,1.053-2.652l-12.764,3.68c1.55-3.822,3.426-7.428,5.593-10.779l13.161-2.522
	c1.095-0.209,1.81-1.268,1.602-2.36l-11.328,0.095C56.253,46.208,59.597,42.863,63.259,39.978z M44.434,40.161l1.983,12.309
	c-2.269,3.536-4.244,7.392-5.902,11.54l-5.235-9.301l7.765-3.358c1.022-0.443,1.494-1.631,1.053-2.652l-12.764,3.681
	c1.55-3.822,3.426-7.428,5.593-10.779L44.434,40.161z M36.501,35.043l-2.618-8.545l9.207,1.299
	C40.724,29.994,38.521,32.411,36.501,35.043z M48.497,23.37c-1.115,0.802-2.203,1.644-3.261,2.531L34.55,23.745
	c5.961-5.503,13.015-9.694,20.822-12.176L48.497,23.37z M31.466,26.816l1.494,9.274l-9.423,1.403
	C25.806,33.613,28.466,30.033,31.466,26.816z M15.041,80.122l5.484-4.686l1.135,2.479c0.086,0.188,0.205,0.356,0.34,0.507
	c-0.127,5.621,0.342,11.175,1.372,16.53l-0.557,0.507l-5.557-3.632C16.224,88.039,15.471,84.122,15.041,80.122z M20.137,97.901
	l-0.693,0.631c-0.216-0.566-0.424-1.138-0.626-1.712L20.137,97.901z M21.084,102.48l1.811-2.319l0.586,0.48
	c-0.67,0.859-0.538,2.102,0.311,2.796l2.395,1.962c0.91,2.591,1.965,5.102,3.156,7.519l-2.907-0.882
	C24.413,109.053,22.618,105.856,21.084,102.48z M61.034,127.302c3.007-0.867,5.984-1.958,8.906-3.261l1.118,0.164
	c0.837,0.123,1.628-0.288,2.031-0.977l1.799,0.264l-0.609,3.139c-3.526,1.05-7.088,1.791-10.639,2.224L61.034,127.302z
	 M78.334,125.278l0.029-1.275l2.367,0.348C79.935,124.675,79.136,124.985,78.334,125.278z M78.447,120.402l0.02-0.858
	c4.606-2.827,8.984-6.194,13.018-10.037c0.203-0.001,0.406-0.026,0.604-0.09l2.956-0.944l0.071,8.043
	c-3.103,2.164-6.337,4.064-9.653,5.702L78.447,120.402z M98.905,113.686l-0.678-6.229l10.802-3.451
	C105.926,107.581,102.522,110.813,98.905,113.686z"/>
</svg>
