<?xml version="1.0" standalone="no"?>
<!DOCTYPE svg PUBLIC "-//W3C//DTD SVG 20010904//EN"
 "http://www.w3.org/TR/2001/REC-SVG-20010904/DTD/svg10.dtd">
<svg version="1.0" xmlns="http://www.w3.org/2000/svg"
 width="358.000000pt" height="358.000000pt" viewBox="0 0 358.000000 358.000000"
 preserveAspectRatio="xMidYMid meet">
<metadata>
Created by potrace 1.11, written by Peter Selinger 2001-2013
</metadata>
<g transform="translate(0.000000,358.000000) scale(0.100000,-0.100000)"
fill="#000000" stroke="none">
<path d="M0 1790 l0 -1780 1790 0 1790 0 0 1780 0 1780 -1790 0 -1790 0 0
-1780z m2005 1549 c208 -38 256 -190 150 -475 -23 -62 -30 -72 -61 -83 -67
-24 -137 -25 -210 -3 -108 33 -114 40 -114 126 0 88 0 88 -134 144 -114 48
-158 75 -180 113 -50 84 19 151 184 178 79 13 296 13 365 0z m811 -371 c53
-57 64 -109 39 -194 -30 -102 -143 -302 -184 -323 -51 -28 -110 11 -136 89
-17 51 -25 59 -108 110 -104 65 -116 168 -27 238 103 80 237 135 319 129 49
-4 58 -8 97 -49z m-1334 -39 c11 -14 22 -44 25 -67 5 -36 2 -45 -25 -72 -24
-23 -39 -30 -69 -30 -54 0 -84 33 -91 99 -4 44 -1 53 22 76 22 22 34 26 73 23
36 -2 50 -9 65 -29z m503 -264 c66 -8 152 -15 190 -15 178 0 250 -55 330 -252
45 -109 69 -221 91 -413 44 -389 11 -559 -136 -705 -117 -116 -255 -177 -462
-205 -207 -27 -638 -57 -763 -53 -138 5 -162 14 -224 84 -61 69 -80 129 -111
354 -12 88 -12 329 0 415 42 293 157 488 390 659 96 71 212 123 310 139 61 10
276 6 385 -8z m1161 -276 c68 -42 105 -164 119 -394 9 -138 -9 -337 -34 -385
-10 -19 -30 -41 -46 -49 -24 -12 -32 -11 -61 2 -42 20 -62 60 -107 207 -66
216 -65 214 -164 205 l-72 -7 -31 43 c-43 60 -64 138 -57 217 6 77 14 86 124
132 155 65 256 74 329 29z m-2352 -129 c32 -12 56 -58 56 -108 0 -52 -36 -87
-91 -87 -55 0 -81 29 -87 97 -3 46 -1 56 20 75 20 18 38 26 70 32 4 0 18 -3
32 -9z m-78 -399 c17 -10 38 -34 46 -52 24 -52 48 -211 48 -322 0 -117 -13
-147 -78 -178 l-43 -21 -127 21 c-70 12 -142 21 -160 21 -43 0 -91 21 -121 54
-36 38 -41 120 -11 180 23 49 244 266 303 299 41 22 104 22 143 -2z m2173
-245 c15 -15 25 -42 28 -70 5 -40 2 -48 -25 -76 -33 -33 -83 -40 -114 -16 -27
20 -50 84 -43 117 15 66 109 93 154 45z m-1974 -551 c30 -53 53 -70 122 -90
55 -16 87 -44 81 -72 -4 -23 -98 -87 -166 -113 -78 -29 -127 -27 -163 9 -36
37 -37 68 -3 160 21 55 83 151 99 151 2 0 15 -20 30 -45z m1303 -105 c49 -72
7 -160 -75 -160 -52 0 -84 33 -90 94 -7 56 14 92 60 104 46 12 79 1 105 -38z
m-464 -40 c40 -5 80 -16 95 -28 34 -25 56 -87 47 -134 -7 -38 -145 -237 -215
-312 -69 -73 -162 -96 -227 -55 -43 26 -48 35 -73 144 -12 50 -31 119 -42 154
-34 103 -16 174 56 214 43 24 236 33 359 17z"/>
<path d="M1688 3211 c-26 -4 -50 -9 -53 -13 -3 -3 30 -20 75 -38 141 -57 190
-111 190 -210 0 -37 2 -40 40 -50 67 -18 87 -7 109 64 43 141 36 215 -22 236
-37 14 -271 22 -339 11z"/>
<path d="M1800 2459 c-265 -9 -351 -22 -440 -70 -109 -58 -177 -162 -212 -324
-17 -78 -19 -130 -19 -398 0 -184 5 -323 11 -346 22 -84 141 -146 300 -157 99
-8 398 11 514 31 88 16 198 50 262 83 54 28 100 82 138 162 27 59 31 76 34
187 12 339 -58 726 -148 821 -24 25 -18 25 -440 11z m160 -186 c236 -114 332
-413 210 -659 -52 -106 -124 -180 -222 -228 -268 -131 -584 12 -628 285 -5 30
-16 79 -25 109 -21 71 -15 163 16 227 29 62 168 200 237 237 105 56 149 67
252 63 82 -3 104 -7 160 -34z"/>
<path d="M1709 2111 c-132 -52 -255 -194 -275 -319 -8 -52 17 -137 59 -198 65
-94 165 -117 299 -70 186 66 277 161 286 301 6 97 -9 138 -74 201 -99 97 -194
125 -295 85z m120 -116 c95 -33 158 -116 142 -185 -4 -20 -13 -44 -19 -55 -16
-30 -64 -72 -95 -84 -42 -16 -183 -14 -216 4 -80 41 -80 210 0 281 60 54 115
65 188 39z"/>
<path d="M1712 1885 c-27 -22 -32 -34 -32 -69 0 -29 6 -48 18 -59 21 -19 77
-22 116 -7 29 11 60 63 51 89 -9 30 -50 61 -87 67 -27 5 -40 1 -66 -21z"/>
<path d="M2903 2259 l-83 -31 0 -38 c0 -22 5 -50 11 -64 11 -22 16 -24 58 -20
35 4 56 0 91 -18 57 -29 93 -82 131 -188 l29 -85 -4 150 c-5 158 -18 251 -42
297 -13 25 -20 28 -62 27 -26 0 -83 -13 -129 -30z"/>
<path d="M535 1649 c-55 -50 -110 -102 -122 -117 -42 -50 -34 -57 95 -77 64
-10 130 -20 146 -23 l29 -5 -7 84 c-8 101 -26 211 -35 221 -3 4 -51 -33 -106
-83z"/>
<path d="M1458 785 c-2 -3 10 -56 28 -117 18 -62 33 -123 34 -135 0 -32 30
-30 62 5 32 34 167 218 175 238 4 12 -19 14 -144 14 -82 0 -152 -2 -155 -5z"/>
</g>
</svg>
